<?xml version="1.0" encoding="UTF-8"?>
<!DOCTYPE svg PUBLIC "-//W3C//DTD SVG 1.1//EN" "http://www.w3.org/Graphics/SVG/1.1/DTD/svg11.dtd">
<svg xmlns="http://www.w3.org/2000/svg" version="1.1" width="1200px" height="1200px" style="shape-rendering:geometricPrecision; text-rendering:geometricPrecision; image-rendering:optimizeQuality; fill-rule:evenodd; clip-rule:evenodd" xmlns:xlink="http://www.w3.org/1999/xlink">
<g><path style="opacity:0.998" fill="#dd0031" d="M 599.5,143.5 C 599.826,179.24 599.493,214.906 598.5,250.5C 506.249,458.837 413.582,667.004 320.5,875C 355.171,875.833 389.838,875.667 424.5,874.5C 443.22,828.411 461.887,782.411 480.5,736.5C 520.167,736.5 559.833,736.5 599.5,736.5C 599.5,858.833 599.5,981.167 599.5,1103.5C 473.146,1034.24 346.98,964.572 221,894.5C 197.767,698.569 174.933,502.569 152.5,306.5C 152.667,305.167 152.833,303.833 153,302.5C 301.587,248.805 450.42,195.805 599.5,143.5 Z"/></g>
<g><path style="opacity:1" fill="#c3002f" d="M 599.5,143.5 C 748.58,195.805 897.413,248.805 1046,302.5C 1046.17,303.833 1046.33,305.167 1046.5,306.5C 1024.07,502.569 1001.23,698.569 978,894.5C 852.02,964.572 725.854,1034.24 599.5,1103.5C 599.5,981.167 599.5,858.833 599.5,736.5C 559.833,736.5 520.167,736.5 480.5,736.5C 559.332,735.334 638.332,735.168 717.5,736C 736.26,782.11 754.927,828.276 773.5,874.5C 808.167,875.833 842.833,875.833 877.5,874.5C 785.059,667.285 692.892,459.951 601,252.5C 600.583,251.244 599.75,250.577 598.5,250.5C 599.493,214.906 599.826,179.24 599.5,143.5 Z"/></g>
<g><path style="opacity:1" fill="#fefefe" d="M 598.5,250.5 C 599.75,250.577 600.583,251.244 601,252.5C 692.892,459.951 785.059,667.285 877.5,874.5C 842.833,875.833 808.167,875.833 773.5,874.5C 754.927,828.276 736.26,782.11 717.5,736C 638.332,735.168 559.332,735.334 480.5,736.5C 461.887,782.411 443.22,828.411 424.5,874.5C 389.838,875.667 355.171,875.833 320.5,875C 413.582,667.004 506.249,458.837 598.5,250.5 Z"/></g>
<g><path style="opacity:1" fill="#dd0231" d="M 598.5,455.5 C 599.499,519.998 599.832,584.665 599.5,649.5C 572.5,649.5 545.5,649.5 518.5,649.5C 544.61,584.611 571.277,519.945 598.5,455.5 Z"/></g>
<g><path style="opacity:1" fill="#c3022f" d="M 598.5,455.5 C 598.56,454.957 598.893,454.624 599.5,454.5C 627.329,519.158 654.329,584.158 680.5,649.5C 653.5,649.5 626.5,649.5 599.5,649.5C 599.832,584.665 599.499,519.998 598.5,455.5 Z"/></g>
</svg>
