<?xml version="1.0" encoding="UTF-8"?>
<!DOCTYPE svg PUBLIC "-//W3C//DTD SVG 1.1//EN" "http://www.w3.org/Graphics/SVG/1.1/DTD/svg11.dtd">
<svg xmlns="http://www.w3.org/2000/svg" version="1.1" width="2048px" height="1258px" style="shape-rendering:geometricPrecision; text-rendering:geometricPrecision; image-rendering:optimizeQuality; fill-rule:evenodd; clip-rule:evenodd" xmlns:xlink="http://www.w3.org/1999/xlink">
<g><path style="opacity:0.998" fill="#00bcf2" d="M 1127.5,-0.5 C 1163.83,-0.5 1200.17,-0.5 1236.5,-0.5C 1431.01,24.2292 1584.34,116.229 1696.5,275.5C 1752.37,359.012 1787.53,451.012 1802,551.5C 1807.81,623.273 1804.47,694.607 1792,765.5C 1789.39,774.488 1786.89,783.488 1784.5,792.5C 1867.52,789.283 1936.68,817.616 1992,877.5C 2021.27,913.786 2039.77,955.119 2047.5,1001.5C 2047.5,1020.83 2047.5,1040.17 2047.5,1059.5C 2040.42,1119.81 2014.42,1170.14 1969.5,1210.5C 1967.01,1210.13 1966.34,1210.8 1967.5,1212.5C 1945.33,1231 1921,1246 1894.5,1257.5C 1369.5,1257.5 844.5,1257.5 319.5,1257.5C 253.843,1237.68 194.843,1205.84 142.5,1162C 76.6049,1102.51 32.4382,1029.01 10,941.5C 5.77393,920.163 2.27393,898.829 -0.5,877.5C -0.5,853.167 -0.5,828.833 -0.5,804.5C 6.76174,702.454 45.7617,615.121 116.5,542.5C 118.027,542.573 119.027,541.906 119.5,540.5C 120.906,540.027 121.573,539.027 121.5,537.5C 123.167,535.833 124.833,534.167 126.5,532.5C 128.027,532.573 129.027,531.906 129.5,530.5C 130.906,530.027 131.573,529.027 131.5,527.5C 133.027,527.573 134.027,526.906 134.5,525.5C 176.187,483.16 224.854,451.66 280.5,431C 303.562,423.486 326.895,416.82 350.5,411C 363.776,409.08 377.109,407.747 390.5,407C 417.833,406.333 445.167,406.333 472.5,407C 503.457,408.391 533.457,414.391 562.5,425C 564.902,425.814 567.235,425.647 569.5,424.5C 573.126,419.475 576.293,414.142 579,408.5C 636.924,258.978 735.757,146.478 875.5,71C 916.099,50.7059 958.099,33.7059 1001.5,20C 1023.83,13.5576 1046.5,8.55758 1069.5,5C 1088.99,3.21702 1108.32,1.38369 1127.5,-0.5 Z M 575.5,606.5 C 600.518,606.572 625.518,607.239 650.5,608.5C 683.091,700.792 715.424,792.958 747.5,885C 747.415,886.107 747.081,887.107 746.5,888C 743.623,889.127 740.623,889.794 737.5,890C 719.833,890.667 702.167,890.667 684.5,890C 677.328,869.319 670.662,848.485 664.5,827.5C 629.167,826.626 593.834,826.126 558.5,826C 551.791,846.628 544.791,867.128 537.5,887.5C 518.558,889.18 499.558,889.68 480.5,889C 478.059,888.964 476.059,888.131 474.5,886.5C 486.376,851.37 498.543,816.37 511,781.5C 532.794,723.287 554.294,664.954 575.5,606.5 Z M 1471.5,682.5 C 1528.95,681.137 1561.12,708.804 1568,765.5C 1568.5,778.829 1568.67,792.163 1568.5,805.5C 1530.5,805.333 1492.5,805.5 1454.5,806C 1448.78,806.211 1443.12,806.711 1437.5,807.5C 1436.35,810.106 1436.18,812.773 1437,815.5C 1441.3,824.795 1446.8,833.295 1453.5,841C 1462.56,846.774 1472.56,850.107 1483.5,851C 1504.75,853.471 1525.08,850.471 1544.5,842C 1546.81,841.338 1549.15,840.838 1551.5,840.5C 1552.55,851.478 1552.71,862.478 1552,873.5C 1551.71,875.952 1551.04,878.285 1550,880.5C 1537.42,885.938 1524.25,889.438 1510.5,891C 1491.15,892.578 1471.82,892.578 1452.5,891C 1416.03,882.864 1392.86,860.698 1383,824.5C 1372.8,782.731 1381.14,745.398 1408,712.5C 1416.66,704.577 1426.16,697.744 1436.5,692C 1447.92,687.551 1459.59,684.384 1471.5,682.5 Z M 1341.5,684.5 C 1346.77,683.835 1351.6,684.835 1356,687.5C 1358.7,693.53 1360.04,699.864 1360,706.5C 1360.5,717.828 1360.67,729.162 1360.5,740.5C 1355.16,739.109 1349.82,737.609 1344.5,736C 1322.34,732.328 1306.18,740.494 1296,760.5C 1293.73,765.644 1292.06,770.978 1291,776.5C 1288.68,814.468 1287.18,852.468 1286.5,890.5C 1267.17,890.5 1247.83,890.5 1228.5,890.5C 1228.5,822.5 1228.5,754.5 1228.5,686.5C 1248.17,686.5 1267.83,686.5 1287.5,686.5C 1287.17,700.183 1287.5,713.85 1288.5,727.5C 1296.29,716.876 1304.29,706.376 1312.5,696C 1314.46,695.047 1316.12,693.713 1317.5,692C 1325.39,688.756 1333.39,686.256 1341.5,684.5 Z M 941.5,707.5 C 938.78,715.607 934.947,723.274 930,730.5C 912.355,754.473 894.355,778.139 876,801.5C 866.608,814.56 857.608,827.894 849,841.5C 848.411,844.79 849.911,846.29 853.5,846C 864.161,846.685 874.828,847.185 885.5,847.5C 904.167,847.5 922.833,847.5 941.5,847.5C 941.5,861.833 941.5,876.167 941.5,890.5C 881.833,890.5 822.167,890.5 762.5,890.5C 761.601,881.402 763.101,872.735 767,864.5C 791.592,828.603 817.592,793.936 845,760.5C 849.612,753.584 854.445,746.917 859.5,740.5C 861.658,737.852 862.992,734.852 863.5,731.5C 832.88,729.763 802.213,729.097 771.5,729.5C 771.5,715.167 771.5,700.833 771.5,686.5C 828.167,686.5 884.833,686.5 941.5,686.5C 941.5,693.5 941.5,700.5 941.5,707.5 Z M 1112.5,686.5 C 1131.83,686.5 1151.17,686.5 1170.5,686.5C 1170.5,754.5 1170.5,822.5 1170.5,890.5C 1151.17,890.5 1131.83,890.5 1112.5,890.5C 1112.83,879.147 1112.5,867.814 1111.5,856.5C 1110.89,856.624 1110.56,856.957 1110.5,857.5C 1109.83,857.5 1109.5,857.833 1109.5,858.5C 1108.17,859.167 1107.17,860.167 1106.5,861.5C 1095.13,875.025 1081.13,884.858 1064.5,891C 1031.79,899.039 1006.29,889.206 988,861.5C 985.717,856.603 983.717,851.603 982,846.5C 977.239,793.28 975.073,739.947 975.5,686.5C 996.5,686.5 1017.5,686.5 1038.5,686.5C 1038.33,724.168 1038.5,761.835 1039,799.5C 1039.39,808.521 1040.06,817.521 1041,826.5C 1049.09,846.19 1063.59,852.69 1084.5,846C 1091.04,844.151 1096.54,840.651 1101,835.5C 1105.87,828.886 1109.21,821.553 1111,813.5C 1112.27,771.177 1112.77,728.843 1112.5,686.5 Z"/></g>
<g><path style="opacity:0.184" fill="#00bdf8" d="M 134.5,525.5 C 134.027,526.906 133.027,527.573 131.5,527.5C 131.973,526.094 132.973,525.427 134.5,525.5 Z"/></g>
<g><path style="opacity:0.188" fill="#00bdf8" d="M 131.5,527.5 C 131.573,529.027 130.906,530.027 129.5,530.5C 129.427,528.973 130.094,527.973 131.5,527.5 Z"/></g>
<g><path style="opacity:0.184" fill="#00bdf8" d="M 129.5,530.5 C 129.027,531.906 128.027,532.573 126.5,532.5C 126.973,531.094 127.973,530.427 129.5,530.5 Z"/></g>
<g><path style="opacity:0.188" fill="#00bdf8" d="M 121.5,537.5 C 121.573,539.027 120.906,540.027 119.5,540.5C 119.427,538.973 120.094,537.973 121.5,537.5 Z"/></g>
<g><path style="opacity:0.18" fill="#00bdf8" d="M 119.5,540.5 C 119.027,541.906 118.027,542.573 116.5,542.5C 116.973,541.094 117.973,540.427 119.5,540.5 Z"/></g>
<g><path style="opacity:0.97" fill="#00bbf2" d="M 608.5,657.5 C 611.595,657.626 613.428,659.293 614,662.5C 622.932,696.293 633.265,729.627 645,762.5C 645.667,766.5 645.667,770.5 645,774.5C 643.174,776.179 641.008,777.346 638.5,778C 616.428,780.154 594.428,779.654 572.5,776.5C 573.61,772.594 574.443,768.594 575,764.5C 586.767,728.98 597.934,693.313 608.5,657.5 Z"/></g>
<g><path style="opacity:0.425" fill="#00bbf1" d="M 941.5,707.5 C 941.5,700.5 941.5,693.5 941.5,686.5C 884.833,686.5 828.167,686.5 771.5,686.5C 771.5,700.833 771.5,715.167 771.5,729.5C 769.517,715.205 768.85,700.538 769.5,685.5C 827.167,685.5 884.833,685.5 942.5,685.5C 942.825,693.019 942.492,700.352 941.5,707.5 Z"/></g>
<g><path style="opacity:0.343" fill="#00bbf1" d="M 1112.5,686.5 C 1132.33,685.503 1152.33,685.17 1172.5,685.5C 1173.16,754.175 1172.5,822.508 1170.5,890.5C 1170.5,822.5 1170.5,754.5 1170.5,686.5C 1151.17,686.5 1131.83,686.5 1112.5,686.5 Z"/></g>
<g><path style="opacity:0.966" fill="#00bbf2" d="M 1473.5,721.5 C 1499.12,721.78 1512.78,734.78 1514.5,760.5C 1514.75,767.414 1511.42,770.914 1504.5,771C 1485.14,771.843 1465.81,771.51 1446.5,770C 1438.99,770.136 1436.49,766.636 1439,759.5C 1442.76,747.875 1448.93,737.709 1457.5,729C 1462.77,726.195 1468.11,723.695 1473.5,721.5 Z"/></g>
<g><path style="opacity:0.149" fill="#00bbf3" d="M 885.5,847.5 C 904.326,846.503 923.326,846.17 942.5,846.5C 942.829,861.343 942.496,876.01 941.5,890.5C 941.5,876.167 941.5,861.833 941.5,847.5C 922.833,847.5 904.167,847.5 885.5,847.5 Z"/></g>
<g><path style="opacity:0.207" fill="#00baf3" d="M 1110.5,857.5 C 1110.56,856.957 1110.89,856.624 1111.5,856.5C 1112.5,867.814 1112.83,879.147 1112.5,890.5C 1111.81,880.071 1111.15,869.071 1110.5,857.5 Z"/></g>
<g><path style="opacity:0.302" fill="#00bcf7" d="M 1109.5,858.5 C 1109.5,860.5 1108.5,861.5 1106.5,861.5C 1107.17,860.167 1108.17,859.167 1109.5,858.5 Z"/></g>
<g><path style="opacity:0.247" fill="#00bdf7" d="M 1969.5,1210.5 C 1969.17,1211.5 1968.5,1212.17 1967.5,1212.5C 1966.34,1210.8 1967.01,1210.13 1969.5,1210.5 Z"/></g>
</svg>
