<?xml version="1.0" encoding="UTF-8"?>
<svg version="1.1" xmlns="http://www.w3.org/2000/svg" width="320" height="180">
<path d="M0 0 C105.6 0 211.2 0 320 0 C320 59.4 320 118.8 320 180 C214.4 180 108.8 180 0 180 C0 120.6 0 61.2 0 0 Z " fill="#FCFCFC" transform="translate(0,0)"/>
<path d="M0 0 C0.33 0.66 0.66 1.32 1 2 C2.99646149 2.35391048 4.99744555 2.68237321 7 3 C9.54817137 3.83695782 12.04418813 4.70727465 14.55078125 5.65234375 C15.25019333 5.91253799 15.94960541 6.17273224 16.67021179 6.44081116 C18.1376962 6.98863713 19.6041407 7.53925611 21.06958008 8.0925293 C23.31969427 8.94021028 25.57455768 9.77424874 27.83007812 10.60742188 C29.25811768 11.14241528 30.68586303 11.67819476 32.11328125 12.21484375 C32.78925858 12.46386948 33.4652359 12.7128952 34.16169739 12.96946716 C38.88527712 14.77055424 38.88527712 14.77055424 40 17 C41.92194103 17.50793409 43.84676209 18.00748018 45.78466797 18.45062256 C49.15081402 19.28538894 52.34432916 20.54596123 55.5625 21.8203125 C56.23925781 22.08383514 56.91601562 22.34735779 57.61328125 22.61886597 C59.74398705 23.44972409 61.87200538 24.28722585 64 25.125 C65.45685766 25.69445471 66.91388753 26.26346907 68.37109375 26.83203125 C71.91607054 28.21627941 75.45865583 29.60648616 79 31 C77.39394255 34.2121149 74.03056176 34.74945228 70.82421875 35.96875 C70.10265091 36.24972534 69.38108307 36.53070068 68.63764954 36.82019043 C66.32341928 37.72003436 64.00567383 38.61037049 61.6875 39.5 C59.38074105 40.3913407 57.07476247 41.28464326 54.76948547 42.17980957 C53.33363851 42.73670689 51.89681409 43.29109224 50.45890808 43.84265137 C44.22492479 46.11538642 44.22492479 46.11538642 39 50 C36.66754118 50.33939858 34.33406623 50.67183788 32 51 C29.81187883 51.76200011 27.6490661 52.60005478 25.515625 53.50390625 C24.33355469 53.99697266 23.15148437 54.49003906 21.93359375 54.99804688 C20.70544317 55.51885733 19.47758122 56.04034893 18.25 56.5625 C15.82029828 57.59108429 13.38762982 58.61164055 10.953125 59.62890625 C9.34679199 60.3106189 9.34679199 60.3106189 7.70800781 61.00610352 C5 62 5 62 2 62 C1.34 62.66 0.68 63.32 0 64 C-1.34838383 61.30323233 -1.12716247 59.20852221 -1.12939453 56.18920898 C-1.13254669 54.97132187 -1.13569885 53.75343475 -1.13894653 52.49864197 C-1.13715689 51.16445886 -1.13510597 49.83027608 -1.1328125 48.49609375 C-1.13348581 47.13371259 -1.13445606 45.77133155 -1.13571167 44.40895081 C-1.13718686 41.55330258 -1.13503948 38.69768561 -1.13037109 35.84204102 C-1.12466849 32.17425015 -1.12795727 28.50653236 -1.13394356 24.83874416 C-1.13754938 22.025858 -1.13641059 19.21298929 -1.13381577 16.40010262 C-1.13314683 15.04725193 -1.13397375 13.69439968 -1.13629532 12.34155083 C-1.13882273 10.454833 -1.13429043 8.56810965 -1.12939453 6.68139648 C-1.12859894 5.60599106 -1.12780334 4.53058563 -1.12698364 3.42259216 C-1 1 -1 1 0 0 Z " fill="#F8FAFA" transform="translate(1,35)"/>
<path d="M0 0 C0.70125 0.45375 1.4025 0.9075 2.125 1.375 C4.52584462 0.56527984 4.52584462 0.56527984 7.125 -0.625 C12.16427208 -1.41875063 12.16427208 -1.41875063 15.125 -0.625 C17.82215712 1.77436256 19.60175154 4.63797618 21.5 7.6875 C22.01949219 8.47318359 22.53898437 9.25886719 23.07421875 10.06835938 C24.4493429 12.15591864 25.78944233 14.26204032 27.125 16.375 C27.785 17.365 28.445 18.355 29.125 19.375 C29.455 13.765 29.785 8.155 30.125 2.375 C29.135 2.375 28.145 2.375 27.125 2.375 C27.125 1.385 27.125 0.395 27.125 -0.625 C30.095 -0.625 33.065 -0.625 36.125 -0.625 C36.125 0.365 36.125 1.355 36.125 2.375 C35.135 2.375 34.145 2.375 33.125 2.375 C33.125 11.615 33.125 20.855 33.125 30.375 C32.135 30.375 31.145 30.375 30.125 30.375 C28.62280273 28.77026367 28.62280273 28.77026367 27.05859375 26.54296875 C26.49076172 25.74439453 25.92292969 24.94582031 25.33789062 24.12304688 C24.75201172 23.27806641 24.16613281 22.43308594 23.5625 21.5625 C22.67788086 20.31243164 22.67788086 20.31243164 21.77539062 19.03710938 C19.51893425 15.84110462 17.29520282 12.63030424 15.125 9.375 C14.795 15.315 14.465 21.255 14.125 27.375 C15.445 27.375 16.765 27.375 18.125 27.375 C18.125 28.365 18.125 29.355 18.125 30.375 C14.165 30.375 10.205 30.375 6.125 30.375 C5.63 28.89 5.63 28.89 5.125 27.375 C4.465 27.045 3.805 26.715 3.125 26.375 C2.795 28.025 2.465 29.675 2.125 31.375 C1.795 30.385 1.465 29.395 1.125 28.375 C0.52365234 29.10626099 0.52365234 29.10626099 -0.08984375 29.85229492 C-2.35234431 31.78216582 -3.49687541 31.74919649 -6.4375 31.73828125 C-7.31664062 31.73763672 -8.19578125 31.73699219 -9.1015625 31.73632812 C-10.01679688 31.72021484 -10.93203125 31.70410156 -11.875 31.6875 C-12.79023438 31.69072266 -13.70546875 31.69394531 -14.6484375 31.69726562 C-21.47417092 31.64221939 -21.47417092 31.64221939 -24.875 29.375 C-24.215 29.045 -23.555 28.715 -22.875 28.375 C-23.308125 27.57449219 -23.308125 27.57449219 -23.75 26.7578125 C-26.62634576 20.98514635 -28.23181927 15.81730217 -26.875 9.375 C-24.68948414 4.81862417 -21.9470626 2.04766673 -17.6875 -0.625 C-11.75194638 -2.18186652 -5.50033985 -3.10888774 0 0 Z " fill="#F5FAFA" transform="translate(279.875,112.625)"/>
<path d="M0 0 C0.391875 0.474375 0.78375 0.94875 1.1875 1.4375 C1.56519531 0.94636719 1.94289062 0.45523438 2.33203125 -0.05078125 C4.89813292 -2.14147883 6.61320933 -1.86512202 9.875 -1.75 C10.86886719 -1.72292969 11.86273438 -1.69585937 12.88671875 -1.66796875 C13.64597656 -1.63316406 14.40523437 -1.59835938 15.1875 -1.5625 C15.1875 -0.9025 15.1875 -0.2425 15.1875 0.4375 C14.1975 0.4375 13.2075 0.4375 12.1875 0.4375 C12.1875 9.0175 12.1875 17.5975 12.1875 26.4375 C15.4875 26.4375 18.7875 26.4375 22.1875 26.4375 C22.1875 25.1175 22.1875 23.7975 22.1875 22.4375 C23.1775 22.4375 24.1675 22.4375 25.1875 22.4375 C25.1875 24.7475 25.1875 27.0575 25.1875 29.4375 C21.39584926 29.4664337 17.60422673 29.48427601 13.8125 29.5 C12.73226562 29.50837891 11.65203125 29.51675781 10.5390625 29.52539062 C9.5078125 29.52861328 8.4765625 29.53183594 7.4140625 29.53515625 C6.46096191 29.54039307 5.50786133 29.54562988 4.52587891 29.55102539 C2.1875 29.4375 2.1875 29.4375 0.1875 28.4375 C0.1875 27.1175 0.1875 25.7975 0.1875 24.4375 C-0.4725 24.7675 -1.1325 25.0975 -1.8125 25.4375 C-2.1425 26.7575 -2.4725 28.0775 -2.8125 29.4375 C-10.4025 29.4375 -17.9925 29.4375 -25.8125 29.4375 C-25.3175 27.9525 -25.3175 27.9525 -24.8125 26.4375 C-23.8225 26.4375 -22.8325 26.4375 -21.8125 26.4375 C-21.8125 17.8575 -21.8125 9.2775 -21.8125 0.4375 C-22.8025 0.4375 -23.7925 0.4375 -24.8125 0.4375 C-24.8125 -0.2225 -24.8125 -0.8825 -24.8125 -1.5625 C-21.91700497 -1.7579384 -19.02141002 -1.94411395 -16.125 -2.125 C-15.30837891 -2.18107422 -14.49175781 -2.23714844 -13.65039062 -2.29492188 C-3.38524135 -2.91831151 -3.38524135 -2.91831151 0 0 Z " fill="#F4FBFA" transform="translate(198.8125,113.5625)"/>
<path d="M0 0 C1.01725914 0.39740639 1.01725914 0.39740639 2.05506897 0.80284119 C4.19709736 1.64149926 6.33486012 2.49046338 8.47265625 3.33984375 C9.93397413 3.91410069 11.39556042 4.48767511 12.85742188 5.06054688 C16.41981724 6.45827715 19.97842806 7.8652582 23.53515625 9.27734375 C21.93444656 12.47876313 18.61263707 13.08735351 15.4296875 14.3515625 C14.71286301 14.63965286 13.99603851 14.92774323 13.25749207 15.2245636 C11.73653392 15.83253592 10.21404673 16.43669462 8.69018555 17.03735352 C6.36828139 17.95667753 4.05638673 18.89849127 1.74414062 19.84179688 C0.26488241 20.42979493 -1.21491935 21.01642773 -2.6953125 21.6015625 C-3.38304245 21.88480881 -4.0707724 22.16805511 -4.77934265 22.45988464 C-9.08533816 24.123876 -12.01938098 24.59835815 -16.46484375 23.27734375 C-19.16556223 21.82169203 -21.4551269 19.88904639 -23.83984375 17.96484375 C-24.48050781 17.47822266 -25.12117188 16.99160156 -25.78125 16.49023438 C-27.61328125 15.0390625 -27.61328125 15.0390625 -30.46484375 12.27734375 C-30.46484375 8.27734375 -30.46484375 8.27734375 -28.99609375 6.53125 C-26.84538108 4.74036811 -24.68518496 2.98150307 -22.46484375 1.27734375 C-21.78292969 0.75011719 -21.10101563 0.22289062 -20.3984375 -0.3203125 C-13.39217769 -5.24251851 -7.63458223 -3.06026446 0 0 Z " fill="#05465C" transform="translate(56.46484375,56.72265625)"/>
<path d="M0 0 C2.56278699 -0.05420701 5.12441483 -0.09377007 7.6875 -0.125 C8.40873047 -0.14175781 9.12996094 -0.15851563 9.87304688 -0.17578125 C14.0353174 -0.21379285 17.29963611 0.02740526 21 2 C23.00931679 4.55731227 23.01670107 5.79541189 22.75 9.0625 C22 12 22 12 20 15 C20.66 15.515625 21.32 16.03125 22 16.5625 C24 19 24 19 24.5 22.5 C24 26 24 26 22.1875 28.375 C19.12634357 30.64900192 16.69713055 31.12554233 12.98828125 31.09765625 C11.85229492 31.09282227 11.85229492 31.09282227 10.69335938 31.08789062 C9.90767578 31.07951172 9.12199219 31.07113281 8.3125 31.0625 C7.51521484 31.05798828 6.71792969 31.05347656 5.89648438 31.04882812 C3.93095743 31.0370585 1.96546915 31.01912348 0 31 C0 30.34 0 29.68 0 29 C1.32 29 2.64 29 4 29 C4 20.09 4 11.18 4 2 C2.68 2 1.36 2 0 2 C0 1.34 0 0.68 0 0 Z " fill="#2F525C" transform="translate(24,112)"/>
<path d="M0 0 C2.97 0 5.94 0 9 0 C10.13277268 2.18376766 11.25622789 4.37157128 12.375 6.5625 C12.69210938 7.17158203 13.00921875 7.78066406 13.3359375 8.40820312 C15.43311374 12.53701886 16.85603936 16.51082113 18 21 C18.66 21 19.32 21 20 21 C20.37125 19.7625 20.7425 18.525 21.125 17.25 C23.12333111 11.19708401 26.05301842 5.63645991 29 0 C31.64 0 34.28 0 37 0 C37 0.99 37 1.98 37 3 C36.01 3 35.02 3 34 3 C34 11.25 34 19.5 34 28 C34.99 28 35.98 28 37 28 C37 28.99 37 29.98 37 31 C33.04 31 29.08 31 25 31 C25 30.01 25 29.02 25 28 C26.32 28 27.64 28 29 28 C29 22.06 29 16.12 29 10 C28.34 10 27.68 10 27 10 C26.608125 11.2375 26.21625 12.475 25.8125 13.75 C23.86118823 19.63207922 21.43753821 25.30598782 19 31 C18.34 31 17.68 31 17 31 C14.03 24.4 11.06 17.8 8 11 C7.67 16.61 7.34 22.22 7 28 C7.99 28 8.98 28 10 28 C10 28.99 10 29.98 10 31 C6.7 31 3.4 31 0 31 C0 30.01 0 29.02 0 28 C1.32 28 2.64 28 4 28 C4 19.75 4 11.5 4 3 C2.68 3 1.36 3 0 3 C0 2.01 0 1.02 0 0 Z " fill="#1B4A57" transform="translate(130,112)"/>
<path d="M0 0 C1.9375 0.4296875 1.9375 0.4296875 4.375 2.8046875 C7.48114516 8.02301137 7.64130464 12.40180779 6.9375 18.4296875 C5.85750402 21.50635897 4.63164935 23.55307313 1.9375 25.4296875 C-1.18783214 26.1686014 -3.94842696 26.23444795 -7.0625 25.4296875 C-10.44128924 22.63344813 -11.82755895 19.65757672 -12.2890625 15.28125 C-12.46493256 10.46880573 -12.15869238 7.32859643 -9.0625 3.4296875 C-8.670625 2.8315625 -8.27875 2.2334375 -7.875 1.6171875 C-5.35481414 -0.03396875 -2.96085639 -0.09796951 0 0 Z " fill="#F8F9FA" transform="translate(270.0625,114.5703125)"/>
<path d="M0 0 C6.90828535 1.94719053 13.5462303 4.28427711 20.1875 7 C21.03763672 7.34289063 21.88777344 7.68578125 22.76367188 8.0390625 C27.53434395 9.96943483 32.27737709 11.9550212 37 14 C33.72274693 16.18483538 30.348786 18.16082108 26.9375 20.125 C26.30005859 20.49753906 25.66261719 20.87007812 25.00585938 21.25390625 C20.2328869 24 20.2328869 24 18 24 C18 24.66 18 25.32 18 26 C9.30386352 22.57951965 3.74949323 10.05288888 0 2 C0 1.34 0 0.68 0 0 Z " fill="#0A4557" transform="translate(4,37)"/>
<path d="M0 0 C3.19048618 1.06349539 5.66086772 2.41836716 8.3125 4.4375 C11.99234456 7.17711996 15.66005426 8.55335142 20 10 C20 10.66 20 11.32 20 12 C16.32114063 13.5154578 12.64066356 15.02691318 8.95874023 16.53491211 C7.10121282 17.2966251 5.24492824 18.06136662 3.38867188 18.82617188 C-3.01702366 21.44747276 -9.39985654 23.91387051 -16 26 C-13.65344291 16.2785492 -7.39950968 6.76665688 0 0 Z " fill="#07455D" transform="translate(20,71)"/>
<path d="M0 0 C3.09399143 -0.4463133 5.01856397 -0.70767419 8 0 C10.70720037 2.38671008 12.47747942 5.26414551 14.375 8.3125 C14.89449219 9.09818359 15.41398437 9.88386719 15.94921875 10.69335938 C17.3243429 12.78091864 18.66444233 14.88704032 20 17 C20.66 17.99 21.32 18.98 22 20 C22.33 14.39 22.66 8.78 23 3 C22.01 3 21.02 3 20 3 C20 2.01 20 1.02 20 0 C22.97 0 25.94 0 29 0 C29 0.99 29 1.98 29 3 C28.01 3 27.02 3 26 3 C26 12.24 26 21.48 26 31 C25.01 31 24.02 31 23 31 C21.49780273 29.39526367 21.49780273 29.39526367 19.93359375 27.16796875 C19.36576172 26.36939453 18.79792969 25.57082031 18.21289062 24.74804688 C17.33407227 23.48057617 17.33407227 23.48057617 16.4375 22.1875 C15.55288086 20.93743164 15.55288086 20.93743164 14.65039062 19.66210938 C12.39393425 16.46610462 10.17020282 13.25530424 8 10 C7.67 15.94 7.34 21.88 7 28 C8.32 28 9.64 28 11 28 C11 28.99 11 29.98 11 31 C7.37 31 3.74 31 0 31 C0 30.01 0 29.02 0 28 C1.32 28 2.64 28 4 28 C3.67 19.75 3.34 11.5 3 3 C2.01 2.67 1.02 2.34 0 2 C0 1.34 0 0.68 0 0 Z " fill="#0F3A44" transform="translate(287,112)"/>
<path d="M0 0 C3.36087654 -0.73328215 4.79811697 -1.04432278 8 0 C11.54207101 3.64176506 14.22269022 7.77067465 17 12 C18.0142555 13.37985922 19.03359324 14.75603084 20.0625 16.125 C22 19 22 19 22 21 C22.66 21 23.32 21 24 21 C24 14.73 24 8.46 24 2 C22.68 1.67 21.36 1.34 20 1 C22.97 1 25.94 1 29 1 C28.01 1.33 27.02 1.66 26 2 C26 11.57 26 21.14 26 31 C25.01 31 24.02 31 23 31 C21.2382092 28.84703192 19.67542435 26.73520095 18.125 24.4375 C17.49271484 23.52387695 17.49271484 23.52387695 16.84765625 22.59179688 C16.03973154 21.42438273 15.23595674 20.25407606 14.43798828 19.07983398 C12.32798027 16.02802443 10.1565171 13.01912394 8 10 C7.67 15.94 7.34 21.88 7 28 C8.32 28.33 9.64 28.66 11 29 C11 29.66 11 30.32 11 31 C7.7 31 4.4 31 1 31 C1 30.01 1 29.02 1 28 C1.99 28 2.98 28 4 28 C4 19.75 4 11.5 4 3 C2.68 3 1.36 3 0 3 C0 2.01 0 1.02 0 0 Z " fill="#144351" transform="translate(53,112)"/>
<path d="M0 0 C6.94766247 5.78971873 6.94766247 5.78971873 7.66796875 10.7578125 C7.84900468 17.77511013 6.98621879 21.79675386 2.25 27.125 C-1.3479144 30.2731751 -4.9826575 30.15624973 -9.53515625 30.08984375 C-13.94896641 29.66169638 -16.12512094 27.56931007 -19 24.375 C-22.3431706 19.599042 -22.64336665 14.52742267 -21.75 8.875 C-17.25264112 0.01212665 -9.54976906 -3.90672371 0 0 Z M-15.75 6.875 C-17.51766555 12.17799665 -17.4510976 17.122256 -15.375 22.3125 C-13.85513982 24.91550841 -13.85513982 24.91550841 -11.75 26.875 C-8.64609594 27.5640789 -5.8554073 27.54962297 -2.75 26.875 C-0.04977938 25.0046637 1.15006513 22.94212608 2.25 19.875 C3.09046104 14.68215146 3.27653025 9.77232556 0.3125 5.25 C-2.22800654 1.95008182 -2.22800654 1.95008182 -6.5 1.5 C-11.10057901 1.54129784 -12.94033916 3.21392678 -15.75 6.875 Z " fill="#16414C" transform="translate(274.75,113.125)"/>
<path d="M0 0 C0 2.64 0 5.28 0 8 C-0.99 8 -1.98 8 -3 8 C-3 6.68 -3 5.36 -3 4 C-6.3 4 -9.6 4 -13 4 C-13 7.63 -13 11.26 -13 15 C-10.36 15 -7.72 15 -5 15 C-5 13.68 -5 12.36 -5 11 C-4.01 11 -3.02 11 -2 11 C-2 14.3 -2 17.6 -2 21 C-2.99 21 -3.98 21 -5 21 C-5 20.01 -5 19.02 -5 18 C-7.64 18 -10.28 18 -13 18 C-13 21.63 -13 25.26 -13 29 C-9.37 29 -5.74 29 -2 29 C-2 27.68 -2 26.36 -2 25 C-1.34 25 -0.68 25 0 25 C0 27.31 0 29.62 0 32 C-7.26 32 -14.52 32 -22 32 C-21.505 30.515 -21.505 30.515 -21 29 C-20.01 29 -19.02 29 -18 29 C-18 20.42 -18 11.84 -18 3 C-18.99 3 -19.98 3 -21 3 C-21 2.34 -21 1.68 -21 1 C-18.06255476 0.83231709 -15.12505096 0.66581142 -12.1875 0.5 C-11.35412109 0.45230469 -10.52074219 0.40460938 -9.66210938 0.35546875 C-8.85966797 0.31035156 -8.05722656 0.26523438 -7.23046875 0.21875 C-6.49207764 0.17685547 -5.75368652 0.13496094 -4.99291992 0.09179688 C-3.33009506 0.01520467 -1.6645879 0 0 0 Z " fill="#1A4655" transform="translate(195,111)"/>
<path d="M0 0 C3.96 0 7.92 0 12 0 C12 0.66 12 1.32 12 2 C11.01 2 10.02 2 9 2 C9.94983358 3.50539661 10.91011891 5.00420347 11.875 6.5 C12.67550781 7.75296875 12.67550781 7.75296875 13.4921875 9.03125 C14.23855469 10.00578125 14.23855469 10.00578125 15 11 C15.66 11 16.32 11 17 11 C18.32 8.69 19.64 6.38 21 4 C20.01 3.67 19.02 3.34 18 3 C18.33 2.01 18.66 1.02 19 0 C21.97 0 24.94 0 28 0 C28 0.99 28 1.98 28 3 C27.01 3.33 26.02 3.66 25 4 C19.15562132 11.51602411 16.88277095 18.55468822 17 28 C18.32 28.33 19.64 28.66 21 29 C21 29.66 21 30.32 21 31 C16.71 31 12.42 31 8 31 C8.33 30.01 8.66 29.02 9 28 C9.99 28 10.98 28 12 28 C12.11296216 18.75324018 10.12732252 12.07877012 4 5 C1.89685178 3.69282537 1.89685178 3.69282537 0 3 C0 2.01 0 1.02 0 0 Z " fill="#134554" transform="translate(85,112)"/>
<path d="M0 0 C3.63 0 7.26 0 11 0 C11 0.99 11 1.98 11 3 C10.01 3 9.02 3 8 3 C8 11.25 8 19.5 8 28 C11.3 28 14.6 28 18 28 C18 26.68 18 25.36 18 24 C18.99 24 19.98 24 21 24 C21 26.31 21 28.62 21 31 C13.74 31 6.48 31 -1 31 C-0.505 29.515 -0.505 29.515 0 28 C0.99 28 1.98 28 3 28 C3 19.75 3 11.5 3 3 C1.68 3 0.36 3 -1 3 C-0.67 2.01 -0.34 1.02 0 0 Z " fill="#30545F" transform="translate(229,112)"/>
<path d="M0 0 C3.63 0 7.26 0 11 0 C11 0.66 11 1.32 11 2 C10.01 2 9.02 2 8 2 C8 10.58 8 19.16 8 28 C11.3 28 14.6 28 18 28 C18 26.68 18 25.36 18 24 C18.99 24 19.98 24 21 24 C21 26.31 21 28.62 21 31 C13.74 31 6.48 31 -1 31 C-0.505 29.515 -0.505 29.515 0 28 C0.99 28 1.98 28 3 28 C3 19.75 3 11.5 3 3 C1.68 3 0.36 3 -1 3 C-0.67 2.01 -0.34 1.02 0 0 Z " fill="#254D5B" transform="translate(203,112)"/>
<path d="M0 0 C0.66 0 1.32 0 2 0 C3.83691257 3.78187881 4.15837626 5.94568308 3 10 C5.0624994 8.18777466 5.0624994 8.18777466 7 6 C7 5.01 7 4.02 7 3 C8.32 3.33 9.64 3.66 11 4 C11.33 5.98 11.66 7.96 12 10 C11.34 10 10.68 10 10 10 C10 14.62 10 19.24 10 24 C9.01 24 8.02 24 7 24 C6.67 24.99 6.34 25.98 6 27 C2.28944583 29.01430083 -0.82851735 29.19402245 -5 29 C-4.67 28.34 -4.34 27.68 -4 27 C-1.4375 26.375 -1.4375 26.375 1 26 C2.1845131 22.44646071 2.26641894 19.72986522 2 16 C0.72840348 14.14397385 0.72840348 14.14397385 -1 13 C-1.66 12.34 -2.32 11.68 -3 11 C-2.319375 10.484375 -1.63875 9.96875 -0.9375 9.4375 C1.42428622 7.02745496 1.42428622 7.02745496 0.75 3.25 C0.5025 2.1775 0.255 1.105 0 0 Z " fill="#F7F9F6" transform="translate(45,115)"/>
<path d="M0 0 C5.10880829 -0.79274611 5.10880829 -0.79274611 8 0 C10.53166875 2.71704199 12.28204023 5.72025861 14 9 C13.34 9 12.68 9 12 9 C11.67 10.32 11.34 11.64 11 13 C10.01 12.01 9.02 11.02 8 10 C7.67 15.94 7.34 21.88 7 28 C8.32 28 9.64 28 11 28 C11 28.99 11 29.98 11 31 C7.37 31 3.74 31 0 31 C0 30.01 0 29.02 0 28 C1.32 28 2.64 28 4 28 C3.67 19.75 3.34 11.5 3 3 C2.01 2.67 1.02 2.34 0 2 C0 1.34 0 0.68 0 0 Z " fill="#274E58" transform="translate(287,112)"/>
<path d="M0 0 C-0.165 0.639375 -0.33 1.27875 -0.5 1.9375 C-1.60306505 8.69377344 -1.74171278 14.01325956 2 20 C3.56033623 21.56033623 5.08947136 21.20707559 7.25 21.25 C11.33958111 21.22399312 13.64355434 20.44105139 17 18 C17.66 18 18.32 18 19 18 C18.0195412 20.58484592 17.06077857 21.94843031 14.9375 23.75 C10.8788549 25.47708302 7.35000599 25.5784161 3 25 C-1.16088642 23.24318129 -3.42889949 20.67300073 -6 17 C-6.96306898 14.11079306 -7.1955936 12.07752119 -7.25 9.0625 C-7.27578125 8.20785156 -7.3015625 7.35320312 -7.328125 6.47265625 C-6.65531262 1.4025344 -5.06466527 0 0 0 Z " fill="#144352" transform="translate(260,118)"/>
<path d="M0 0 C2.97 0 5.94 0 9 0 C11 4 11 4 10.6875 6.125 C10 8 10 8 9 10 C9.66 10.33 10.32 10.66 11 11 C10.01 11 9.02 11 8 11 C7.67 16.61 7.34 22.22 7 28 C7.99 28 8.98 28 10 28 C10 28.99 10 29.98 10 31 C6.7 31 3.4 31 0 31 C0 30.01 0 29.02 0 28 C1.32 28 2.64 28 4 28 C4 19.75 4 11.5 4 3 C2.68 3 1.36 3 0 3 C0 2.01 0 1.02 0 0 Z " fill="#366470" transform="translate(130,112)"/>
<path d="M0 0 C2.97 0 5.94 0 9 0 C8.01 0.33 7.02 0.66 6 1 C6 10.57 6 20.14 6 30 C5.01 30 4.02 30 3 30 C1.28274036 28.05075967 -0.16738643 26.19380793 -1.625 24.0625 C-2.23492798 23.1813855 -2.23492798 23.1813855 -2.85717773 22.2824707 C-6.00613201 17.49671284 -7.09827797 13.79840015 -7 8 C-3.02361267 10.8718353 -0.48469141 13.76682204 2 18 C2 18.66 2 19.32 2 20 C2.66 20 3.32 20 4 20 C4 13.73 4 7.46 4 1 C2.68 0.67 1.36 0.34 0 0 Z " fill="#0B3541" transform="translate(73,113)"/>
<path d="M0 0 C0 0.99 0 1.98 0 3 C0.99 3 1.98 3 3 3 C3 8.94 3 14.88 3 21 C-2.625 15.375 -2.625 15.375 -4.45703125 12.66796875 C-4.84697266 12.09755859 -5.23691406 11.52714844 -5.63867188 10.93945312 C-6.2197168 10.07223633 -6.2197168 10.07223633 -6.8125 9.1875 C-7.21919922 8.59001953 -7.62589844 7.99253906 -8.04492188 7.37695312 C-9.03479703 5.92125436 -10.01809735 4.46108826 -11 3 C-8.89427904 -1.21144191 -4.11694326 -0.07767817 0 0 Z " fill="#F6FAFB" transform="translate(307,112)"/>
<path d="M0 0 C10.80962209 -0.511138 10.80962209 -0.511138 16 3 C17.67542976 2.71395102 19.34385343 2.38218767 21 2 C22.32 2.66 23.64 3.32 25 4 C25 6.97 25 9.94 25 13 C24.34 12.67 23.68 12.34 23 12 C23 11.01 23 10.02 23 9 C20.24331998 12.95523655 19.4682121 16.22423661 19 21 C18.34 21 17.68 21 17 21 C17.33 22.32 17.66 23.64 18 25 C17.01 24.67 16.02 24.34 15 24 C15.06960938 23.07058594 15.13921875 22.14117187 15.2109375 21.18359375 C15.79129576 12.9863451 15.79129576 12.9863451 12.5625 5.75 C8.9697167 2.32953244 4.81470851 1.52426826 0 1 C0 0.67 0 0.34 0 0 Z " fill="#E2EDEF" transform="translate(266,111)"/>
<path d="M0 0 C0.33 0.66 0.66 1.32 1 2 C1.99 2 2.98 2 4 2 C4 9.92 4 17.84 4 26 C3.67 25.01 3.34 24.02 3 23 C2.67 24.32 2.34 25.64 2 27 C3.98 27 5.96 27 8 27 C8 27.66 8 28.32 8 29 C4.04 29 0.08 29 -4 29 C-4 28.01 -4 27.02 -4 26 C-2.68 26 -1.36 26 0 26 C0 19.4 0 12.8 0 6 C-0.66 5.67 -1.32 5.34 -2 5 C-1.34 3.35 -0.68 1.7 0 0 Z " fill="#073C51" transform="translate(159,114)"/>
<path d="M0 0 C2.61101169 3.26376462 4.97509476 6.34843975 7.25 9.8125 C7.77078125 10.60269531 8.2915625 11.39289063 8.828125 12.20703125 C9.21484375 12.79871094 9.6015625 13.39039063 10 14 C9.01 14 8.02 14 7 14 C7 15.65 7 17.3 7 19 C4.69 19.33 2.38 19.66 0 20 C0 13.4 0 6.8 0 0 Z " fill="#F3FAFB" transform="translate(294,120)"/>
<path d="M0 0 C4.95 0 9.9 0 15 0 C15.33 0.66 15.66 1.32 16 2 C13.36 2 10.72 2 8 2 C8 2.68707031 8 3.37414062 8 4.08203125 C8 11.72135417 8 19.36067708 8 27 C6.68 26.67 5.36 26.34 4 26 C4 17.75 4 9.5 4 1 C2.68 0.67 1.36 0.34 0 0 Z " fill="#0A3848" transform="translate(24,113)"/>
<path d="M0 0 C6 0 6 0 8.375 1.125 C10 3 10 3 10.4375 6 C10 9 10 9 8.9375 10.875 C5.99772876 12.58196395 3.32129197 12.18799766 0 12 C0 8.04 0 4.08 0 0 Z " fill="#EEF7F5" transform="translate(33,128)"/>
<path d="M0 0 C1 3 1 3 0 6 C0.99 6.33 1.98 6.66 3 7 C2.34 9.31 1.68 11.62 1 14 C-2 13 -2 13 -4 11 C-4.1953125 8.8359375 -4.1953125 8.8359375 -4.125 6.375 C-4.10695312 5.55773437 -4.08890625 4.74046875 -4.0703125 3.8984375 C-4.04710937 3.27195312 -4.02390625 2.64546875 -4 2 C-2.68 1.34 -1.36 0.68 0 0 Z M-13 10 C-11.5199159 10.11362262 -10.04089926 10.24122908 -8.5625 10.375 C-7.73878906 10.44460937 -6.91507813 10.51421875 -6.06640625 10.5859375 C-5.04353516 10.79089844 -5.04353516 10.79089844 -4 11 C-3.67 11.66 -3.34 12.32 -3 13 C-3.66 13 -4.32 13 -5 13 C-5.33 14.32 -5.66 15.64 -6 17 C-7.65 17 -9.3 17 -11 17 C-11.66 15.68 -12.32 14.36 -13 13 C-13.33 13.66 -13.66 14.32 -14 15 C-13.67 13.35 -13.34 11.7 -13 10 Z " fill="#FAFBFB" transform="translate(197,122)"/>
<path d="M0 0 C0.99 0 1.98 0 3 0 C3 0.66 3 1.32 3 2 C3.66 2 4.32 2 5 2 C6.2890625 3.75 6.2890625 3.75 7.625 6 C8.07101563 6.7425 8.51703125 7.485 8.9765625 8.25 C9.31429687 8.8275 9.65203125 9.405 10 10 C10.66 9.67 11.32 9.34 12 9 C12.20970559 4.85906302 12.20970559 4.85906302 11 1 C12.32 1 13.64 1 15 1 C15 7.27 15 13.54 15 20 C14.34 20 13.68 20 13 20 C11.73828125 18.34765625 11.73828125 18.34765625 10.3125 16.0625 C7.55921644 11.76601801 4.54215169 7.80173162 1.3203125 3.84765625 C0 2 0 2 0 0 Z " fill="#CADEE3" transform="translate(62,113)"/>
<path d="M0 0 C1.32 0 2.64 0 4 0 C4 7.92 4 15.84 4 24 C2.68 24 1.36 24 0 24 C0 16.08 0 8.16 0 0 Z " fill="#0C3E51" transform="translate(232,116)"/>
<path d="M0 0 C3.375 -0.1875 3.375 -0.1875 7 0 C9 3 9 3 8.8125 6.0625 C8 9 8 9 5 11 C3.35 11 1.7 11 0 11 C0 7.37 0 3.74 0 0 Z " fill="#F2FBFD" transform="translate(33,115)"/>
<path d="M0 0 C0.47308594 0.36351563 0.94617188 0.72703125 1.43359375 1.1015625 C6.49092673 4.94631857 11.68086955 8.52778985 17 12 C16.67 13.65 16.34 15.3 16 17 C15.01 16.34 14.02 15.68 13 15 C13.66 15 14.32 15 15 15 C15 14.34 15 13.68 15 13 C14.26910156 12.88269531 13.53820312 12.76539062 12.78515625 12.64453125 C6.72401018 11.24188174 1.03290451 7.73427921 -3 3 C-2.01 2.01 -1.02 1.02 0 0 Z " fill="#E1F4F9" transform="translate(25,68)"/>
<path d="M0 0 C2.64 0 5.28 0 8 0 C8 0.99 8 1.98 8 3 C9.65 3 11.3 3 13 3 C13 3.99 13 4.98 13 6 C13.66 6.33 14.32 6.66 15 7 C14.67 9.31 14.34 11.62 14 14 C13.67 14 13.34 14 13 14 C13 11.69 13 9.38 13 7 C12.34 7 11.68 7 11 7 C11 8.32 11 9.64 11 11 C7.37 11 3.74 11 0 11 C0 7.37 0 3.74 0 0 Z M2 3 C1.67 4.65 1.34 6.3 1 8 C1.33 7.34 1.66 6.68 2 6 C2.66 7.32 3.32 8.64 4 10 C5.65 10 7.3 10 9 10 C9.12375 9.360625 9.2475 8.72125 9.375 8.0625 C9.58125 7.381875 9.7875 6.70125 10 6 C10.66 5.67 11.32 5.34 12 5 C11.278125 4.855625 10.55625 4.71125 9.8125 4.5625 C7.20833333 4.04166667 4.60416667 3.52083333 2 3 Z " fill="#E3F5FA" transform="translate(182,129)"/>
<path d="M0 0 C2.87427334 1.43713667 3.34236834 3.3670244 4.6875 6.25 C5.14511719 7.20390625 5.60273438 8.1578125 6.07421875 9.140625 C7.0888426 12.27439992 6.9373252 13.88694418 6 17 C5.34 17 4.68 17 4 17 C3.67 18.32 3.34 19.64 3 21 C3 20.01 3 19.02 3 18 C2.01 18 1.02 18 0 18 C0 12.06 0 6.12 0 0 Z " fill="#F2F6F8" transform="translate(137,122)"/>
<path d="M0 0 C2.475 0.495 2.475 0.495 5 1 C3.46148407 4.07703186 1.03856256 4.36431724 -2.1171875 5.6015625 C-2.73014679 5.8428891 -3.34310608 6.0842157 -3.97463989 6.33285522 C-5.27295916 6.84212426 -6.57263591 7.34794389 -7.87353516 7.85058594 C-9.86337412 8.62050167 -11.84786536 9.4030967 -13.83203125 10.1875 C-23.58782388 14 -23.58782388 14 -27 14 C-27 12 -27 12 -25 10 C-23.03826393 9.43547163 -21.05489574 8.94436463 -19.0625 8.5 C-15.39074929 7.67909826 -13.15866186 7.10577457 -10 5 C-9.67 3.68 -9.34 2.36 -9 1 C-6.03 1.66 -3.06 2.32 0 3 C0 2.01 0 1.02 0 0 Z " fill="#0E3240" transform="translate(75,65)"/>
<path d="M0 0 C2.56278699 -0.05420701 5.12441483 -0.09377007 7.6875 -0.125 C8.40873047 -0.14175781 9.12996094 -0.15851563 9.87304688 -0.17578125 C14.0353174 -0.21379285 17.29963611 0.02740526 21 2 C23.02723108 4.58011228 23.01408068 5.82399144 22.75 9.125 C22 12 22 12 20 14 C17.875 13.625 17.875 13.625 16 13 C16.20625 11.9275 16.4125 10.855 16.625 9.75 C17.17717308 6.24019554 17.17717308 6.24019554 16.5 3.8125 C15.01117095 1.61450549 15.01117095 1.61450549 11.5234375 1.390625 C10.141427 1.32418219 8.7583219 1.2780748 7.375 1.25 C6.31539062 1.20552734 6.31539062 1.20552734 5.234375 1.16015625 C3.49019953 1.08944643 1.74509173 1.04245965 0 1 C0 0.67 0 0.34 0 0 Z " fill="#103B49" transform="translate(24,112)"/>
<path d="M0 0 C2.05078125 0.03255208 4.1015625 0.06510417 6.15234375 0.09765625 C6.15234375 1.08765625 6.15234375 2.07765625 6.15234375 3.09765625 C5.16234375 3.09765625 4.17234375 3.09765625 3.15234375 3.09765625 C3.15234375 11.34765625 3.15234375 19.59765625 3.15234375 28.09765625 C4.14234375 28.42765625 5.13234375 28.75765625 6.15234375 29.09765625 C4.17234375 29.09765625 2.19234375 29.09765625 0.15234375 29.09765625 C-0.17765625 27.77765625 -0.50765625 26.45765625 -0.84765625 25.09765625 C-0.18765625 25.09765625 0.47234375 25.09765625 1.15234375 25.09765625 C1.48234375 18.16765625 1.81234375 11.23765625 2.15234375 4.09765625 C0.83234375 4.42765625 -0.48765625 4.75765625 -1.84765625 5.09765625 C-1.84765625 6.08765625 -1.84765625 7.07765625 -1.84765625 8.09765625 C-1.84765625 8.75765625 -1.84765625 9.41765625 -1.84765625 10.09765625 C-3.16765625 10.09765625 -4.48765625 10.09765625 -5.84765625 10.09765625 C-5.37215064 8.61730861 -4.89214409 7.13840604 -4.41015625 5.66015625 C-4.14332031 4.83644531 -3.87648437 4.01273437 -3.6015625 3.1640625 C-2.49530573 0.13188719 -2.49530573 0.13188719 0 0 Z " fill="#436773" transform="translate(160.84765625,111.90234375)"/>
<path d="M0 0 C0.57975586 0.36657715 1.15951172 0.7331543 1.75683594 1.11083984 C0.86480469 1.72572266 -0.02722656 2.34060547 -0.94628906 2.97412109 C-2.12860972 3.79048536 -3.31089977 4.60689395 -4.49316406 5.42333984 C-5.0796875 5.82746094 -5.66621094 6.23158203 -6.27050781 6.64794922 C-9.30659001 8.74591613 -12.31166581 10.86867905 -15.24316406 13.11083984 C-15.24316406 11.79083984 -15.24316406 10.47083984 -15.24316406 9.11083984 C-16.23316406 8.78083984 -17.22316406 8.45083984 -18.24316406 8.11083984 C-15.67018624 6.54910214 -13.08724944 5.01177242 -10.49316406 3.48583984 C-9.39875 2.81681641 -9.39875 2.81681641 -8.28222656 2.13427734 C-7.21875 1.51552734 -7.21875 1.51552734 -6.13378906 0.88427734 C-5.48442383 0.49675293 -4.83505859 0.10922852 -4.16601562 -0.29003906 C-2.24316406 -0.88916016 -2.24316406 -0.88916016 0 0 Z " fill="#DFF0F6" transform="translate(40.2431640625,52.88916015625)"/>
<path d="M0 0 C4.84476699 2.02467874 6.73926632 5.41054064 9 10 C9.8125 13.5 9.8125 13.5 10 16 C7.06585485 15.66169502 6.08823582 15.09510447 4.04296875 12.890625 C3.43066406 12.01921875 2.81835938 11.1478125 2.1875 10.25 C1.24970703 8.95835937 1.24970703 8.95835937 0.29296875 7.640625 C-1.22251382 4.54556089 -1.03733513 3.2221136 0 0 Z " fill="#154251" transform="translate(299,121)"/>
<path d="M0 0 C2.20192224 3.30288336 2.23959968 4.27462727 2.1953125 8.10546875 C2.18564453 9.57983398 2.18564453 9.57983398 2.17578125 11.08398438 C2.15902344 12.10814453 2.14226562 13.13230469 2.125 14.1875 C2.11597656 15.22326172 2.10695312 16.25902344 2.09765625 17.32617188 C2.0740786 19.88434685 2.0411703 22.44205748 2 25 C3.32 25 4.64 25 6 25 C6 25.66 6 26.32 6 27 C2.7 27 -0.6 27 -4 27 C-4 26.01 -4 25.02 -4 24 C-2.68 24 -1.36 24 0 24 C0 16.08 0 8.16 0 0 Z " fill="#1D3F4A" transform="translate(134,116)"/>
<path d="M0 0 C1.485 0.99 1.485 0.99 3 2 C3 2.66 3 3.32 3 4 C3.598125 4.061875 4.19625 4.12375 4.8125 4.1875 C7.93092447 5.34577195 8.56824742 7.06831615 10 10 C10.6875 12.3125 10.6875 12.3125 11 14 C13.78823655 15.0326802 14.8677274 15.04509293 17.75 14.0625 C18.4925 13.711875 19.235 13.36125 20 13 C18.71034824 14.37562854 17.37310707 15.70766393 16 17 C15.34 17 14.68 17 14 17 C14 17.66 14 18.32 14 19 C10.061434 17.48109114 8.30648739 15.13374291 5.875 11.75 C5.19179687 10.81671875 4.50859375 9.8834375 3.8046875 8.921875 C1.99590468 5.99336948 0.94636435 3.29764074 0 0 Z " fill="#113D4C" transform="translate(8,44)"/>
<path d="M0 0 C1.32 0 2.64 0 4 0 C4 8.91 4 17.82 4 27 C2.68 26.67 1.36 26.34 0 26 C0.16371094 25.48566406 0.32742187 24.97132813 0.49609375 24.44140625 C1.15737793 21.23751002 1.09343927 18.2067498 1.0625 14.9375 C1.05347656 13.70902344 1.04445313 12.48054688 1.03515625 11.21484375 C1.02355469 10.15394531 1.01195313 9.09304687 1 8 C1 7.01 1 6.02 1 5 C0.68911632 3.32900023 0.35919668 1.66128463 0 0 Z " fill="#BED6DA" transform="translate(24,114)"/>
<path d="M0 0 C0 1.98 0 3.96 0 6 C5.445 5.505 5.445 5.505 11 5 C11.33 3.68 11.66 2.36 12 1 C12.66 1 13.32 1 14 1 C14 3.31 14 5.62 14 8 C6.74 8 -0.52 8 -8 8 C-8 7.34 -8 6.68 -8 6 C-6.35 6 -4.7 6 -3 6 C-3 4.35 -3 2.7 -3 1 C-1 0 -1 0 0 0 Z " fill="#264752" transform="translate(181,135)"/>
<path d="M0 0 C3.48897679 0.64610681 6.06769549 2.01871317 9 4 C10.4783226 6.95664519 10.06032783 9.74229737 10 13 C8.02 13.99 8.02 13.99 6 15 C5.89042969 14.37351563 5.78085937 13.74703125 5.66796875 13.1015625 C5.43013672 11.87566406 5.43013672 11.87566406 5.1875 10.625 C4.96126953 9.40683594 4.96126953 9.40683594 4.73046875 8.1640625 C4.12455058 5.64179359 4.12455058 5.64179359 1 4 C0.3125 1.875 0.3125 1.875 0 0 Z " fill="#214F5A" transform="translate(38,125)"/>
<path d="M0 0 C0.99 0 1.98 0 3 0 C3 2.31 3 4.62 3 7 C-4.26 7 -11.52 7 -19 7 C-19 6.34 -19 5.68 -19 5 C-17.35 5 -15.7 5 -14 5 C-13.67 4.01 -13.34 3.02 -13 2 C-12.34 1.67 -11.68 1.34 -11 1 C-11 1.99 -11 2.98 -11 4 C-7.37 4.33 -3.74 4.66 0 5 C0 3.35 0 1.7 0 0 Z " fill="#315059" transform="translate(221,136)"/>
<path d="M0 0 C2.97 0 5.94 0 9 0 C9 0.99 9 1.98 9 3 C8.01 3.33 7.02 3.66 6 4 C4.3897775 6.28621047 4.3897775 6.28621047 2.9375 9 C0.20295567 13.89852217 0.20295567 13.89852217 -2 15 C-1.48964169 10.6109185 -0.47785723 7.66291938 2 4 C1.01 3.67 0.02 3.34 -1 3 C-0.67 2.01 -0.34 1.02 0 0 Z " fill="#243E45" transform="translate(104,112)"/>
<path d="M0 0 C0.66 0 1.32 0 2 0 C2 5.94 2 11.88 2 18 C0.68 18 -0.64 18 -2 18 C-1.33333333 15.33333333 -0.66666667 12.66666667 0 10 C-1.32 10.33 -2.64 10.66 -4 11 C-3.52269162 9.5410574 -3.04308958 8.08286504 -2.5625 6.625 C-2.29566406 5.81289062 -2.02882812 5.00078125 -1.75390625 4.1640625 C-1 2 -1 2 0 0 Z " fill="#D4E8ED" transform="translate(157,122)"/>
<path d="M0 0 C0.66 0 1.32 0 2 0 C2 7.26 2 14.52 2 22 C2.99 21.67 3.98 21.34 5 21 C5.33 21.33 5.66 21.66 6 22 C7.32 22 8.64 22 10 22 C10 22.99 10 23.98 10 25 C6.7 25 3.4 25 0 25 C0 16.75 0 8.5 0 0 Z " fill="#E7FBFC" transform="translate(237,115)"/>
<path d="M0 0 C0.33 0 0.66 0 1 0 C1.02505615 0.58491211 1.0501123 1.16982422 1.07592773 1.77246094 C1.19222962 4.43184471 1.31480067 7.09090403 1.4375 9.75 C1.47681641 10.67039062 1.51613281 11.59078125 1.55664062 12.5390625 C1.59853516 13.42851562 1.64042969 14.31796875 1.68359375 15.234375 C1.72025146 16.05131836 1.75690918 16.86826172 1.79467773 17.70996094 C1.99134275 19.9034423 2.40300594 21.88396413 3 24 C4.32 24.33 5.64 24.66 7 25 C7 25.66 7 26.32 7 27 C3.7 27 0.4 27 -3 27 C-3 26.01 -3 25.02 -3 24 C-2.01 24 -1.02 24 0 24 C0 16.08 0 8.16 0 0 Z " fill="#45636C" transform="translate(57,116)"/>
<path d="M0 0 C0.99 0 1.98 0 3 0 C3 2.31 3 4.62 3 7 C-4.26 7 -11.52 7 -19 7 C-19 6.34 -19 5.68 -19 5 C-12.73 5 -6.46 5 0 5 C0 3.35 0 1.7 0 0 Z " fill="#375157" transform="translate(247,136)"/>
<path d="M0 0 C3.9423131 3.81514171 5.17778878 5.6883411 5.375 11.1875 C5.35957363 17.04952014 3.84274644 19.67691025 0 24 C-1.32 23.67 -2.64 23.34 -4 23 C-3.01 23 -2.02 23 -1 23 C1.68086265 16.59319265 2.33041112 11.81012426 1 5 C0.814375 3.989375 0.62875 2.97875 0.4375 1.9375 C0.293125 1.298125 0.14875 0.65875 0 0 Z " fill="#DEF5F7" transform="translate(272,116)"/>
<path d="M0 0 C-1.7749763 1.18331753 -3.57947994 2.32688612 -5.4375 3.375 C-8.11841867 5.07509476 -10.05721545 6.48157558 -12 9 C-12.50299316 13.10777749 -12.32749345 14.50875983 -10 18 C-9.875 20.6875 -9.875 20.6875 -10 23 C-12 22 -12 22 -13.125 20 C-14.61779864 14.88183322 -14.92684928 10.03024127 -12.6875 5.125 C-11.8521875 4.073125 -11.8521875 4.073125 -11 3 C-10.608125 2.401875 -10.21625 1.80375 -9.8125 1.1875 C-6.74973564 -0.81913872 -3.58732113 -0.17642563 0 0 Z " fill="#E3F1F5" transform="translate(272,115)"/>
<path d="M0 0 C6 3 6 3 8 6 C8.99 5.67 9.98 5.34 11 5 C10.44271087 8.34373475 9.64826111 11.03312999 8 14 C7.34 14 6.68 14 6 14 C4.02 9.38 2.04 4.76 0 0 Z " fill="#E8F3F9" transform="translate(142,119)"/>
<path d="M0 0 C-4.0979661 1.70284849 -8.20425777 3.38461211 -12.3125 5.0625 C-14.06336914 5.79049805 -14.06336914 5.79049805 -15.84960938 6.53320312 C-16.96787109 6.98759766 -18.08613281 7.44199219 -19.23828125 7.91015625 C-20.26993408 8.33433838 -21.30158691 8.75852051 -22.36450195 9.19555664 C-25 10 -25 10 -28 9 C-28.33 8.34 -28.66 7.68 -29 7 C-27.6696875 7.0309375 -27.6696875 7.0309375 -26.3125 7.0625 C-23.30731508 7.0057984 -20.84803233 6.94934411 -18 6 C-17.731875 5.34 -17.46375 4.68 -17.1875 4 C-16.795625 3.34 -16.40375 2.68 -16 2 C-14.01987707 1.67538968 -12.03255638 1.3637722 -10.03125 1.21875 C-7.81418869 1.07240132 -7.81418869 1.07240132 -5.1875 -0.125 C-3 -1 -3 -1 0 0 Z " fill="#11394A" transform="translate(40,83)"/>
<path d="M0 0 C2.79297711 0.44099639 5.31340243 1.10446748 8 2 C8 10.58 8 19.16 8 28 C7.34 28 6.68 28 6 28 C5.86394518 19.60995285 6.24524649 11.35619957 7 3 C6.01 3 5.02 3 4 3 C3.34 3.66 2.68 4.32 2 5 C1.67 4.34 1.34 3.68 1 3 C0.01 3 -0.98 3 -2 3 C-1 1 -1 1 0 0 Z " fill="#E1F9FE" transform="translate(169,112)"/>
<path d="M0 0 C3.96 0 7.92 0 12 0 C12 0.66 12 1.32 12 2 C11.01 2 10.02 2 9 2 C9.66 3.32 10.32 4.64 11 6 C9.35 6.66 7.7 7.32 6 8 C5.566875 7.360625 5.13375 6.72125 4.6875 6.0625 C3.08760823 3.73253997 3.08760823 3.73253997 0 3 C0 2.01 0 1.02 0 0 Z " fill="#214F5D" transform="translate(85,112)"/>
<path d="M0 0 C5.69104271 0.28455214 10.82236687 2.80001754 16 5 C15.67 5.66 15.34 6.32 15 7 C13.02 7 11.04 7 9 7 C9 6.34 9 5.68 9 5 C7.6696875 5.37125 7.6696875 5.37125 6.3125 5.75 C3 6 3 6 0.125 4.0625 C-0.57625 3.381875 -1.2775 2.70125 -2 2 C-1.34 1.34 -0.68 0.68 0 0 Z " fill="#0F4156" transform="translate(56,58)"/>
<path d="M0 0 C0.625 1.8125 0.625 1.8125 1 4 C0.01 5.485 0.01 5.485 -1 7 C-3.01538086 7.37231445 -3.01538086 7.37231445 -5.46484375 7.36328125 C-6.34720703 7.36263672 -7.22957031 7.36199219 -8.13867188 7.36132812 C-9.5240918 7.3371582 -9.5240918 7.3371582 -10.9375 7.3125 C-11.85724609 7.31572266 -12.77699219 7.31894531 -13.72460938 7.32226562 C-20.59933901 7.26710733 -20.59933901 7.26710733 -24 5 C-23.34 4.67 -22.68 4.34 -22 4 C-22 3.01 -22 2.02 -22 1 C-21.566875 1.474375 -21.13375 1.94875 -20.6875 2.4375 C-17.34773955 5.52987079 -13.52075385 5.26849516 -9.22265625 5.2265625 C-5.15854141 4.8122942 -2.79766545 2.79766545 0 0 Z " fill="#D0E6ED" transform="translate(279,137)"/>
<path d="M0 0 C0.99 0.66 1.98 1.32 3 2 C2.67 2.66 2.34 3.32 2 4 C1.92907158 6.2072923 1.91584975 8.41667452 1.9375 10.625 C1.94652344 11.81351563 1.95554688 13.00203125 1.96484375 14.2265625 C1.97644531 15.14179688 1.98804688 16.05703125 2 17 C1.01 17.33 0.02 17.66 -1 18 C-2.79792248 16.20207752 -2.71847865 13.75969828 -3.01171875 11.34375 C-2.99141933 7.2838664 -1.52351997 3.71842161 0 0 Z " fill="#E4F2F6" transform="translate(252,118)"/>
<path d="M0 0 C-0.66 4.62 -1.32 9.24 -2 14 C-2.66 13.01 -3.32 12.02 -4 11 C-4.33 11 -4.66 11 -5 11 C-5.66 11.66 -6.32 12.32 -7 13 C-7.46431642 4.95184867 -7.46431642 4.95184867 -5.75 1.4375 C-4 0 -4 0 0 0 Z " fill="#0D3C45" transform="translate(260,118)"/>
<path d="M0 0 C2.97 0 5.94 0 9 0 C9 0.99 9 1.98 9 3 C8.01 3 7.02 3 6 3 C4.89210465 7.05308333 4.66268733 11.07111374 4.4375 15.25 C4.39431641 15.99507812 4.35113281 16.74015625 4.30664062 17.5078125 C4.20103275 19.338349 4.10005799 21.16915176 4 23 C2 21 2 21 1.86474609 19.12060547 C1.94329834 18.00516357 1.94329834 18.00516357 2.0234375 16.8671875 C2.075 16.06152344 2.1265625 15.25585938 2.1796875 14.42578125 C2.24414062 13.58402344 2.30859375 12.74226563 2.375 11.875 C2.43171875 11.02550781 2.4884375 10.17601563 2.546875 9.30078125 C2.68850977 7.1998655 2.84304326 5.09982666 3 3 C2.01 3 1.02 3 0 3 C0 2.01 0 1.02 0 0 Z " fill="#3A6167" transform="translate(307,112)"/>
<path d="M0 0 C0 2.64 0 5.28 0 8 C-0.99 8 -1.98 8 -3 8 C-3 6.68 -3 5.36 -3 4 C-6.3 4 -9.6 4 -13 4 C-13 3.67 -13 3.34 -13 3 C-15.64 2.67 -18.28 2.34 -21 2 C-21 1.67 -21 1.34 -21 1 C-18.06255476 0.83231709 -15.12505096 0.66581142 -12.1875 0.5 C-11.35412109 0.45230469 -10.52074219 0.40460938 -9.66210938 0.35546875 C-8.85966797 0.31035156 -8.05722656 0.26523438 -7.23046875 0.21875 C-6.49207764 0.17685547 -5.75368652 0.13496094 -4.99291992 0.09179688 C-3.33009506 0.01520467 -1.6645879 0 0 0 Z " fill="#456371" transform="translate(195,111)"/>
<path d="M0 0 C2.52259061 1.97420135 2.9929808 2.96745642 3.6875 6.1875 C3.790625 7.115625 3.89375 8.04375 4 9 C-0.455 10.485 -0.455 10.485 -5 12 C-2.25 3.375 -2.25 3.375 0 0 Z " fill="#1D4556" transform="translate(9,85)"/>
<path d="M0 0 C-1 2 -1 2 -3.4375 3.4375 C-6.2355972 4.89664045 -6.2355972 4.89664045 -8 8 C-11.31726155 7.42805835 -12.72635823 6.42999536 -15 4 C-12.87875034 3.13656176 -10.75286928 2.28449352 -8.625 1.4375 C-6.84996094 0.72400391 -6.84996094 0.72400391 -5.0390625 -0.00390625 C-2 -1 -2 -1 0 0 Z " fill="#EEF5FA" transform="translate(38,85)"/>
<path d="M0 0 C0.99 0.33 1.98 0.66 3 1 C3 1.66 3 2.32 3 3 C3.66 3 4.32 3 5 3 C5 5.64 5 8.28 5 11 C4.01 11 3.02 11 2 11 C-0.3125 8.3125 -0.3125 8.3125 -2 5 C-1.25 2.125 -1.25 2.125 0 0 Z " fill="#10424E" transform="translate(74,132)"/>
<path d="M0 0 C0.33 0 0.66 0 1 0 C1.33 5.61 1.66 11.22 2 17 C3.98 17 5.96 17 8 17 C8 17.66 8 18.32 8 19 C4.04 19 0.08 19 -4 19 C-4 18.01 -4 17.02 -4 16 C-2.68 16 -1.36 16 0 16 C0 10.72 0 5.44 0 0 Z " fill="#284B53" transform="translate(159,124)"/>
<path d="M0 0 C0.33 0 0.66 0 1 0 C1.33 3.96 1.66 7.92 2 12 C2.66 11.01 3.32 10.02 4 9 C4 10.32 4 11.64 4 13 C5.65 13 7.3 13 9 13 C9 13.66 9 14.32 9 15 C4.71 15 0.42 15 -4 15 C-3.67 14.01 -3.34 13.02 -3 12 C-2.01 12 -1.02 12 0 12 C0 8.04 0 4.08 0 0 Z " fill="#35555F" transform="translate(97,128)"/>
<path d="M0 0 C1.65 1.65 3.3 3.3 5 5 C4.67 5.66 4.34 6.32 4 7 C3.34 7 2.68 7 2 7 C2.33 10.96 2.66 14.92 3 19 C2.01 19 1.02 19 0 19 C0 12.73 0 6.46 0 0 Z " fill="#EBF9FB" transform="translate(60,121)"/>
<path d="M0 0 C3.3 0.99 6.6 1.98 10 3 C9.67 3.99 9.34 4.98 9 6 C8.34 6 7.68 6 7 6 C7.33 7.65 7.66 9.3 8 11 C1.21774194 6.08870968 1.21774194 6.08870968 0 0 Z " fill="#1E4D5F" transform="translate(4,37)"/>
<path d="M0 0 C0.99 0 1.98 0 3 0 C3 3.3 3 6.6 3 10 C2.01 10 1.02 10 0 10 C0 9.01 0 8.02 0 7 C-2.64 7 -5.28 7 -8 7 C-8 6.01 -8 5.02 -8 4 C-5.36 4 -2.72 4 0 4 C0 2.68 0 1.36 0 0 Z " fill="#415D67" transform="translate(190,122)"/>
<path d="M0 0 C5.97897503 -0.74737188 9.32379721 1.6768102 14 5 C10.91190305 6.76462683 9.76687864 7 6 7 C5.34 5.35 4.68 3.7 4 2 C3.01 2.33 2.02 2.66 1 3 C0.67 2.01 0.34 1.02 0 0 Z " fill="#0E4254" transform="translate(20,74)"/>
<path d="M0 0 C3.71080883 4.42442592 6.84577733 9.17403931 10 14 C9.01 14 8.02 14 7 14 C6.67 12.68 6.34 11.36 6 10 C5.01 10.33 4.02 10.66 3 11 C2.67 10.01 2.34 9.02 2 8 C1.34 8 0.68 8 0 8 C0 5.36 0 2.72 0 0 Z " fill="#D6EBF0" transform="translate(294,120)"/>
<path d="M0 0 C0.33 0 0.66 0 1 0 C1.22531972 3.29073662 1.42735982 6.58249419 1.625 9.875 C1.68945312 10.81214844 1.75390625 11.74929687 1.8203125 12.71484375 C1.871875 13.61074219 1.9234375 14.50664062 1.9765625 15.4296875 C2.02893066 16.25710449 2.08129883 17.08452148 2.13525391 17.93701172 C2 20 2 20 0 22 C-1.58937556 20.41062444 -1.12981143 18.76100154 -1.1328125 16.5625 C-1.13410156 15.66789063 -1.13539063 14.77328125 -1.13671875 13.8515625 C-1.13091797 12.44003906 -1.13091797 12.44003906 -1.125 11 C-1.12886719 10.05898437 -1.13273438 9.11796875 -1.13671875 8.1484375 C-1.13542969 7.25382812 -1.13414062 6.35921875 -1.1328125 5.4375 C-1.13112061 4.19806641 -1.13112061 4.19806641 -1.12939453 2.93359375 C-1 1 -1 1 0 0 Z " fill="#0F3F52" transform="translate(208,117)"/>
<path d="M0 0 C0.66 0 1.32 0 2 0 C2.103125 0.639375 2.20625 1.27875 2.3125 1.9375 C2.539375 2.618125 2.76625 3.29875 3 4 C3.99 4.33 4.98 4.66 6 5 C6 5.66 6 6.32 6 7 C8.31 7.33 10.62 7.66 13 8 C13.66 9.65 14.32 11.3 15 13 C10.23735403 12.52112335 7.77358348 10.50511358 4.1875 7.4375 C3.21167969 6.61121094 2.23585938 5.78492187 1.23046875 4.93359375 C0.49441406 4.29550781 -0.24164062 3.65742187 -1 3 C-0.67 2.01 -0.34 1.02 0 0 Z " fill="#19414E" transform="translate(26,65)"/>
<path d="M0 0 C0.33 0.99 0.66 1.98 1 3 C1.66 3.33 2.32 3.66 3 4 C2.67 6.31 2.34 8.62 2 11 C1.67 11 1.34 11 1 11 C1 8.69 1 6.38 1 4 C0.34 4 -0.32 4 -1 4 C-1 5.32 -1 6.64 -1 8 C-4.63 8 -8.26 8 -12 8 C-12 7.34 -12 6.68 -12 6 C-11.34 6 -10.68 6 -10 6 C-10 5.01 -10 4.02 -10 3 C-9.34 3.33 -8.68 3.66 -8 4 C-8 4.99 -8 5.98 -8 7 C-6.35 7 -4.7 7 -3 7 C-2.690625 6.030625 -2.38125 5.06125 -2.0625 4.0625 C-1 1 -1 1 0 0 Z " fill="#DEEDF1" transform="translate(194,132)"/>
<path d="M0 0 C5.74301634 -0.2610462 8.30968888 0.87312592 13 4 C13 4.99 13 5.98 13 7 C8.27934033 5.45730076 3.58335908 3.92205381 -1 2 C-0.67 1.34 -0.34 0.68 0 0 Z " fill="#DBECF0" transform="translate(61,57)"/>
<path d="M0 0 C5.53846154 -0.36923077 5.53846154 -0.36923077 7.875 1.5 C8.24625 1.995 8.6175 2.49 9 3 C8.01 4.32 7.02 5.64 6 7 C3.5625 6.3125 3.5625 6.3125 1 5 C0.1875 2.375 0.1875 2.375 0 0 Z " fill="#03495F" transform="translate(11,43)"/>
<path d="M0 0 C4.875 4.625 4.875 4.625 6 8 C6.99 8.33 7.98 8.66 9 9 C5.37 9 1.74 9 -2 9 C-2 8.34 -2 7.68 -2 7 C-1.01 7 -0.02 7 1 7 C0.4740625 5.824375 0.4740625 5.824375 -0.0625 4.625 C-0.371875 3.75875 -0.68125 2.8925 -1 2 C-0.67 1.34 -0.34 0.68 0 0 Z " fill="#E1F0F3" transform="translate(304,135)"/>
<path d="M0 0 C0.66 0.33 1.32 0.66 2 1 C1.60167969 1.56847656 1.20335937 2.13695313 0.79296875 2.72265625 C-2.38703409 7.35725893 -4.98935534 11.7499834 -7 17 C-7.66 16.67 -8.32 16.34 -9 16 C-7.72015413 9.31636048 -4.3520996 5.13175381 0 0 Z " fill="#DDF1F4" transform="translate(12,78)"/>
<path d="M0 0 C1.65 0.33 3.3 0.66 5 1 C3.66783496 3.66433008 2.52848372 3.74447159 -0.25 4.6875 C-3.85250691 5.83662501 -6.33117789 6.3018401 -10 5 C-9.67 3.68 -9.34 2.36 -9 1 C-4.545 1.99 -4.545 1.99 0 3 C0 2.01 0 1.02 0 0 Z " fill="#0C3D4C" transform="translate(75,65)"/>
<path d="M0 0 C-0.54723683 3.37462715 -1.0549 5.08235 -3 8 C-3 7.01 -3 6.02 -3 5 C-3.33 6.32 -3.66 7.64 -4 9 C-5.32 9.33 -6.64 9.66 -8 10 C-7.57742724 8.5164999 -7.13643678 7.03823576 -6.6875 5.5625 C-6.32205078 4.32693359 -6.32205078 4.32693359 -5.94921875 3.06640625 C-5.63597656 2.38449219 -5.32273438 1.70257813 -5 1 C-2 0 -2 0 0 0 Z " fill="#FBF4FA" transform="translate(157,132)"/>
<path d="M0 0 C1.7074998 1.28062485 3.37373596 2.61767557 5 4 C5 4.66 5 5.32 5 6 C0.61538462 9 0.61538462 9 -2 9 C-2 6.36 -2 3.72 -2 1 C-1.34 0.67 -0.68 0.34 0 0 Z " fill="#F3F7F8" transform="translate(64,127)"/>
<path d="M0 0 C0.33 0 0.66 0 1 0 C1 3.63 1 7.26 1 11 C2.98 11 4.96 11 7 11 C7 11.66 7 12.32 7 13 C4.36 13 1.72 13 -1 13 C-1.33 13.66 -1.66 14.32 -2 15 C-2 11.7 -2 8.4 -2 5 C-1.67 5 -1.34 5 -1 5 C-0.67 3.35 -0.34 1.7 0 0 Z " fill="#1F4D5A" transform="translate(32,115)"/>
<path d="M0 0 C5.94 0 11.88 0 18 0 C18 0.33 18 0.66 18 1 C14.7 1 11.4 1 8 1 C8 2.98 8 4.96 8 7 C7.34 6.34 6.68 5.68 6 5 C5.34 5.66 4.68 6.32 4 7 C3.896875 6.21625 3.79375 5.4325 3.6875 4.625 C3.22404978 1.66954819 3.22404978 1.66954819 0 0 Z " fill="#093246" transform="translate(174,113)"/>
<path d="M0 0 C2.05078125 0.03255208 4.1015625 0.06510417 6.15234375 0.09765625 C6.15234375 0.75765625 6.15234375 1.41765625 6.15234375 2.09765625 C4.50234375 2.09765625 2.85234375 2.09765625 1.15234375 2.09765625 C1.15234375 2.75765625 1.15234375 3.41765625 1.15234375 4.09765625 C0.16234375 4.42765625 -0.82765625 4.75765625 -1.84765625 5.09765625 C-1.84765625 6.08765625 -1.84765625 7.07765625 -1.84765625 8.09765625 C-1.84765625 8.75765625 -1.84765625 9.41765625 -1.84765625 10.09765625 C-3.16765625 10.09765625 -4.48765625 10.09765625 -5.84765625 10.09765625 C-5.37215064 8.61730861 -4.89214409 7.13840604 -4.41015625 5.66015625 C-4.14332031 4.83644531 -3.87648437 4.01273437 -3.6015625 3.1640625 C-2.49530573 0.13188719 -2.49530573 0.13188719 0 0 Z " fill="#30586A" transform="translate(160.84765625,111.90234375)"/>
<path d="M0 0 C3.93673644 1.31224548 6.22719294 2.91910327 9 6 C8.34 7.32 7.68 8.64 7 10 C6.34 9.34 5.68 8.68 5 8 C5.66 8 6.32 8 7 8 C7 7.34 7 6.68 7 6 C6.2575 5.87625 5.515 5.7525 4.75 5.625 C2.19858515 5.04513299 0.2732427 4.26291261 -2 3 C-1.34 2.67 -0.68 2.34 0 2 C0 1.34 0 0.68 0 0 Z " fill="#CEE3E6" transform="translate(33,75)"/>
<path d="M0 0 C2.475 0.99 2.475 0.99 5 2 C5 2.33 5 2.66 5 3 C3.35 3 1.7 3 0 3 C0.66 3.66 1.32 4.32 2 5 C2 5.99 2 6.98 2 8 C-2.75 7.25 -2.75 7.25 -5 5 C-3.35 3.35 -1.7 1.7 0 0 Z " fill="#1F4E5D" transform="translate(20,71)"/>
<path d="M0 0 C2.15377564 2.62198774 3.40072174 4.64404172 4 8 C2.35 8.66 0.7 9.32 -1 10 C-1.95808288 6.4071892 -2.20508082 4.61524247 -1 1 C-0.67 0.67 -0.34 0.34 0 0 Z " fill="#1F4B5C" transform="translate(141,118)"/>
<path d="M0 0 C-3.28491373 2.18994248 -4.83095639 2.35277339 -8.6875 2.625 C-10.17830078 2.73714844 -10.17830078 2.73714844 -11.69921875 2.8515625 C-12.45847656 2.90054688 -13.21773437 2.94953125 -14 3 C-14 2.01 -14 1.02 -14 0 C-8.48727081 -1.71084699 -5.46809845 -2.4606443 0 0 Z " fill="#114F64" transform="translate(40,81)"/>
<path d="M0 0 C0.66 0 1.32 0 2 0 C2 4.95 2 9.9 2 15 C1.01 14.67 0.02 14.34 -1 14 C-0.67 9.38 -0.34 4.76 0 0 Z " fill="#EDFDFE" transform="translate(55,125)"/>
<path d="M0 0 C3.63 0 7.26 0 11 0 C11 0.66 11 1.32 11 2 C9.35 2 7.7 2 6 2 C6 2.66 6 3.32 6 4 C3.69 3.67 1.38 3.34 -1 3 C-0.67 2.01 -0.34 1.02 0 0 Z " fill="#375C69" transform="translate(229,112)"/>
<path d="M0 0 C2.56278699 -0.05420701 5.12441483 -0.09377007 7.6875 -0.125 C8.40873047 -0.14175781 9.12996094 -0.15851563 9.87304688 -0.17578125 C14.04876781 -0.21391569 17.2494138 0.1210081 21 2 C19.68 3.32 18.36 4.64 17 6 C16.82726562 5.35546875 16.65453125 4.7109375 16.4765625 4.046875 C15.07017372 1.59554118 15.07017372 1.59554118 11.5234375 1.390625 C10.141427 1.32418219 8.7583219 1.2780748 7.375 1.25 C6.31539062 1.20552734 6.31539062 1.20552734 5.234375 1.16015625 C3.49019953 1.08944643 1.74509173 1.04245965 0 1 C0 0.67 0 0.34 0 0 Z " fill="#466C78" transform="translate(24,112)"/>
<path d="M0 0 C0.99 0 1.98 0 3 0 C2.57405412 1.44096586 2.13373367 2.87768712 1.6875 4.3125 C1.44386719 5.11300781 1.20023438 5.91351563 0.94921875 6.73828125 C-0.04182023 9.09964573 -1.08074943 10.33879993 -3 12 C-2.49202991 7.6822542 -1.80317221 3.96697886 0 0 Z " fill="#1E3E48" transform="translate(154,122)"/>
<path d="M0 0 C1.98 0.66 3.96 1.32 6 2 C6 4.64 6 7.28 6 10 C3.03595495 7.19195732 0.55500981 4.81684226 -1 1 C-0.67 0.67 -0.34 0.34 0 0 Z " fill="#D8F1F3" transform="translate(304,123)"/>
<path d="M0 0 C2.475 0.495 2.475 0.495 5 1 C4.47731534 3.76276177 3.89130413 6.3260876 3 9 C2.34 9 1.68 9 1 9 C0.67 6.03 0.34 3.06 0 0 Z " fill="#12454E" transform="translate(146,134)"/>
<path d="M0 0 C0.99 0.495 0.99 0.495 2 1 C2.73075648 3.3140622 3.40138258 5.64828869 4 8 C3.01 8.495 3.01 8.495 2 9 C1.53348793 11.12576782 1.53348793 11.12576782 1.375 13.5625 C1.30023438 14.38878906 1.22546875 15.21507812 1.1484375 16.06640625 C1.09945312 16.70449219 1.05046875 17.34257812 1 18 C0.67 18 0.34 18 0 18 C0 12.06 0 6.12 0 0 Z " fill="#DEF9FB" transform="translate(137,122)"/>
<path d="M0 0 C2.29633824 3.44450737 2.54016485 5.93812283 3 10 C2.34 10 1.68 10 1 10 C-0.2890625 8.25 -0.2890625 8.25 -1.625 6 C-2.07101562 5.2575 -2.51703125 4.515 -2.9765625 3.75 C-3.31429688 3.1725 -3.65203125 2.595 -4 2 C-2.68 1.34 -1.36 0.68 0 0 Z " fill="#E3F7F8" transform="translate(300,112)"/>
<path d="M0 0 C9.58114035 -0.56359649 9.58114035 -0.56359649 14 3 C14 3.33 14 3.66 14 4 C12.04082341 3.9131252 10.08258129 3.80495488 8.125 3.6875 C6.48917969 3.60048828 6.48917969 3.60048828 4.8203125 3.51171875 C3.88960938 3.34285156 2.95890625 3.17398438 2 3 C1.34 2.01 0.68 1.02 0 0 Z " fill="#284C59" transform="translate(263,112)"/>
<path d="M0 0 C2.97 0 5.94 0 9 0 C9 0.99 9 1.98 9 3 C5.33694766 3.74926071 2.57644848 4.2380014 -1 3 C-0.67 2.01 -0.34 1.02 0 0 Z " fill="#405F68" transform="translate(104,112)"/>
<path d="M0 0 C5.06998019 0.65419099 9.41990777 2.8546409 14 5 C14 5.33 14 5.66 14 6 C12.5199159 5.88637738 11.04089926 5.75877092 9.5625 5.625 C8.73878906 5.55539063 7.91507813 5.48578125 7.06640625 5.4140625 C6.38449219 5.27742188 5.70257812 5.14078125 5 5 C4.67 4.34 4.34 3.68 4 3 C1.97536745 2.34786708 1.97536745 2.34786708 0 2 C0 1.34 0 0.68 0 0 Z " fill="#14404F" transform="translate(13,41)"/>
<path d="M0 0 C0.99 0.33 1.98 0.66 3 1 C3 3.31 3 5.62 3 8 C1.02 8.99 1.02 8.99 -1 10 C-2.02351015 7.2365226 -2.05546133 6.15898913 -1.0625 3.3125 C-0.711875 2.549375 -0.36125 1.78625 0 1 C0 0.67 0 0.34 0 0 Z " fill="#0A374A" transform="translate(45,130)"/>
<path d="M0 0 C1.2065625 0.0309375 1.2065625 0.0309375 2.4375 0.0625 C1.89523019 3.85838866 0.23622437 5.53461993 -2.5625 8.0625 C-2.94313221 5.7364143 -3.27519945 3.40194736 -3.5625 1.0625 C-2.5625 0.0625 -2.5625 0.0625 0 0 Z " fill="#F0F3F0" transform="translate(304.5625,111.9375)"/>
<path d="M0 0 C-0.66 1.65 -1.32 3.3 -2 5 C-4.3431213 4.74438677 -6.67843403 4.40729228 -9 4 C-9.33 3.34 -9.66 2.68 -10 2 C-8.71211992 1.46987262 -7.41953322 0.9511671 -6.125 0.4375 C-5.40570313 0.14746094 -4.68640625 -0.14257812 -3.9453125 -0.44140625 C-2 -1 -2 -1 0 0 Z " fill="#DDECF1" transform="translate(66,74)"/>
<path d="M0 0 C0.77137384 2.50696497 0.99167031 4.40815486 0.9375 7.0625 C0.74114932 10.19333909 0.74114932 10.19333909 3 13 C3.125 15.6875 3.125 15.6875 3 18 C1 17 1 17 -0.125 15 C-1.58642932 9.98938519 -1.65272766 4.95818298 0 0 Z " fill="#BED8E0" transform="translate(259,120)"/>
<path d="M0 0 C2.52588702 2.36292656 3.88820837 3.66462511 5 7 C3.68 8.32 2.36 9.64 1 11 C0.4254048 7.26513121 0 3.78706732 0 0 Z " fill="#214B5D" transform="translate(70,125)"/>
<path d="M0 0 C0.99 0 1.98 0 3 0 C3 0.66 3 1.32 3 2 C3.66 2 4.32 2 5 2 C5.99 4.31 6.98 6.62 8 9 C7.01 9 6.02 9 5 9 C3.61328125 7.5390625 3.61328125 7.5390625 2.3125 5.625 C1.65701172 4.68527344 1.65701172 4.68527344 0.98828125 3.7265625 C0 2 0 2 0 0 Z " fill="#D9EDEF" transform="translate(62,113)"/>
<path d="M0 0 C0.66 0 1.32 0 2 0 C2 0.66 2 1.32 2 2 C3.32 2.33 4.64 2.66 6 3 C4.68 3.99 3.36 4.98 2 6 C1.34 5.34 0.68 4.68 0 4 C-0.66 4.99 -1.32 5.98 -2 7 C-2.33 5.35 -2.66 3.7 -3 2 C-2.01 2 -1.02 2 0 2 C0 1.34 0 0.68 0 0 Z " fill="#EEF9FA" transform="translate(83,113)"/>
<path d="M0 0 C2.97 0 5.94 0 9 0 C9 1.65 9 3.3 9 5 C8.34 4.67 7.68 4.34 7 4 C7.33 3.34 7.66 2.68 8 2 C7.01 2.495 7.01 2.495 6 3 C4.00039988 3.039992 1.99952758 3.04346799 0 3 C0 2.01 0 1.02 0 0 Z " fill="#3A5E67" transform="translate(130,112)"/>
<path d="M0 0 C0.33 0 0.66 0 1 0 C1 3.3 1 6.6 1 10 C2.65 9.34 4.3 8.68 6 8 C5.67 9.65 5.34 11.3 5 13 C3.35 12.67 1.7 12.34 0 12 C0 8.04 0 4.08 0 0 Z " fill="#E8F4F9" transform="translate(102,128)"/>
<path d="M0 0 C1.32 0.33 2.64 0.66 4 1 C3.67 2.65 3.34 4.3 3 6 C2.01 5.67 1.02 5.34 0 5 C-0.33 5.66 -0.66 6.32 -1 7 C-1.66 7 -2.32 7 -3 7 C-1.125 2.25 -1.125 2.25 0 0 Z " fill="#1F4757" transform="translate(277,131)"/>
<path d="M0 0 C5.41538462 -0.36923077 5.41538462 -0.36923077 8.375 1.5 C8.91125 1.995 9.4475 2.49 10 3 C9.67 3.66 9.34 4.32 9 5 C7.68 4.67 6.36 4.34 5 4 C5 3.34 5 2.68 5 2 C3.35 2.33 1.7 2.66 0 3 C0 2.01 0 1.02 0 0 Z " fill="#D1E9EA" transform="translate(33,128)"/>
<path d="M0 0 C0.66 0 1.32 0 2 0 C4.22923777 4.32734391 3.92470553 7.28400182 3 12 C1.125 12.625 1.125 12.625 -1 13 C-1.66 12.34 -2.32 11.68 -3 11 C-2.319375 10.484375 -1.63875 9.96875 -0.9375 9.4375 C1.42428622 7.02745496 1.42428622 7.02745496 0.75 3.25 C0.5025 2.1775 0.255 1.105 0 0 Z " fill="#D3E6EC" transform="translate(45,115)"/>
<path d="M0 0 C2.79297711 0.44099639 5.31340243 1.10446748 8 2 C8 4.97 8 7.94 8 11 C7.67 11 7.34 11 7 11 C7 8.36 7 5.72 7 3 C6.01 3 5.02 3 4 3 C3.34 3.66 2.68 4.32 2 5 C1.67 4.34 1.34 3.68 1 3 C0.01 3 -0.98 3 -2 3 C-1 1 -1 1 0 0 Z " fill="#D3E3E9" transform="translate(169,112)"/>
<path d="M0 0 C1.32 0 2.64 0 4 0 C6 3 6 3 5.625 6.1875 C5.41875 7.115625 5.2125 8.04375 5 9 C3 6 3 6 3 4 C2.34 4 1.68 4 1 4 C0.67 2.68 0.34 1.36 0 0 Z " fill="#D2E4EB" transform="translate(36,115)"/>
<path d="M0 0 C3.63 0 7.26 0 11 0 C11 0.66 11 1.32 11 2 C7.67438135 3.76062164 6.40826005 4.10784228 2.6875 3.125 C1.800625 2.75375 0.91375 2.3825 0 2 C0 1.34 0 0.68 0 0 Z " fill="#2F535E" transform="translate(203,112)"/>
<path d="M0 0 C-0.33 0.99 -0.66 1.98 -1 3 C-5.07467725 4.48882438 -8.66541415 5.26270217 -13 5 C-8.94191935 2.2946129 -4.95110601 0 0 0 Z " fill="#D0E8EC" transform="translate(79,68)"/>
<path d="M0 0 C2.97 0.99 5.94 1.98 9 3 C8.67 3.66 8.34 4.32 8 5 C6.02 5 4.04 5 2 5 C2 4.34 2 3.68 2 3 C1.34 3 0.68 3 0 3 C0 2.01 0 1.02 0 0 Z " fill="#194856" transform="translate(63,60)"/>
<path d="M0 0 C1.32 0 2.64 0 4 0 C4.66 0.99 5.32 1.98 6 3 C6.99 3.33 7.98 3.66 9 4 C8.67 4.66 8.34 5.32 8 6 C4.62537285 5.45276317 2.91765 4.9451 0 3 C0 2.01 0 1.02 0 0 Z " fill="#E5EDF1" transform="translate(3,33)"/>
<path d="M0 0 C1.98 0.66 3.96 1.32 6 2 C6.33 1.34 6.66 0.68 7 0 C7.66 0 8.32 0 9 0 C9 1.32 9 2.64 9 4 C6.03 4 3.06 4 0 4 C0 2.68 0 1.36 0 0 Z " fill="#EDF9FD" transform="translate(212,136)"/>
<path d="M0 0 C0.33 0 0.66 0 1 0 C1 3.96 1 7.92 1 12 C-0.65 11.67 -2.3 11.34 -4 11 C-4 10.34 -4 9.68 -4 9 C-3.01 8.34 -2.02 7.68 -1 7 C-0.26393501 3.43230448 -0.26393501 3.43230448 0 0 Z " fill="#E8F8FA" transform="translate(96,128)"/>
<path d="M0 0 C2.4375 0.8125 2.4375 0.8125 5 2 C5.33 2.99 5.66 3.98 6 5 C3.69 5.33 1.38 5.66 -1 6 C-0.67 4.02 -0.34 2.04 0 0 Z " fill="#DAEAEC" transform="translate(34,120)"/>
<path d="M0 0 C3.08089673 2.77280706 4.68775452 5.06326356 6 9 C3.5625 8.625 3.5625 8.625 1 8 C-0.35439668 5.29120665 -0.06501451 2.99066732 0 0 Z " fill="#DCEBF0" transform="translate(89,117)"/>
<path d="M0 0 C3.96 0 7.92 0 12 0 C12 0.66 12 1.32 12 2 C7.74433453 3.16063604 4.3164922 2.76173392 0 2 C0 1.34 0 0.68 0 0 Z " fill="#385764" transform="translate(85,112)"/>
<path d="M0 0 C3.3 0.99 6.6 1.98 10 3 C7 5 7 5 3 5 C3 4.34 3 3.68 3 3 C1.35 2.67 -0.3 2.34 -2 2 C-1.34 1.34 -0.68 0.68 0 0 Z " fill="#204C60" transform="translate(27,46)"/>
<path d="M0 0 C-1.15173355 2.46800047 -2.04783565 4.04783565 -4 6 C-5.32 6 -6.64 6 -8 6 C-6.98565881 3.46414701 -6.34981128 2.21863205 -4 0.75 C-2 0 -2 0 0 0 Z " fill="#12343D" transform="translate(279,136)"/>
<path d="M0 0 C0.33 0 0.66 0 1 0 C1 2.97 1 5.94 1 9 C-1.475 8.01 -1.475 8.01 -4 7 C-3.34 5.68 -2.68 4.36 -2 3 C-1.34 3 -0.68 3 0 3 C0 2.01 0 1.02 0 0 Z " fill="#0E384D" transform="translate(281,124)"/>
<path d="M0 0 C2 4 2 4 2 6 C2.66 6 3.32 6 4 6 C4 6.66 4 7.32 4 8 C5.32 8.33 6.64 8.66 8 9 C5.36 9 2.72 9 0 9 C0 6.03 0 3.06 0 0 Z " fill="#D9F4FA" transform="translate(182,117)"/>
<path d="M0 0 C2.64 0 5.28 0 8 0 C7.01 0.495 7.01 0.495 6 1 C6 1.66 6 2.32 6 3 C6.66 3.33 7.32 3.66 8 4 C5.36 3.67 2.72 3.34 0 3 C0 2.01 0 1.02 0 0 Z " fill="#3D5D6B" transform="translate(53,112)"/>
<path d="M0 0 C3.40755272 1.92880342 6.74147635 3.8276509 10 6 C8.741875 6.04125 7.48375 6.0825 6.1875 6.125 C5.47980469 6.14820313 4.77210938 6.17140625 4.04296875 6.1953125 C2 6 2 6 -1 4 C-0.34 3.67 0.32 3.34 1 3 C0.67 2.01 0.34 1.02 0 0 Z " fill="#E1F2F6" transform="translate(256,138)"/>
<path d="M0 0 C0.66 0 1.32 0 2 0 C1.50769231 5.53846154 1.50769231 5.53846154 -1.0625 7.875 C-2.0215625 8.431875 -2.0215625 8.431875 -3 9 C-2.67 6.69 -2.34 4.38 -2 2 C-1.34 2 -0.68 2 0 2 C0 1.34 0 0.68 0 0 Z " fill="#184A62" transform="translate(280,121)"/>
<path d="M0 0 C0.99 0 1.98 0 3 0 C3.66 1.32 4.32 2.64 5 4 C4.01 4.99 3.02 5.98 2 7 C1.01 6.67 0.02 6.34 -1 6 C-0.67 4.02 -0.34 2.04 0 0 Z " fill="#0E4050" transform="translate(59,113)"/>
<path d="M0 0 C-1.62366466 3.24732932 -4.75387839 3.70155136 -8 5 C-8 4.34 -8 3.68 -8 3 C-8.66 2.67 -9.32 2.34 -10 2 C-8.71211992 1.46987262 -7.41953322 0.9511671 -6.125 0.4375 C-5.40570313 0.14746094 -4.68640625 -0.14257812 -3.9453125 -0.44140625 C-2 -1 -2 -1 0 0 Z " fill="#D2E5EA" transform="translate(38,85)"/>
<path d="M0 0 C0.66 0 1.32 0 2 0 C2.33 1.65 2.66 3.3 3 5 C1.35 5.33 -0.3 5.66 -2 6 C-1.125 1.125 -1.125 1.125 0 0 Z " fill="#0A3C52" transform="translate(45,75)"/>
<path d="M0 0 C-5.14285714 4.42857143 -5.14285714 4.42857143 -9 5 C-9.33 4.34 -9.66 3.68 -10 3 C-6.48812804 0.59185923 -4.27343092 -0.36629408 0 0 Z " fill="#1D4858" transform="translate(47,53)"/>
<path d="M0 0 C2.125 0.9375 2.125 0.9375 4 2 C-0.30769231 5.07692308 -0.30769231 5.07692308 -3.8125 4.6875 C-4.534375 4.460625 -5.25625 4.23375 -6 4 C-4.03617993 2.49440461 -2.21736634 1.10868317 0 0 Z " fill="#C9E4E9" transform="translate(38,52)"/>
<path d="M0 0 C0.66 0.99 1.32 1.98 2 3 C0.875 4.5 0.875 4.5 -1 6 C-4.1875 6.1875 -4.1875 6.1875 -7 6 C-6.67 5.34 -6.34 4.68 -6 4 C-3.4375 3.375 -3.4375 3.375 -1 3 C-0.67 2.01 -0.34 1.02 0 0 Z " fill="#D6EAEE" transform="translate(47,138)"/>
<path d="M0 0 C3.3 0 6.6 0 10 0 C10 1.32 10 2.64 10 4 C10.99 4 11.98 4 13 4 C13 4.66 13 5.32 13 6 C12.01 6.33 11.02 6.66 10 7 C9 6 9 6 8.9375 3.4375 C8.958125 2.633125 8.97875 1.82875 9 1 C6.03 1 3.06 1 0 1 C0 0.67 0 0.34 0 0 Z " fill="#DFF2F9" transform="translate(182,115)"/>
<path d="M0 0 C4.75 0.75 4.75 0.75 7 3 C7 3.99 7 4.98 7 6 C5.68 6 4.36 6 3 6 C2.814375 5.071875 2.814375 5.071875 2.625 4.125 C2.12802644 1.80879168 2.12802644 1.80879168 0 0 Z " fill="#DDEEF2" transform="translate(26,71)"/>
<path d="M0 0 C1.98 0 3.96 0 6 0 C6.33 0.99 6.66 1.98 7 3 C4.03 3 1.06 3 -2 3 C-1.34 2.67 -0.68 2.34 0 2 C0 1.34 0 0.68 0 0 Z " fill="#294758" transform="translate(265,140)"/>
<path d="M0 0 C0.99 0.99 1.98 1.98 3 3 C2.67 3.33 2.34 3.66 2 4 C1.76518307 6.18292774 1.58636677 8.37203174 1.4375 10.5625 C1.35371094 11.76003906 1.26992188 12.95757812 1.18359375 14.19140625 C1.12300781 15.11824219 1.06242187 16.04507813 1 17 C0.67 17 0.34 17 0 17 C0 11.39 0 5.78 0 0 Z " fill="#C6E4EB" transform="translate(60,121)"/>
<path d="M0 0 C1.79133978 -0.05391993 3.58313899 -0.09275571 5.375 -0.125 C6.37273437 -0.14820312 7.37046875 -0.17140625 8.3984375 -0.1953125 C11 0 11 0 13 2 C9.72814447 3.07310858 7.57052408 2.89263102 4.25 2.0625 C3.05117188 1.77052734 3.05117188 1.77052734 1.828125 1.47265625 C1.22484375 1.31667969 0.6215625 1.16070312 0 1 C0 0.67 0 0.34 0 0 Z " fill="#E5F4F7" transform="translate(266,111)"/>
<path d="M0 0 C0.99 0.99 1.98 1.98 3 3 C1.25 6.875 1.25 6.875 -1 8 C-1.04241723 5.66705225 -1.04092937 3.33297433 -1 1 C-0.67 0.67 -0.34 0.34 0 0 Z " fill="#F8FCFE" transform="translate(34,130)"/>
<path d="M0 0 C2.475 0.99 2.475 0.99 5 2 C5 4.97 5 7.94 5 11 C4.34 10.67 3.68 10.34 3 10 C3.33 8.35 3.66 6.7 4 5 C3.34 5 2.68 5 2 5 C2 4.34 2 3.68 2 3 C1.34 2.67 0.68 2.34 0 2 C0 1.34 0 0.68 0 0 Z " fill="#C5DBDF" transform="translate(286,113)"/>
<path d="M0 0 C2.79872437 2.52788007 4.45773019 4.20411134 5 8 C4.01 8 3.02 8 2 8 C0.23537317 4.91190305 0 3.76687864 0 0 Z " fill="#D1ECEF" transform="translate(272,116)"/>
<path d="M0 0 C0.94875 0.04125 1.8975 0.0825 2.875 0.125 C2.875 0.785 2.875 1.445 2.875 2.125 C-0.03100261 3.38164978 -1.92104584 4.125 -5.125 4.125 C-5.125 0.41389311 -3.38352144 0.13534086 0 0 Z " fill="#103949" transform="translate(53.125,74.875)"/>
<path d="M0 0 C1.32 1.65 2.64 3.3 4 5 C1.03 5 -1.94 5 -5 5 C-3.35 3.35 -1.7 1.7 0 0 Z " fill="#154A56" transform="translate(34,58)"/>
<path d="M0 0 C1.32 0.66 2.64 1.32 4 2 C4 2.66 4 3.32 4 4 C2.02 4.33 0.04 4.66 -2 5 C-1.34 3.35 -0.68 1.7 0 0 Z " fill="#EAF2FA" transform="translate(105,123)"/>
<path d="M0 0 C1.04449911 3.13349732 0.93423645 3.98968256 0 7 C-1.32 6.67 -2.64 6.34 -4 6 C-1.125 1.125 -1.125 1.125 0 0 Z " fill="#14444F" transform="translate(44,119)"/>
<path d="M0 0 C1.32 0 2.64 0 4 0 C4 1.65 4 3.3 4 5 C2.35 5 0.7 5 -1 5 C-0.67 3.35 -0.34 1.7 0 0 Z " fill="#F0F1EE" transform="translate(240,112)"/>
<path d="M0 0 C2.75 0.8125 2.75 0.8125 5 2 C4.67 2.99 4.34 3.98 4 5 C1.36 4.34 -1.28 3.68 -4 3 C-2.3125 1.375 -2.3125 1.375 0 0 Z " fill="#DCE4ED" transform="translate(47,50)"/>
<path d="M0 0 C2.32472205 2.85306797 3.7508258 5.54074837 5 9 C3.68 8.67 2.36 8.34 1 8 C0.67 5.36 0.34 2.72 0 0 Z " fill="#D3EBEE" transform="translate(4,39)"/>
<path d="M0 0 C4.75 0.875 4.75 0.875 7 2 C7 2.66 7 3.32 7 4 C5.35 4 3.7 4 2 4 C1.34 2.68 0.68 1.36 0 0 Z " fill="#1E3F47" transform="translate(258,138)"/>
<path d="M0 0 C1 4 1 4 1 8 C-0.32 8.33 -1.64 8.66 -3 9 C-2.01 6.03 -1.02 3.06 0 0 Z " fill="#DEE9EE" transform="translate(152,133)"/>
<path d="M0 0 C0.99 0.99 1.98 1.98 3 3 C1.35 4.32 -0.3 5.64 -2 7 C-2.66 6.67 -3.32 6.34 -4 6 C-2.68 4.02 -1.36 2.04 0 0 Z " fill="#E0EDF1" transform="translate(110,115)"/>
<path d="M0 0 C2.64 0 5.28 0 8 0 C8.66 1.32 9.32 2.64 10 4 C9.01 4.495 9.01 4.495 8 5 C7.34 4.67 6.68 4.34 6 4 C6 3.34 6 2.68 6 2 C3.03 1.505 3.03 1.505 0 1 C0 0.67 0 0.34 0 0 Z " fill="#426770" transform="translate(287,112)"/>
<path d="M0 0 C0.99 0.33 1.98 0.66 3 1 C-3.625 4.125 -3.625 4.125 -7 3 C-7.33 2.34 -7.66 1.68 -8 1 C-7.05125 1.020625 -6.1025 1.04125 -5.125 1.0625 C-2.09333717 1.22551826 -2.09333717 1.22551826 0 0 Z " fill="#0B2F40" transform="translate(19,89)"/>
<path d="M0 0 C1.98 0 3.96 0 6 0 C5.34 1.98 4.68 3.96 4 6 C2.68 5.34 1.36 4.68 0 4 C0 2.66666667 0 1.33333333 0 0 Z " fill="#1E5164" transform="translate(39,75)"/>
<path d="M0 0 C1.65 0 3.3 0 5 0 C5.66 1.65 6.32 3.3 7 5 C4.625 4.75 4.625 4.75 2 4 C0.6875 1.9375 0.6875 1.9375 0 0 Z " fill="#0B3B49" transform="translate(34,73)"/>
<path d="M0 0 C0 1.32 0 2.64 0 4 C-1.65 4 -3.3 4 -5 4 C-5 3.01 -5 2.02 -5 1 C-3 0 -3 0 0 0 Z " fill="#EFFAFB" transform="translate(25,62)"/>
<path d="M0 0 C1.98 0 3.96 0 6 0 C6 0.99 6 1.98 6 3 C3.69 2.67 1.38 2.34 -1 2 C-0.67 1.34 -0.34 0.68 0 0 Z " fill="#E9F4F7" transform="translate(61,57)"/>
<path d="M0 0 C0.99 0.33 1.98 0.66 3 1 C1.68 3.31 0.36 5.62 -1 8 C-1.68707555 5.50935112 -2 3.62113708 -2 1 C-1.34 0.67 -0.68 0.34 0 0 Z " fill="#DFF2F4" transform="translate(104,115)"/>
<path d="M0 0 C0 3 0 3 -1 5 C-2.98 5 -4.96 5 -7 5 C-2.25 1.125 -2.25 1.125 0 0 Z " fill="#D9E2EC" transform="translate(29,57)"/>
<path d="M0 0 C0.99 0 1.98 0 3 0 C3 0.66 3 1.32 3 2 C3.66 2 4.32 2 5 2 C5 3.65 5 5.3 5 7 C2.47411298 4.63707344 1.11179163 3.33537489 0 0 Z " fill="#204757" transform="translate(10,49)"/>
</svg>
