<?xml version="1.0" encoding="UTF-8"?>
<svg version="1.1" xmlns="http://www.w3.org/2000/svg" width="877" height="1024">
<path d="M0 0 C1.77093018 0.0146228 1.77093018 0.0146228 3.57763672 0.02954102 C22.08902323 0.40413692 37.23896794 6.45555479 52.1262207 17.34594727 C54.07417508 18.70784 56.08534253 19.71166157 58.25 20.6875 C62.88203895 22.93125141 67.0911245 25.59506483 71.38012695 28.43212891 C78.8090561 33.27389313 86.55346691 37.5887811 94.2734375 41.94482422 C100.25805991 45.34902887 105.95655915 48.9338415 111.55126953 52.94580078 C114.09860938 54.7245718 116.72325995 56.17214375 119.5 57.5625 C125.51305383 60.71084422 131.24938444 64.20907677 137 67.8125 C143.88729988 72.12564091 150.82068603 76.26922646 157.9362793 80.19262695 C163.3527782 83.19888375 168.58720343 86.45553255 173.81835938 89.77148438 C178.1505215 92.50736213 182.53510045 95.11207319 187 97.625 C192.0481105 100.47382082 196.9501854 103.47240218 201.8203125 106.61328125 C209.50000293 111.49940581 217.37493662 116.08196 225.22265625 120.69140625 C226.18776123 121.25907715 227.15286621 121.82674805 228.1472168 122.41162109 C230.04176515 123.52509068 231.93768788 124.63622624 233.83520508 125.74462891 C238.88731386 128.71321885 243.81211914 131.79084013 248.63452148 135.12109375 C250.81425031 136.51877455 253.03536718 137.64399176 255.375 138.75 C263.84141433 142.83814399 271.58880155 148.29831141 279.3125 153.625 C282.55117784 155.80797622 285.85745337 157.55379174 289.375 159.25 C294.46565669 161.72498007 299.1312363 164.58234279 303.84912109 167.70288086 C309.10414515 171.1419032 314.52691395 174.23534024 320 177.3125 C327.44837807 181.50593351 334.66380706 185.93056636 341.79394531 190.6418457 C346.83279096 193.94836267 352.0057544 196.8298266 357.3515625 199.6171875 C365.10367687 203.84726396 372.58678943 208.65201733 379.890625 213.61328125 C382.24670879 215.1500007 384.43745609 216.31316629 387 217.4375 C392.13822572 219.94414203 396.71761511 223.08518398 401.375 226.375 C402.44391479 227.12813477 402.44391479 227.12813477 403.53442383 227.89648438 C410.66496164 233.00403951 416.85377504 237.87447625 421.625 245.3125 C422.25559326 246.28098877 422.25559326 246.28098877 422.89892578 247.26904297 C425.85739454 251.91072063 428.55529786 256.66317647 431.0625 261.5625 C431.37179443 262.15788574 431.68108887 262.75327148 431.99975586 263.36669922 C438.18211085 275.94638922 439.26996716 287.61897475 439.2021637 301.35652161 C439.20749652 303.25375189 439.21456643 305.15097794 439.22321075 307.04819602 C439.24176753 312.23275036 439.23555711 317.41701769 439.22505772 322.6015836 C439.21804584 328.20432881 439.23407879 333.80701623 439.24705505 339.40974426 C439.26866764 350.37493944 439.26857506 361.34003072 439.26042951 372.30524019 C439.25412242 381.22070729 439.25527306 390.13614416 439.26170158 399.05161095 C439.26260324 400.32189618 439.26350489 401.59218142 439.26443387 402.90096014 C439.26628513 405.48178851 439.26814769 408.06261687 439.27002143 410.64344522 C439.28188668 427.96425954 439.2863068 445.28505635 439.2750864 462.60587025 C439.27464843 463.28252426 439.27421046 463.95917828 439.27375922 464.65633696 C439.27015277 470.15047343 439.2663178 475.64460974 439.26246829 481.13874604 C439.24762484 502.56300362 439.25639708 523.98713367 439.28442383 545.41137695 C439.31588856 569.50948622 439.33074201 593.60750183 439.32062382 617.70563906 C439.3196013 620.27773995 439.31860669 622.84984085 439.3176403 625.42194176 C439.31716391 626.68734625 439.31668752 627.95275073 439.3161967 629.25650081 C439.31403583 638.15537246 439.32381937 647.05418454 439.33841133 655.95304298 C439.3559606 666.80650646 439.35578008 677.65979673 439.33305968 688.51325349 C439.3219407 694.04643514 439.31870193 699.57931192 439.33736038 705.11248016 C439.35424891 710.18624324 439.34770115 715.25943751 439.32314359 720.3331643 C439.31828727 722.16009834 439.3217016 723.98707901 439.33463103 725.81397376 C439.486558 748.96762358 431.07886686 770.82519838 414.875 787.75 C405.33944557 796.57566406 394.68494075 804.12542182 382.95703125 809.74609375 C378.41243067 812.09712368 374.14012911 814.83718802 369.8125 817.5625 C363.37011835 821.59087578 356.90609124 825.52222236 350.25 829.1875 C344.78745719 832.19797105 339.53852255 835.41885954 334.32641602 838.85253906 C328.1954594 842.84431096 321.81880732 846.38924455 315.44897461 849.98217773 C309.6202612 853.28650778 303.95300878 856.75481464 298.35571289 860.43457031 C295.18052619 862.51136257 291.98044648 864.4181694 288.625 866.1875 C282.01192378 869.6862214 275.71873547 873.70372001 269.38647461 877.68066406 C264.52891357 880.72146187 259.63531895 883.63283171 254.60839844 886.38500977 C249.36443877 889.25825711 244.28287559 892.41957193 239.234375 895.62109375 C231.53435662 900.49621207 223.75236965 905.14888359 215.8125 909.625 C209.62494179 913.1135718 203.68966715 916.68010852 197.95703125 920.88671875 C195.35374331 922.6655575 192.66989319 924.10290521 189.875 925.5625 C183.82195219 928.73212196 178.04195739 932.25212988 172.25 935.875 C165.42057872 940.14496543 158.56034196 944.26851603 151.5390625 948.21484375 C145.32330933 951.75724595 139.25733748 955.55746258 133.15698242 959.29345703 C127.85701378 962.53181771 122.53814487 965.70472459 117.125 968.75 C112.09134955 971.5844246 107.25247291 974.63276557 102.42529297 977.80419922 C96.28355772 981.7889854 89.89653106 985.324315 83.51757812 988.91162109 C77.4166236 992.37184747 71.58554917 996.08705818 65.81030273 1000.0612793 C61.19865448 1003.19735368 56.42155406 1005.68773536 51.37890625 1008.078125 C48.82751973 1009.36677886 46.58385986 1010.79405603 44.25 1012.4375 C31.40008788 1021.29069443 17.83837623 1024.98340884 2.38208008 1024.88354492 C0.38812632 1024.87505588 -1.60586886 1024.9051754 -3.59960938 1024.93554688 C-16.17785173 1024.92932926 -27.28985144 1022.17909057 -38.25 1016 C-38.93900391 1015.63068359 -39.62800781 1015.26136719 -40.33789062 1014.88085938 C-44.36057122 1012.68494007 -48.06185644 1010.23648432 -51.75561523 1007.52905273 C-53.70115235 1006.16501064 -55.71109237 1005.1630004 -57.875 1004.1875 C-62.50703895 1001.94374859 -66.7161245 999.27993517 -71.00512695 996.44287109 C-78.4340561 991.60110687 -86.17846691 987.2862189 -93.8984375 982.93017578 C-99.88305991 979.52597113 -105.58155915 975.9411585 -111.17626953 971.92919922 C-113.72360938 970.1504282 -116.34825995 968.70285625 -119.125 967.3125 C-125.13805383 964.16415578 -130.87438444 960.66592323 -136.625 957.0625 C-142.88331197 953.14325997 -149.15837334 949.31609501 -155.625 945.75 C-161.63201831 942.43549668 -167.45832376 938.90062522 -173.25439453 935.23095703 C-177.94968576 932.2660499 -182.7005857 929.41781596 -187.5 926.625 C-194.03217396 922.82278033 -200.46472667 918.87903197 -206.875 914.875 C-213.69601894 910.61502819 -220.57733691 906.55162168 -227.62817383 902.68603516 C-232.94461309 899.73404269 -237.93424582 896.39219606 -242.94848633 892.95849609 C-247.54133206 889.85201804 -252.26361864 887.37947118 -257.2734375 884.99609375 C-264.09888025 881.49564175 -270.46916302 877.08702708 -276.77734375 872.73828125 C-280.7160057 870.02466424 -284.61652117 867.75030771 -288.9375 865.6875 C-293.60201242 863.42254855 -297.86590555 860.81632831 -302.125 857.875 C-309.37955903 852.87815927 -316.97429186 848.6160927 -324.671875 844.34350586 C-331.54829609 840.50163486 -338.16780325 836.39105789 -344.73168945 832.04150391 C-348.91394407 829.28732379 -353.10461777 826.93789839 -357.64453125 824.8125 C-365.23682481 820.89963421 -372.45489018 816.05785204 -379.515625 811.26171875 C-381.92129968 809.6926544 -384.20058234 808.48050543 -386.8125 807.3125 C-393.87983708 803.83188955 -400.10500134 799.24035651 -406.3125 794.4375 C-407.33730469 793.64859375 -408.36210937 792.8596875 -409.41796875 792.046875 C-424.18613427 779.63927491 -434.56021128 761.30104678 -438.3125 742.4375 C-438.49021921 739.69307513 -438.58727333 737.0539268 -438.57256222 734.31381989 C-438.57636789 733.53273078 -438.58017356 732.75164167 -438.58409455 731.9468832 C-438.59437516 729.33777097 -438.59051071 726.72887773 -438.58665466 724.11975098 C-438.59110899 722.2268393 -438.59642368 720.33392949 -438.60252339 718.4410224 C-438.61669063 713.24524866 -438.61836692 708.04953479 -438.61792648 702.85374451 C-438.61957583 697.24751552 -438.63264464 691.64131111 -438.64411926 686.03509521 C-438.6669601 673.77868752 -438.67488902 661.52229714 -438.67994571 649.26587105 C-438.68320405 641.6098365 -438.6897274 633.95380698 -438.6969471 626.29777527 C-438.71651249 605.09178049 -438.73299812 583.88579051 -438.73582363 562.67978668 C-438.73591769 562.00180259 -438.73601175 561.32381849 -438.73610866 560.62528942 C-438.73648713 557.87785932 -438.73685113 555.13042921 -438.73721164 552.38299911 C-438.73748336 550.31522857 -438.73776004 548.24745803 -438.73803711 546.1796875 C-438.73816914 545.15477889 -438.73816914 545.15477889 -438.73830384 544.10916506 C-438.74120771 522.65216323 -438.76329072 501.19525158 -438.79956055 479.73828125 C-438.8403342 455.6164133 -438.86396299 431.4946234 -438.86428314 407.37271261 C-438.86486729 394.60668752 -438.87333149 381.8407785 -438.90228081 369.07478333 C-438.92682175 358.20291366 -438.93405921 347.33120239 -438.91903328 336.4593125 C-438.91187539 330.91602941 -438.91267378 325.37305893 -438.93544388 319.8298111 C-438.95612344 314.74661259 -438.95334985 309.66396523 -438.93256903 304.5807721 C-438.92909126 302.75031727 -438.93391075 300.91982193 -438.94827347 299.08942014 C-439.08936297 279.85588481 -433.85866526 264.70911478 -423.3125 248.625 C-422.68952026 247.67258423 -422.68952026 247.67258423 -422.05395508 246.70092773 C-419.46690996 242.85521012 -416.70834609 239.62621583 -413.3125 236.4375 C-412.66410156 235.80328125 -412.01570313 235.1690625 -411.34765625 234.515625 C-402.77434058 226.57045325 -392.88821995 220.7319262 -382.6015625 215.28515625 C-378.01787529 212.71023457 -373.58161364 209.91266297 -369.125 207.125 C-362.78528704 203.1605796 -356.42440442 199.29582667 -349.875 195.6875 C-344.41252489 192.67690051 -339.16353334 189.45614757 -333.95141602 186.02246094 C-327.8204594 182.03068904 -321.44380732 178.48575545 -315.07397461 174.89282227 C-309.2452612 171.58849222 -303.57800878 168.12018536 -297.98071289 164.44042969 C-294.80552619 162.36363743 -291.60544648 160.4568306 -288.25 158.6875 C-281.63692378 155.1887786 -275.34373547 151.17127999 -269.01147461 147.19433594 C-264.15391357 144.15353813 -259.26031895 141.24216829 -254.23339844 138.48999023 C-248.98943877 135.61674289 -243.90787559 132.45542807 -238.859375 129.25390625 C-230.29139943 123.82885112 -221.61051086 118.67501069 -212.75854492 113.72412109 C-207.80623185 110.93686565 -203.05023318 107.98005164 -198.34741211 104.79052734 C-195.66242092 103.00525786 -192.88395944 101.4340372 -190.0625 99.875 C-183.90709562 96.42780089 -177.91883874 92.73975084 -171.9375 89 C-165.07422847 84.71313842 -158.16075603 80.594403 -151.07446289 76.6887207 C-145.53341158 73.61476495 -140.17879263 70.27864251 -134.82568359 66.89038086 C-130.80648082 64.35180568 -126.74884177 61.96106718 -122.56640625 59.69921875 C-118.09092925 57.1938824 -113.76277527 54.43984129 -109.40576172 51.7355957 C-108.71498535 51.30722412 -108.02420898 50.87885254 -107.3125 50.4375 C-106.3755127 49.85637451 -105.43852539 49.27524902 -104.47314453 48.67651367 C-95.46782456 43.11096191 -86.36849301 37.71467673 -77.2421875 32.34960938 C-70.96509979 28.64598366 -64.76225333 24.86376686 -58.65136719 20.89111328 C-55.9339098 19.202205 -53.13982153 17.82711224 -50.25390625 16.45703125 C-48.07693955 15.31379522 -46.13682316 13.9755228 -44.125 12.5625 C-30.578936 3.38463502 -16.26121924 -0.15141456 0 0 Z " fill="#9A5196" transform="translate(438.3125,-0.4375)"/>
<path d="M0 0 C3.16837802 1.04800003 6.25715713 1.68955645 9.53491211 2.30712891 C17.26678055 3.92601742 24.42402368 6.51410281 31.76538086 9.39306641 C33.60712891 10.09689453 33.60712891 10.09689453 35.48608398 10.81494141 C41.9883502 13.32300786 48.38034865 15.98469797 54.70092773 18.92041016 C56.69021878 19.83904743 58.70386047 20.70470731 60.72241211 21.55712891 C80.69285261 30.25205876 99.1750128 42.35778936 116.07788086 56.01806641 C116.9944043 56.74251953 117.91092773 57.46697266 118.85522461 58.21337891 C133.61135286 70.02674987 148.0994883 83.36029656 160.07788086 98.01806641 C161.26897461 99.46826172 161.26897461 99.46826172 162.48413086 100.94775391 C168.68722286 108.62014867 174.33902768 116.6064882 179.83813477 124.79663086 C180.36197754 125.57611084 180.88582031 126.35559082 181.42553711 127.15869141 C182.12175171 128.20331543 182.12175171 128.20331543 182.83203125 129.26904297 C184.09830632 131.14895152 184.09830632 131.14895152 186.07788086 133.01806641 C186.8497876 132.53337891 187.62169434 132.04869141 188.41699219 131.54931641 C191.28185894 129.7548655 194.15033622 127.96649685 197.02148438 126.18212891 C198.26354792 125.40849612 199.50412191 124.63246654 200.74316406 123.85400391 C202.52405138 122.73568941 204.31011139 121.62609387 206.09741211 120.51806641 C207.17095947 119.84775391 208.24450684 119.17744141 209.35058594 118.48681641 C212.07788086 117.01806641 212.07788086 117.01806641 215.07788086 117.01806641 C215.07788086 116.35806641 215.07788086 115.69806641 215.07788086 115.01806641 C215.93833008 114.57720703 215.93833008 114.57720703 216.81616211 114.12744141 C224.09208167 110.28522592 231.00423705 105.97559688 237.91113281 101.50927734 C242.92815622 98.2886805 248.04199441 95.37248582 253.29223633 92.54980469 C257.91894236 90.00572461 262.39711083 87.22644252 266.89038086 84.45556641 C274.74853427 79.64000463 282.63603777 74.88188319 290.57788086 70.20556641 C291.95689575 69.39345703 291.95689575 69.39345703 293.36376953 68.56494141 C294.25684814 68.03900391 295.14992676 67.51306641 296.07006836 66.97119141 C302.76451646 63.02854164 309.42205573 59.02543123 316.07788086 55.01806641 C326.74938747 48.59546552 337.43235104 42.19212119 348.14038086 35.83056641 C349.0866333 35.26563477 350.03288574 34.70070313 351.0078125 34.11865234 C351.88816162 33.5969043 352.76851074 33.07515625 353.67553711 32.53759766 C354.45421143 32.07458252 355.23288574 31.61156738 356.03515625 31.13452148 C358.07788086 30.01806641 358.07788086 30.01806641 361.07788086 29.01806641 C362.00599357 30.90832263 362.91955357 32.80572343 363.82788086 34.70556641 C364.59358398 36.28917969 364.59358398 36.28917969 365.37475586 37.90478516 C370.65071309 50.20317475 371.65770036 60.73597767 371.59254456 73.93708801 C371.59787738 75.83431829 371.60494729 77.73154434 371.61359161 79.62876242 C371.63214839 84.81331676 371.62593797 89.99758409 371.61543858 95.18215001 C371.6084267 100.78489521 371.62445965 106.38758264 371.63743591 111.99031067 C371.6590485 122.95550585 371.65895592 133.92059713 371.65081037 144.8858066 C371.64450328 153.8012737 371.64565392 162.71671057 371.65208244 171.63217735 C371.6529841 172.90246259 371.65388575 174.17274782 371.65481473 175.48152655 C371.65666599 178.06235492 371.65852855 180.64318327 371.66040229 183.22401162 C371.67226754 200.54482595 371.67668766 217.86562275 371.66546726 235.18643665 C371.66502929 235.86309067 371.66459132 236.53974469 371.66414008 237.23690337 C371.66053363 242.73103984 371.65669866 248.22517615 371.65284915 253.71931245 C371.6380057 275.14357003 371.64677794 296.56770008 371.67480469 317.99194336 C371.70626942 342.09005262 371.72112287 366.18806823 371.71100467 390.28620547 C371.70998216 392.85830636 371.70898755 395.43040726 371.70802116 398.00250816 C371.70754477 399.26791265 371.70706838 400.53331714 371.70657756 401.83706722 C371.70441669 410.73593887 371.71420023 419.63475095 371.72879219 428.53360939 C371.74634146 439.38707287 371.74616094 450.24036314 371.72344054 461.09381989 C371.71232156 466.62700155 371.70908279 472.15987832 371.72774124 477.69304657 C371.74462977 482.76680965 371.73808201 487.84000391 371.71352445 492.9137307 C371.70866813 494.74066475 371.71208246 496.56764542 371.72501189 498.39454017 C371.8277914 514.05812386 368.89069967 527.18771482 361.07788086 541.01806641 C353.63179489 537.45578539 346.56458828 533.43083857 339.51538086 529.14306641 C337.29276764 527.80054725 335.07011016 526.45810136 332.84741211 525.11572266 C331.15865967 524.09309326 331.15865967 524.09309326 329.43579102 523.04980469 C324.19884114 519.88113398 318.95140601 516.73001548 313.70288086 513.58056641 C312.67582031 512.96375 311.64875977 512.34693359 310.59057617 511.71142578 C303.00031515 507.15774105 295.38597976 502.64574666 287.76538086 498.14306641 C277.94747689 492.3415777 268.18842162 486.45186745 258.45321655 480.51324463 C248.95762806 474.7249002 239.39162077 469.0667153 229.78085327 463.47195435 C222.86946984 459.44762089 215.99003847 455.37948376 209.16772461 451.20556641 C208.19925095 450.61358459 208.19925095 450.61358459 207.21121216 450.00964355 C204.10581898 448.10955476 201.00497727 446.20250851 197.90991211 444.28564453 C196.80905273 443.60953125 195.70819336 442.93341797 194.57397461 442.23681641 C193.60645264 441.63804687 192.63893066 441.03927734 191.64208984 440.42236328 C189.38875928 439.18831992 187.58715994 438.47073518 185.07788086 438.01806641 C184.62799805 438.63810547 184.17811523 439.25814453 183.71459961 439.89697266 C181.92676403 442.35838157 180.13595785 444.81760693 178.34448242 447.27636719 C177.03103724 449.08248089 175.72242384 450.89203761 174.41381836 452.70166016 C158.60332991 474.50352113 140.47918663 495.50585204 119.07788086 512.01806641 C117.60834961 513.195625 117.60834961 513.195625 116.10913086 514.39697266 C101.77322217 525.80544202 86.01687661 535.05259933 70.07788086 544.01806641 C69.4048291 544.40124023 68.73177734 544.78441406 68.03833008 545.17919922 C59.52607553 550.00832872 50.92802686 553.85572458 41.67993164 557.09326172 C38.52920561 558.21307315 35.39625278 559.37780702 32.26147461 560.54150391 C29.78385857 561.4510354 27.30599219 562.35988525 24.82788086 563.26806641 C23.65588135 563.70489746 22.48388184 564.14172852 21.27636719 564.59179688 C14.83931187 566.9227286 8.69777837 568.65801604 1.90307617 569.55224609 C-1.04960972 569.9825156 -1.04960972 569.9825156 -4.34643555 571.00512695 C-7.82160214 571.98959139 -11.13393511 572.57914501 -14.71118164 573.05322266 C-15.98348633 573.22273437 -17.25579102 573.39224609 -18.56665039 573.56689453 C-19.55012451 573.69366577 -19.55012451 573.69366577 -20.5534668 573.82299805 C-22.52227067 574.07735613 -24.48978988 574.34159459 -26.45727539 574.60595703 C-39.91388422 576.37442375 -53.22845473 577.25312123 -66.79711914 577.26806641 C-67.52435181 577.26940582 -68.25158447 577.27074524 -69.00085449 577.27212524 C-79.94599142 577.26781333 -90.77893615 576.76717727 -101.67211914 575.70556641 C-102.90043457 575.58793945 -104.12875 575.4703125 -105.39428711 575.34912109 C-124.12844138 573.34801351 -124.12844138 573.34801351 -132.50708008 569.97851562 C-135.03056992 568.97493606 -137.30341942 568.53297156 -139.98461914 568.13134766 C-146.18119149 567.06501391 -151.98056073 565.23318049 -157.92211914 563.20556641 C-158.92500977 562.87492188 -159.92790039 562.54427734 -160.96118164 562.20361328 C-167.0028996 560.1701927 -172.76813532 557.80530706 -178.54125977 555.10522461 C-181.20146861 553.89050865 -183.89733778 552.93752059 -186.67211914 552.01806641 C-197.36386045 547.97839776 -207.10897618 541.80980339 -216.92211914 536.01806641 C-217.69056152 535.56737793 -218.45900391 535.11668945 -219.25073242 534.65234375 C-239.41025327 522.74858231 -257.62989454 507.78025902 -273.92211914 491.01806641 C-276.13902893 488.7878817 -278.35530842 486.56147668 -280.62524414 484.38525391 C-285.87561779 479.32049953 -290.39805145 473.73072331 -294.92211914 468.01806641 C-296.11514648 466.51566406 -296.11514648 466.51566406 -297.33227539 464.98291016 C-309.22302447 449.85935626 -319.0237242 434.0778433 -327.92211914 417.01806641 C-328.33155762 416.2377002 -328.74099609 415.45733398 -329.1628418 414.65332031 C-333.37699282 406.58347969 -336.93202635 398.61983397 -339.92211914 390.01806641 C-340.14434143 389.37890289 -340.36656372 388.73973938 -340.59552002 388.08120728 C-342.14748043 383.60518814 -343.67411419 379.12104093 -345.18603516 374.63134766 C-345.71643755 373.06170682 -346.25059199 371.49332862 -346.78857422 369.92626953 C-349.93593578 360.75423326 -352.59951628 351.75781819 -354.33447266 342.21142578 C-354.80636407 339.64709689 -355.35906625 337.17244797 -356.03930664 334.65869141 C-360.83273824 314.89108854 -359.24798895 293.21840021 -358.92211914 273.01806641 C-358.9027832 271.81633789 -358.88344727 270.61460937 -358.86352539 269.37646484 C-358.58926039 255.73178122 -357.45479249 242.43423238 -354.92211914 229.01806641 C-354.67977539 227.72126953 -354.43743164 226.42447266 -354.18774414 225.08837891 C-352.09849922 215.2925796 -349.04689217 205.79452735 -345.98461914 196.26806641 C-345.77360565 195.61043304 -345.56259216 194.95279968 -345.34518433 194.27523804 C-332.60676229 154.75375176 -312.1735508 119.14508807 -283.62524414 88.90869141 C-281.48203579 86.61682121 -279.43523827 84.29708246 -277.42211914 81.89306641 C-273.14897711 76.95452026 -268.2364409 72.67883975 -263.37719727 68.33349609 C-262.09836247 67.17739511 -260.84406307 65.9942749 -259.59399414 64.80712891 C-243.97706762 50.11848123 -225.42444076 38.66167296 -206.92211914 28.01806641 C-205.43373535 27.15266235 -205.43373535 27.15266235 -203.9152832 26.26977539 C-202.96878906 25.73296143 -202.02229492 25.19614746 -201.04711914 24.64306641 C-200.20407227 24.16095703 -199.36102539 23.67884766 -198.49243164 23.18212891 C-195.63286175 21.88706534 -193.02595879 21.4071775 -189.92211914 21.01806641 C-189.92211914 20.35806641 -189.92211914 19.69806641 -189.92211914 19.01806641 C-189.30208008 18.79892578 -188.68204102 18.57978516 -188.04321289 18.35400391 C-182.45595118 16.35332504 -176.9245981 14.24075988 -171.42211914 12.01806641 C-165.30012295 9.55153419 -159.16383889 7.16637925 -152.92211914 5.01806641 C-152.16286133 4.75251953 -151.40360352 4.48697266 -150.62133789 4.21337891 C-144.77504468 2.30719255 -138.83715884 1.2198786 -132.78369141 0.21533203 C-128.174396 -0.55613161 -123.62908856 -1.47404201 -119.07373047 -2.51635742 C-83.43075645 -10.56309083 -34.87151166 -11.71803993 0 0 Z " fill="#7F3A86" transform="translate(505.922119140625,226.98193359375)"/>
<path d="M0 0 C3.16837802 1.04800003 6.25715713 1.68955645 9.53491211 2.30712891 C17.26678055 3.92601742 24.42402368 6.51410281 31.76538086 9.39306641 C33.60712891 10.09689453 33.60712891 10.09689453 35.48608398 10.81494141 C41.9883502 13.32300786 48.38034865 15.98469797 54.70092773 18.92041016 C56.69021878 19.83904743 58.70386047 20.70470731 60.72241211 21.55712891 C80.69285261 30.25205876 99.1750128 42.35778936 116.07788086 56.01806641 C116.9944043 56.74251953 117.91092773 57.46697266 118.85522461 58.21337891 C133.61135286 70.02674987 148.0994883 83.36029656 160.07788086 98.01806641 C161.26897461 99.46826172 161.26897461 99.46826172 162.48413086 100.94775391 C168.02809804 107.80161524 173.19446921 114.88938534 178.20288086 122.14306641 C178.77151855 122.96073486 179.34015625 123.77840332 179.92602539 124.62084961 C180.45309082 125.39388428 180.98015625 126.16691895 181.52319336 126.96337891 C181.99257324 127.64932129 182.46195313 128.33526367 182.94555664 129.04199219 C184.09116821 131.04125481 184.63912947 132.76639678 185.07788086 135.01806641 C184.45969482 135.31374512 183.84150879 135.60942383 183.20458984 135.9140625 C177.25429795 138.81595407 171.68330453 142.03244516 166.14038086 145.64306641 C159.72457778 149.75874462 153.25463997 153.72933611 146.64038086 157.51806641 C137.54338265 162.7298883 128.54995952 168.10125232 119.57202148 173.51513672 C116.32644495 175.4708698 113.07713648 177.42034238 109.82739258 179.36914062 C108.20118606 180.34434321 106.57520984 181.31992992 104.94946289 182.29589844 C100.1851958 185.15594491 95.41797608 188.01097681 90.64819336 190.86181641 C89.54693115 191.52076904 88.44566895 192.17972168 87.31103516 192.85864258 C85.18042366 194.13347398 83.04912265 195.40715402 80.91699219 196.67944336 C79.43235474 197.56829224 79.43235474 197.56829224 77.91772461 198.47509766 C76.95334473 199.05211426 75.98896484 199.62913086 74.99536133 200.22363281 C71.04435252 202.6537512 67.19472101 205.23168031 63.35742188 207.8371582 C62.60517334 208.22685791 61.8529248 208.61655762 61.07788086 209.01806641 C57.0154375 207.66391862 56.27337831 205.64448454 53.95288086 202.08056641 C49.81409955 195.88899042 45.23765081 190.40136429 40.07788086 185.01806641 C39.46686523 184.35548828 38.85584961 183.69291016 38.22631836 183.01025391 C29.51074732 173.84963243 19.34212122 166.30145323 8.21069336 160.35791016 C7.50686523 159.91576172 6.80303711 159.47361328 6.07788086 159.01806641 C6.07788086 158.35806641 6.07788086 157.69806641 6.07788086 157.01806641 C5.42819336 156.93169922 4.77850586 156.84533203 4.10913086 156.75634766 C0.00414649 155.75655121 -3.6035629 153.98710406 -7.42211914 152.20556641 C-14.78679504 148.85480987 -22.08787438 146.09777571 -29.92211914 144.01806641 C-30.98430664 143.73189453 -32.04649414 143.44572266 -33.14086914 143.15087891 C-42.92976858 140.60673425 -52.21399128 139.83160137 -62.2980957 139.83276367 C-64.38913064 139.83060053 -66.47961633 139.81247007 -68.57055664 139.79345703 C-81.39469484 139.73751677 -93.82585745 140.8976854 -106.10961914 144.83056641 C-106.96056152 145.09554932 -107.81150391 145.36053223 -108.68823242 145.63354492 C-115.27403877 147.72333219 -121.65952339 150.08809685 -127.92211914 153.01806641 C-129.06036133 153.54142578 -130.19860352 154.06478516 -131.37133789 154.60400391 C-139.20449402 158.30069272 -146.12189647 162.66404494 -152.92211914 168.01806641 C-153.78708008 168.69095703 -154.65204102 169.36384766 -155.54321289 170.05712891 C-158.02755996 172.0158683 -160.48180697 174.00480886 -162.92211914 176.01806641 C-163.63368164 176.60458984 -164.34524414 177.19111328 -165.07836914 177.79541016 C-169.84542067 181.83823655 -173.9383638 186.20948066 -177.92211914 191.01806641 C-178.54860352 191.74509766 -179.17508789 192.47212891 -179.82055664 193.22119141 C-190.94148737 206.49597829 -201.70931801 223.95985065 -205.27758789 241.04150391 C-205.9951052 244.3551293 -206.97973149 247.5305011 -207.98461914 250.76806641 C-215.00864355 275.3925198 -212.91600793 301.66646331 -205.92211914 326.01806641 C-205.71603027 326.73897461 -205.50994141 327.45988281 -205.29760742 328.20263672 C-199.23693549 348.90048867 -188.78871813 367.00638118 -174.02758789 382.73681641 C-172.47344497 384.42071152 -170.99667768 386.17678664 -169.56665039 387.96728516 C-166.86224598 391.23616349 -163.78402621 393.76354893 -160.42211914 396.33056641 C-159.51441772 397.03342773 -159.51441772 397.03342773 -158.58837891 397.75048828 C-148.95751031 405.14019563 -139.1900217 412.36762817 -127.92211914 417.01806641 C-126.78774414 417.50146484 -125.65336914 417.98486328 -124.48461914 418.48291016 C-115.79553777 422.07477822 -107.11452419 424.95460251 -97.92211914 427.01806641 C-96.33161743 427.39753418 -96.33161743 427.39753418 -94.70898438 427.78466797 C-85.77498957 429.77406442 -77.28723333 430.48994574 -68.14306641 430.40917969 C-65.98869319 430.39309682 -63.8362019 430.40913842 -61.68188477 430.42822266 C-48.19972792 430.45026031 -35.38349351 428.30536416 -22.60961914 423.89306641 C-21.73426514 423.5944873 -20.85891113 423.2959082 -19.95703125 422.98828125 C9.80807989 412.52137015 36.22863658 394.31787668 54.07788086 368.01806641 C55.07429729 366.61967269 56.07377479 365.22344892 57.07788086 363.83056641 C57.73788086 362.90244141 58.39788086 361.97431641 59.07788086 361.01806641 C63.03083466 363.26860617 66.98019534 365.52532558 70.92700195 367.78662109 C72.33555218 368.59306007 73.74470969 369.39843949 75.15454102 370.20263672 C86.11271272 376.45789454 96.9292928 382.93183999 107.70309448 389.49780273 C120.52733414 397.31282013 133.44136979 404.96962168 146.40600586 412.54931641 C147.77593232 413.35116949 149.14572643 414.15324875 150.51538086 414.95556641 C151.17256104 415.34019043 151.82974121 415.72481445 152.50683594 416.12109375 C159.89887858 420.46748413 167.20342631 424.95915627 174.50146484 429.46118164 C175.91214233 430.32658569 175.91214233 430.32658569 177.35131836 431.20947266 C178.19098145 431.72711182 179.03064453 432.24475098 179.89575195 432.77807617 C182.13927223 434.14617531 182.13927223 434.14617531 185.07788086 435.01806641 C184.4703971 438.07740692 183.51283737 440.13724439 181.70678711 442.67041016 C181.22016602 443.35772217 180.73354492 444.04503418 180.23217773 444.75317383 C179.70688477 445.47996338 179.1815918 446.20675293 178.64038086 446.95556641 C178.09833008 447.71264893 177.5562793 448.46973145 176.99780273 449.24975586 C172.17235412 455.95546062 167.25626614 462.57996615 162.07788086 469.01806641 C161.65667969 469.54368164 161.23547852 470.06929687 160.80151367 470.61083984 C148.55487473 485.74333852 134.62472205 500.26837997 119.07788086 512.01806641 C118.10463867 512.79666016 117.13139648 513.57525391 116.12866211 514.37744141 C101.79392272 525.80096091 86.02373606 535.04874098 70.07788086 544.01806641 C69.4048291 544.40124023 68.73177734 544.78441406 68.03833008 545.17919922 C59.52607553 550.00832872 50.92802686 553.85572458 41.67993164 557.09326172 C38.52920561 558.21307315 35.39625278 559.37780702 32.26147461 560.54150391 C29.78385857 561.4510354 27.30599219 562.35988525 24.82788086 563.26806641 C23.65588135 563.70489746 22.48388184 564.14172852 21.27636719 564.59179688 C14.83931187 566.9227286 8.69777837 568.65801604 1.90307617 569.55224609 C-1.04960972 569.9825156 -1.04960972 569.9825156 -4.34643555 571.00512695 C-7.82160214 571.98959139 -11.13393511 572.57914501 -14.71118164 573.05322266 C-15.98348633 573.22273437 -17.25579102 573.39224609 -18.56665039 573.56689453 C-19.55012451 573.69366577 -19.55012451 573.69366577 -20.5534668 573.82299805 C-22.52227067 574.07735613 -24.48978988 574.34159459 -26.45727539 574.60595703 C-39.91388422 576.37442375 -53.22845473 577.25312123 -66.79711914 577.26806641 C-67.52435181 577.26940582 -68.25158447 577.27074524 -69.00085449 577.27212524 C-79.94599142 577.26781333 -90.77893615 576.76717727 -101.67211914 575.70556641 C-102.90043457 575.58793945 -104.12875 575.4703125 -105.39428711 575.34912109 C-124.12844138 573.34801351 -124.12844138 573.34801351 -132.50708008 569.97851562 C-135.03056992 568.97493606 -137.30341942 568.53297156 -139.98461914 568.13134766 C-146.18119149 567.06501391 -151.98056073 565.23318049 -157.92211914 563.20556641 C-158.92500977 562.87492188 -159.92790039 562.54427734 -160.96118164 562.20361328 C-167.0028996 560.1701927 -172.76813532 557.80530706 -178.54125977 555.10522461 C-181.20146861 553.89050865 -183.89733778 552.93752059 -186.67211914 552.01806641 C-197.36386045 547.97839776 -207.10897618 541.80980339 -216.92211914 536.01806641 C-217.69056152 535.56737793 -218.45900391 535.11668945 -219.25073242 534.65234375 C-239.41025327 522.74858231 -257.62989454 507.78025902 -273.92211914 491.01806641 C-276.13902893 488.7878817 -278.35530842 486.56147668 -280.62524414 484.38525391 C-285.87561779 479.32049953 -290.39805145 473.73072331 -294.92211914 468.01806641 C-296.11514648 466.51566406 -296.11514648 466.51566406 -297.33227539 464.98291016 C-309.22302447 449.85935626 -319.0237242 434.0778433 -327.92211914 417.01806641 C-328.33155762 416.2377002 -328.74099609 415.45733398 -329.1628418 414.65332031 C-333.37699282 406.58347969 -336.93202635 398.61983397 -339.92211914 390.01806641 C-340.14434143 389.37890289 -340.36656372 388.73973938 -340.59552002 388.08120728 C-342.14748043 383.60518814 -343.67411419 379.12104093 -345.18603516 374.63134766 C-345.71643755 373.06170682 -346.25059199 371.49332862 -346.78857422 369.92626953 C-349.93593578 360.75423326 -352.59951628 351.75781819 -354.33447266 342.21142578 C-354.80636407 339.64709689 -355.35906625 337.17244797 -356.03930664 334.65869141 C-360.83273824 314.89108854 -359.24798895 293.21840021 -358.92211914 273.01806641 C-358.9027832 271.81633789 -358.88344727 270.61460937 -358.86352539 269.37646484 C-358.58926039 255.73178122 -357.45479249 242.43423238 -354.92211914 229.01806641 C-354.67977539 227.72126953 -354.43743164 226.42447266 -354.18774414 225.08837891 C-352.09849922 215.2925796 -349.04689217 205.79452735 -345.98461914 196.26806641 C-345.77360565 195.61043304 -345.56259216 194.95279968 -345.34518433 194.27523804 C-332.60676229 154.75375176 -312.1735508 119.14508807 -283.62524414 88.90869141 C-281.48203579 86.61682121 -279.43523827 84.29708246 -277.42211914 81.89306641 C-273.14897711 76.95452026 -268.2364409 72.67883975 -263.37719727 68.33349609 C-262.09836247 67.17739511 -260.84406307 65.9942749 -259.59399414 64.80712891 C-243.97706762 50.11848123 -225.42444076 38.66167296 -206.92211914 28.01806641 C-205.43373535 27.15266235 -205.43373535 27.15266235 -203.9152832 26.26977539 C-202.96878906 25.73296143 -202.02229492 25.19614746 -201.04711914 24.64306641 C-200.20407227 24.16095703 -199.36102539 23.67884766 -198.49243164 23.18212891 C-195.63286175 21.88706534 -193.02595879 21.4071775 -189.92211914 21.01806641 C-189.92211914 20.35806641 -189.92211914 19.69806641 -189.92211914 19.01806641 C-189.30208008 18.79892578 -188.68204102 18.57978516 -188.04321289 18.35400391 C-182.45595118 16.35332504 -176.9245981 14.24075988 -171.42211914 12.01806641 C-165.30012295 9.55153419 -159.16383889 7.16637925 -152.92211914 5.01806641 C-152.16286133 4.75251953 -151.40360352 4.48697266 -150.62133789 4.21337891 C-144.77504468 2.30719255 -138.83715884 1.2198786 -132.78369141 0.21533203 C-128.174396 -0.55613161 -123.62908856 -1.47404201 -119.07373047 -2.51635742 C-83.43075645 -10.56309083 -34.87151166 -11.71803993 0 0 Z " fill="#FEFEFE" transform="translate(505.922119140625,226.98193359375)"/>
<path d="M0 0 C1.8607863 2.30149884 3.42259428 4.51391489 5 7 C5.97898163 8.47971371 6.96084062 9.95752708 7.9453125 11.43359375 C8.4496582 12.19397949 8.95400391 12.95436523 9.47363281 13.73779297 C17.03311526 24.94159405 25.61197079 35.27564503 34.57666016 45.36938477 C35.96658477 46.96171864 37.30854898 48.58497605 38.64453125 50.22265625 C40.59008403 52.51666624 42.44426989 54.40583856 44.75 56.3125 C47.71090506 58.82761824 50.43636058 61.44641874 53.125 64.25 C58.93503859 70.11973077 65.42453853 75.0302741 72 80 C72.61182129 80.46728516 73.22364258 80.93457031 73.85400391 81.41601562 C82.87324987 88.28918014 92.14243114 94.40029397 102 100 C103.09779785 100.62503418 103.09779785 100.62503418 104.21777344 101.26269531 C117.47911806 108.78363578 130.65034016 115.76277573 145 121 C146.82296797 121.67303814 148.64588016 122.34622738 150.46875 123.01953125 C152.43723537 123.74290802 154.40598687 124.465561 156.375 125.1875 C157.78434814 125.70546143 157.78434814 125.70546143 159.22216797 126.23388672 C167.01633683 129.07002483 174.5195369 131.18598406 182.7421875 132.33984375 C185.4334226 132.88518995 187.75307876 133.58326964 190.32421875 134.5 C194.860226 136.06026118 199.17347513 136.67283972 203.9375 137.0625 C205.63292647 137.21619585 207.3282374 137.37117089 209.0234375 137.52734375 C209.86616211 137.6032373 210.70888672 137.67913086 211.57714844 137.75732422 C213.74331492 137.97429011 215.8856788 138.24935349 218.0390625 138.56640625 C248.29977509 142.89680574 287.84646798 142.95967047 316.81640625 133.03515625 C319.64338121 132.1159558 322.20547242 131.60324713 325.12890625 131.1328125 C331.33909031 130.05250688 337.04461193 128.07514154 342.9375 125.875 C344.02651611 125.47321533 345.11553223 125.07143066 346.23754883 124.6574707 C348.45136221 123.83604773 350.66323172 123.00936529 352.87304688 122.17724609 C354.82746947 121.44143834 356.78415875 120.71159143 358.74414062 119.99072266 C404.1343715 103.27760207 448.43787497 71.46188057 478 33 C479.27074866 31.45826354 480.5415837 29.91659827 481.8125 28.375 C486.0485416 23.08207881 489.91857 17.53904626 493.78833008 11.97607422 C496.41091326 8.2114473 499.07722082 4.54213001 502 1 C506.33858114 2.29920704 509.91446177 3.97167752 513.76171875 6.3515625 C514.86708984 7.03001221 515.97246094 7.70846191 517.11132812 8.4074707 C517.69342041 8.76845856 518.2755127 9.12944641 518.87524414 9.50137329 C521.99641797 11.43654942 525.12999736 13.35149001 528.26171875 15.26953125 C529.22584183 15.86114296 529.22584183 15.86114296 530.20944214 16.46470642 C536.7658688 20.48276558 543.37767962 24.40429988 550 28.3125 C561.02828054 34.82867264 572.02364889 41.39682889 583 48 C596.93615162 56.38176706 610.89305402 64.72611404 624.89038086 73.00537109 C633.69332928 78.21586275 642.46736186 83.47330897 651.23413086 88.74438477 C659.79056161 93.88488415 668.382672 98.96235984 677 104 C669.64565488 123.81389097 650.72947006 137.46155583 632.26953125 146.30859375 C627.72493067 148.65962368 623.45262911 151.39968802 619.125 154.125 C612.68261835 158.15337578 606.21859124 162.08472236 599.5625 165.75 C594.09995719 168.76047105 588.85102255 171.98135954 583.63891602 175.41503906 C577.5079594 179.40681096 571.13130732 182.95174455 564.76147461 186.54467773 C558.9327612 189.84900778 553.26550878 193.31731464 547.66821289 196.99707031 C544.49302619 199.07386257 541.29294648 200.9806694 537.9375 202.75 C531.32442378 206.2487214 525.03123547 210.26622001 518.69897461 214.24316406 C513.84141357 217.28396187 508.94781895 220.19533171 503.92089844 222.94750977 C498.67693877 225.82075711 493.59537559 228.98207193 488.546875 232.18359375 C480.84685662 237.05871207 473.06486965 241.71138359 465.125 246.1875 C458.93744179 249.6760718 453.00216715 253.24260852 447.26953125 257.44921875 C444.66624331 259.2280575 441.98239319 260.66540521 439.1875 262.125 C433.13445219 265.29462196 427.35445739 268.81462988 421.5625 272.4375 C414.73307872 276.70746543 407.87284196 280.83101603 400.8515625 284.77734375 C394.63580933 288.31974595 388.56983748 292.11996258 382.46948242 295.85595703 C377.16951378 299.09431771 371.85064487 302.26722459 366.4375 305.3125 C361.40384955 308.1469246 356.56497291 311.19526557 351.73779297 314.36669922 C345.59605772 318.3514854 339.20903106 321.886815 332.83007812 325.47412109 C326.7291236 328.93434747 320.89804917 332.64955818 315.12280273 336.6237793 C310.51115448 339.75985368 305.73405406 342.25023536 300.69140625 344.640625 C298.14001973 345.92927886 295.89635986 347.35655603 293.5625 349 C280.71258788 357.85319443 267.15087623 361.54590884 251.69458008 361.44604492 C249.70062632 361.43755588 247.70663114 361.4676754 245.71289062 361.49804688 C233.13464827 361.49182926 222.02264856 358.74159057 211.0625 352.5625 C210.37349609 352.19318359 209.68449219 351.82386719 208.97460938 351.44335938 C204.95192878 349.24744007 201.25064356 346.79898432 197.55688477 344.09155273 C195.61134765 342.72751064 193.60140763 341.7255004 191.4375 340.75 C186.80546105 338.50624859 182.5963755 335.84243517 178.30737305 333.00537109 C170.8784439 328.16360687 163.13403309 323.8487189 155.4140625 319.49267578 C149.42944009 316.08847113 143.73094085 312.5036585 138.13623047 308.49169922 C135.58889062 306.7129282 132.96424005 305.26535625 130.1875 303.875 C124.17444617 300.72665578 118.43811556 297.22842323 112.6875 293.625 C106.42918803 289.70575997 100.15412666 285.87859501 93.6875 282.3125 C87.68048169 278.99799668 81.85417624 275.46312522 76.05810547 271.79345703 C71.36281424 268.8285499 66.6119143 265.98031596 61.8125 263.1875 C55.28032604 259.38528033 48.84777333 255.44153197 42.4375 251.4375 C35.61648106 247.17752819 28.73516309 243.11412168 21.68432617 239.24853516 C16.36788691 236.29654269 11.37825418 232.95469606 6.36401367 229.52099609 C1.77116794 226.41451804 -2.95111864 223.94197118 -7.9609375 221.55859375 C-14.78638025 218.05814175 -21.15666302 213.64952708 -27.46484375 209.30078125 C-31.4035057 206.58716424 -35.30402117 204.31280771 -39.625 202.25 C-44.28951242 199.98504855 -48.55340555 197.37882831 -52.8125 194.4375 C-60.06705903 189.44065927 -67.66179186 185.1785927 -75.359375 180.90600586 C-82.23579609 177.06413486 -88.85530325 172.95355789 -95.41918945 168.60400391 C-99.60144407 165.84982379 -103.79211777 163.50039839 -108.33203125 161.375 C-115.92432481 157.46213421 -123.14239018 152.62035204 -130.203125 147.82421875 C-132.60879968 146.2551544 -134.88808234 145.04300543 -137.5 143.875 C-154.39191305 135.55585964 -169.06147904 122.59043663 -178 106 C-178 105.34 -178 104.68 -178 104 C-176.86691406 103.35998047 -176.86691406 103.35998047 -175.7109375 102.70703125 C-160.59597733 94.1230082 -145.63978211 85.26913321 -130.83129883 76.16699219 C-119.91691701 69.4739027 -108.86476867 63.00625605 -97.80859375 56.55078125 C-88.3060638 50.99646902 -78.89111561 45.30328078 -69.49087524 39.57803345 C-61.38147378 34.64009624 -53.24611442 29.75193715 -45.0625 24.9375 C-36.56277878 19.93672844 -28.12011311 14.86122766 -19.77880859 9.59863281 C-17.33633573 8.05824594 -14.88714142 6.52895446 -12.4375 5 C-11.66245117 4.50612793 -10.88740234 4.01225586 -10.08886719 3.50341797 C-9.35700195 3.04854004 -8.62513672 2.59366211 -7.87109375 2.125 C-7.22068115 1.71507812 -6.57026855 1.30515625 -5.90014648 0.8828125 C-4 0 -4 0 0 0 Z " fill="#662579" transform="translate(189,663)"/>
<path d="M0 0 C2.06462488 -0.00966924 4.12823553 -0.040782 6.19262695 -0.07226562 C15.62905154 -0.14626274 24.21284703 1.04060419 33.39770508 3.24023438 C34.3816626 3.47371582 35.36562012 3.70719727 36.37939453 3.94775391 C47.11118163 6.59149269 58.17541049 10.43485632 67.60083008 16.25976562 C69.51513083 17.30430799 71.26911156 17.80227155 73.39770508 18.24023438 C73.39770508 18.90023438 73.39770508 19.56023437 73.39770508 20.24023438 C74.72608398 20.62888672 74.72608398 20.62888672 76.08129883 21.02539062 C97.0473667 28.70554034 115.48472342 52.4130065 127.39770508 70.24023438 C123.62608599 73.32700684 119.41447434 75.49252503 115.14770508 77.80273438 C108.41389154 81.49338871 101.85405106 85.37262405 95.37158203 89.48632812 C89.18158245 93.40627838 82.87545448 97.11060508 76.55004883 100.80664062 C72.64754626 103.08769998 68.76921096 105.40704796 64.89770508 107.74023438 C60.32050335 110.49871265 55.7260945 113.22439186 51.11181641 115.92041016 C44.74742964 119.63952871 38.44341738 123.4298204 32.21020508 127.36523438 C27.43652436 130.37915543 22.63243817 133.28397826 17.71020508 136.05273438 C11.66931964 139.45634183 5.78031578 143.07052125 -0.10229492 146.74023438 C-6.99635652 151.03849689 -13.92743048 155.19582249 -21.00463867 159.18554688 C-31.25150952 164.99565796 -41.27428546 171.21252661 -51.33666992 177.33398438 C-51.9180925 177.68767593 -52.49951508 178.04136749 -53.09855652 178.40577698 C-53.6859108 178.76308395 -54.27326508 179.12039093 -54.87841797 179.48852539 C-56.07804056 180.21826674 -57.27766623 180.94800305 -58.47729492 181.67773438 C-59.07305328 182.04019257 -59.66881165 182.40265076 -60.28262329 182.77609253 C-70.05583131 188.71980268 -79.87996395 194.57279286 -89.73901367 200.37304688 C-94.68499683 203.28358633 -99.60753073 206.2319077 -104.52050781 209.19775391 C-107.35749964 210.90707451 -110.20440183 212.59491219 -113.07885742 214.24023438 C-114.1590918 214.85898437 -115.23932617 215.47773437 -116.35229492 216.11523438 C-117.29588867 216.64890625 -118.23948242 217.18257812 -119.21166992 217.73242188 C-121.35956418 219.08713949 -122.85879145 220.42550318 -124.60229492 222.24023438 C-142.8024483 190.52729106 -151.71909305 151.74196647 -142.68432617 115.56445312 C-142.01318402 113.21159844 -141.31586006 110.86602969 -140.59057617 108.52929688 C-139.67598551 105.48548132 -139.00167443 102.47387693 -138.35229492 99.36523438 C-134.1885346 82.57659648 -122.82295498 65.20053166 -111.60229492 52.24023438 C-111.16079102 51.72783203 -110.71928711 51.21542969 -110.2644043 50.6875 C-86.92994776 23.86663711 -52.40875627 3.64311069 -16.54541016 0.42333984 C-11.03367884 0.08042831 -5.52065306 0.01554566 0 0 Z " fill="#9A5196" transform="translate(438.602294921875,365.759765625)"/>
<path d="M0 0 C12.21 0 24.42 0 37 0 C37 12.21 37 24.42 37 37 C48.88 37 60.76 37 73 37 C73 49.21 73 61.42 73 74 C61.12 74 49.24 74 37 74 C37 97.76 37 121.52 37 146 C48.88 146 60.76 146 73 146 C73 158.21 73 170.42 73 183 C60.79 183 48.58 183 36 183 C36 194.88 36 206.76 36 219 C24.45 219 12.9 219 1 219 C1 207.12 1 195.24 1 183 C-23.42 183 -47.84 183 -73 183 C-73 194.88 -73 206.76 -73 219 C-84.88 219 -96.76 219 -109 219 C-109 207.12 -109 195.24 -109 183 C-121.21 183 -133.42 183 -146 183 C-146 170.79 -146 158.58 -146 146 C-134.12 146 -122.24 146 -110 146 C-110 122.24 -110 98.48 -110 74 C-121.88 74 -133.76 74 -146 74 C-146 61.79 -146 49.58 -146 37 C-133.79 37 -121.58 37 -109 37 C-109 25.12 -109 13.24 -109 1 C-97.12 1 -85.24 1 -73 1 C-73 12.88 -73 24.76 -73 37 C-48.91 37 -24.82 37 0 37 C0 24.79 0 12.58 0 0 Z " fill="#FDFCFD" transform="translate(767,402)"/>
<path d="M0 0 C2.60706197 1.22132633 5.02829469 2.55745056 7.48779297 4.05273438 C8.43436768 4.62491699 9.38094238 5.19709961 10.35620117 5.78662109 C11.38318115 6.41197754 12.41016113 7.03733398 13.46826172 7.68164062 C15.72819736 9.04833098 17.98857393 10.41426741 20.24951172 11.77929688 C21.14172173 12.31864868 21.14172173 12.31864868 22.05195618 12.86889648 C28.49190212 16.75808562 34.96671836 20.58793837 41.44116211 24.41931152 C52.89880049 31.20102462 64.31396239 38.04701876 75.68270874 44.97665405 C86.65380774 51.66206019 97.69394179 58.22467122 108.75732422 64.75585938 C114.07199578 67.89350968 119.36880784 71.06003619 124.65576172 74.24414062 C114.40546438 101.56852971 83.84897188 121.4268644 58.66015625 133.12548828 C52.23430286 135.99991453 45.66034586 138.38015721 38.96826172 140.55664062 C38.23293213 140.79930664 37.49760254 141.04197266 36.73999023 141.29199219 C25.34364786 144.8347927 13.83111061 145.59555661 1.97265625 145.55981445 C-0.21030696 145.55665356 -2.39190973 145.58022418 -4.57470703 145.60546875 C-14.20810007 145.64851976 -22.96948877 144.49182497 -32.34423828 142.24414062 C-33.11493652 142.07100342 -33.88563477 141.89786621 -34.6796875 141.71948242 C-44.30172909 139.51042932 -53.33348622 136.19895411 -62.34423828 132.24414062 C-64.02066406 131.52677734 -64.02066406 131.52677734 -65.73095703 130.79492188 C-85.1116768 121.85863181 -102.42031624 107.07263982 -115.34423828 90.24414062 C-116.1853167 89.16986909 -117.02646428 88.0956517 -117.86767578 87.02148438 C-125.34423828 77.34063001 -125.34423828 77.34063001 -125.34423828 74.24414062 C-122.48690797 70.94044554 -119.32830601 68.86009249 -115.57470703 66.66992188 C-113.88196655 65.67557129 -113.88196655 65.67557129 -112.1550293 64.66113281 C-110.94729596 63.95958319 -109.73953168 63.25808684 -108.53173828 62.55664062 C-107.29298547 61.83106938 -106.0546243 61.10482909 -104.81665039 60.37792969 C-102.3965579 58.9574315 -99.97504206 57.53941698 -97.55224609 56.12353516 C-93.82206004 53.93822525 -90.10889528 51.72650351 -86.40673828 49.49414062 C-84.72257812 48.4809375 -84.72257812 48.4809375 -83.00439453 47.44726562 C-82.14225342 46.9280957 -82.14225342 46.9280957 -81.26269531 46.3984375 C-77.29234707 44.0095591 -73.31782605 41.62762502 -69.34423828 39.24414062 C-67.62547404 38.21291437 -65.9067238 37.18166476 -64.18798828 36.15039062 C-61.27132161 34.40039062 -58.35465495 32.65039062 -55.43798828 30.90039062 C-54.83873535 30.54082275 -54.23948242 30.18125488 -53.62207031 29.81079102 C-52.4356043 29.09894399 -51.24908073 28.38719289 -50.0625 27.67553711 C-46.56387313 25.57701809 -43.06674973 23.4760245 -39.57080078 21.37304688 C-18.65892293 8.80010054 -18.65892293 8.80010054 -9.00878906 3.24365234 C-7.52047336 2.34996439 -6.09617812 1.35162183 -4.68408203 0.34179688 C-2.34423828 -0.75585938 -2.34423828 -0.75585938 0 0 Z " fill="#662579" transform="translate(440.34423828125,512.755859375)"/>
<path d="M0 0 C24.09 0 48.18 0 73 0 C73 23.76 73 47.52 73 72 C48.91 72 24.82 72 0 72 C0 48.24 0 24.48 0 0 Z " fill="#7F3B86" transform="translate(694,476)"/>
<path d="M0 0 C0.66 0.33 1.32 0.66 2 1 C-8.56 11.56 -19.12 22.12 -30 33 C-30.66 32.67 -31.32 32.34 -32 32 C-31.25556641 31.27296875 -31.25556641 31.27296875 -30.49609375 30.53125 C-27.10602058 27.18620627 -23.81101807 23.83804748 -20.75 20.1875 C-16.81567711 15.60047838 -12.35700705 11.64126123 -7.8671875 7.61328125 C-5.15759749 5.14364131 -2.56997037 2.61233252 0 0 Z " fill="#EEE2ED" transform="translate(249,289)"/>
</svg>
