<?xml version="1.0" encoding="UTF-8"?>
<!DOCTYPE svg PUBLIC "-//W3C//DTD SVG 1.1//EN" "http://www.w3.org/Graphics/SVG/1.1/DTD/svg11.dtd">
<svg xmlns="http://www.w3.org/2000/svg" version="1.1" width="2400px" height="3909px" style="shape-rendering:geometricPrecision; text-rendering:geometricPrecision; image-rendering:optimizeQuality; fill-rule:evenodd; clip-rule:evenodd" xmlns:xlink="http://www.w3.org/1999/xlink">
<g><path style="opacity:0.999" fill="#231f20" d="M 1285.5,1.5 C 1385.83,-0.917963 1483.5,13.9154 1578.5,46C 1635.91,66.1904 1687.58,95.857 1733.5,135C 1783.74,177.902 1829.9,224.735 1872,275.5C 1900.22,309.434 1923.22,346.768 1941,387.5C 1973.09,467.526 1993.09,550.526 2001,636.5C 2003.16,657.461 2004.83,678.461 2006,699.5C 2218.25,905.349 2342.25,1156.02 2378,1451.5C 2406.45,1720.61 2354.28,1972.77 2221.5,2208C 2251.2,2223.04 2272.7,2245.87 2286,2276.5C 2313.46,2339.87 2335.12,2405.2 2351,2472.5C 2359.99,2544.87 2347.33,2613.2 2313,2677.5C 2301.27,2699.23 2284.77,2716.4 2263.5,2729C 2229.66,2741.63 2194.66,2748.63 2158.5,2750C 2109.87,2752.22 2061.87,2747.88 2014.5,2737C 2004.1,2726.77 1995.44,2715.27 1988.5,2702.5C 1945.53,2698.6 1903.19,2702.44 1861.5,2714C 1849.38,2717.73 1837.71,2722.56 1826.5,2728.5C 1829.82,2753.71 1819.82,2771.21 1796.5,2781C 1788.54,2783.93 1780.54,2786.77 1772.5,2789.5C 1769.1,2801.57 1767.43,2813.9 1767.5,2826.5C 1767.95,2839.56 1769.12,2852.56 1771,2865.5C 1778.05,2902.37 1786.05,2939.04 1795,2975.5C 1800.27,2999.28 1801.94,3023.28 1800,3047.5C 1797.82,3068.04 1788.32,3084.21 1771.5,3096C 1754.28,3106.85 1735.61,3114.19 1715.5,3118C 1701.96,3120.84 1688.46,3123.67 1675,3126.5C 1673.45,3135.44 1673.12,3144.44 1674,3153.5C 1675.43,3171.89 1677.09,3190.23 1679,3208.5C 1671.23,3228.94 1657.73,3244.44 1638.5,3255C 1619.71,3265.26 1599.71,3271.93 1578.5,3275C 1450.1,3291.47 1321.43,3294.13 1192.5,3283C 1138.02,3277.97 1084.86,3266.8 1033,3249.5C 1031.52,3248.56 1030.52,3247.22 1030,3245.5C 1014.09,3205.77 999.757,3165.44 987,3124.5C 965.033,3052.3 943.533,2979.96 922.5,2907.5C 860.438,2912.27 800.105,2903.77 741.5,2882C 717.041,2873.1 693.041,2863.1 669.5,2852C 628.981,2832.24 588.648,2812.24 548.5,2792C 526.5,2783.33 504.5,2774.67 482.5,2766C 469.97,2760.46 458.803,2752.96 449,2743.5C 440.778,2731.5 436.111,2718.17 435,2703.5C 434.112,2695.18 433.446,2686.85 433,2678.5C 432.804,2624.01 429.971,2569.67 424.5,2515.5C 204.475,2319.54 70.308,2075.2 22,1782.5C -17.8231,1512.77 24.5102,1256.77 149,1014.5C 222.449,875.334 319.449,754.667 440,652.5C 441.51,610.086 447.843,568.42 459,527.5C 468.912,490.992 486.578,458.992 512,431.5C 526.403,417.438 542.736,406.104 561,397.5C 576.6,337.772 607.767,287.939 654.5,248C 683.421,224.202 714.088,202.869 746.5,184C 791.662,158.92 836.662,133.587 881.5,108C 896.377,100.395 911.377,93.0613 926.5,86C 983.145,61.8955 1041.15,41.5621 1100.5,25C 1161.53,10.9962 1223.2,3.16288 1285.5,1.5 Z"/></g>
<g><path style="opacity:1" fill="#f6e3cc" d="M 1685.5,189.5 C 1685.26,190.097 1684.76,190.43 1684,190.5C 1627.36,169.941 1568.86,158.441 1508.5,156C 1404.65,152.792 1302.65,164.459 1202.5,191C 1084.1,227.442 988.604,295.608 916,395.5C 878.484,447.515 848.484,503.849 826,564.5C 825.517,563.552 825.351,562.552 825.5,561.5C 833.73,520.782 835.563,479.782 831,438.5C 827.755,420.264 822.588,402.598 815.5,385.5C 830.115,353.405 849.281,324.405 873,298.5C 914.786,254.024 961.286,215.524 1012.5,183C 1059.12,153.183 1107.45,126.183 1157.5,102C 1193.69,87.0939 1231.36,78.4272 1270.5,76C 1411.73,72.9742 1543.73,106.308 1666.5,176C 1673.01,180.363 1679.35,184.863 1685.5,189.5 Z"/></g>
<g><path style="opacity:1" fill="#dad7d6" d="M 943.5,185.5 C 857.271,217.008 783.105,266.342 721,333.5C 713.285,343.042 705.785,352.709 698.5,362.5C 675.471,370.843 652.137,378.343 628.5,385C 625.479,385.673 622.479,386.007 619.5,386C 640.404,346.082 667.738,311.082 701.5,281C 781.261,213.103 871.928,164.436 973.5,135C 981.117,134.544 987.283,137.378 992,143.5C 992.689,150.63 990.189,156.463 984.5,161C 975.99,164.726 967.323,168.059 958.5,171C 953.605,176.064 948.605,180.897 943.5,185.5 Z"/></g>
<g><path style="opacity:1" fill="#efd5b6" d="M 1685.5,189.5 C 1696.01,196.601 1706.01,204.434 1715.5,213C 1746.68,241.993 1774.68,273.493 1799.5,307.5C 1763.22,310.557 1733.38,325.891 1710,353.5C 1691.46,380.517 1686.46,409.85 1695,441.5C 1696.06,444.618 1697.39,447.618 1699,450.5C 1704.33,445.167 1709.67,439.833 1715,434.5C 1715.19,432.292 1715.69,430.292 1716.5,428.5C 1716.33,434.509 1716.5,440.509 1717,446.5C 1717.22,447.938 1717.72,449.271 1718.5,450.5C 1736.86,434.244 1758.36,426.577 1783,427.5C 1817.12,428.986 1847.96,439.819 1875.5,460C 1907.92,483.106 1929.42,513.94 1940,552.5C 1946.82,576.737 1951.48,601.404 1954,626.5C 1963.15,722.368 1965.15,818.368 1960,914.5C 1951.58,1042.2 1920.91,1164.2 1868,1280.5C 1854.19,1309.46 1838.86,1337.46 1822,1364.5C 1804,1391.17 1786,1417.83 1768,1444.5C 1751.27,1469.23 1731.11,1490.73 1707.5,1509C 1647.46,1550.68 1582.13,1581.68 1511.5,1602C 1490.02,1607.02 1468.36,1611.02 1446.5,1614C 1394.88,1620.13 1344.88,1613.8 1296.5,1595C 1229.62,1569.73 1170.29,1532.73 1118.5,1484C 1087.07,1453.58 1058.23,1421.08 1032,1386.5C 1007.6,1354.7 983.934,1322.37 961,1289.5C 963.379,1325.64 974.379,1358.97 994,1389.5C 1004.6,1405.7 1015.93,1421.36 1028,1436.5C 1060.99,1476.5 1096.49,1514.33 1134.5,1550C 1154.82,1568.32 1176.82,1584.32 1200.5,1598C 1206.71,1601.27 1213.05,1604.27 1219.5,1607C 1209.86,1605.85 1200.19,1604.51 1190.5,1603C 1168.7,1600.41 1147.04,1601.08 1125.5,1605C 1110.51,1608.41 1097.68,1615.58 1087,1626.5C 1084.46,1629.75 1082.29,1633.25 1080.5,1637C 1042.11,1635.78 1004.11,1631.95 966.5,1625.5C 913.384,1579.56 871.884,1524.9 842,1461.5C 812.52,1397.91 791.853,1331.58 780,1262.5C 775.183,1231.96 771.183,1201.3 768,1170.5C 764.058,1156.23 755.058,1146.89 741,1142.5C 740.235,1142.57 739.735,1142.9 739.5,1143.5C 738.596,1142.79 738.263,1141.79 738.5,1140.5C 726.306,1140.55 714.973,1143.72 704.5,1150C 694.215,1157.28 684.215,1164.95 674.5,1173C 654.832,1185.39 633.499,1189.06 610.5,1184C 582.083,1177.05 558.417,1162.55 539.5,1140.5C 516.47,1096.94 510.304,1050.94 521,1002.5C 526.169,978.813 531.336,955.147 536.5,931.5C 542.141,924.024 549.141,918.191 557.5,914C 562.167,913.333 566.833,913.333 571.5,914C 573.997,914.412 575.997,915.578 577.5,917.5C 568.006,939.318 563.672,962.152 564.5,986C 564.06,1013.61 569.893,1039.77 582,1064.5C 584.842,1068.2 587.675,1071.86 590.5,1075.5C 590.56,1076.04 590.893,1076.38 591.5,1076.5C 592.82,1068.68 592.82,1061.01 591.5,1053.5C 591.333,1034.5 591.5,1015.5 592,996.5C 592.58,979.922 596.58,964.255 604,949.5C 610.808,938.349 620.641,934.183 633.5,937C 643.19,940.688 650.356,947.188 655,956.5C 663.823,974.814 673.156,992.814 683,1010.5C 686.367,1014.2 690.034,1017.54 694,1020.5C 705.528,965.738 689.695,920.905 646.5,886C 639.727,881.616 632.727,877.783 625.5,874.5C 655.291,882.23 683.624,893.564 710.5,908.5C 711.298,908.043 711.631,907.376 711.5,906.5C 716.009,920.7 719.675,935.2 722.5,950C 746.16,951.534 769.493,949.534 792.5,944C 806.379,940.486 817.879,933.319 827,922.5C 827.698,912.801 827.365,903.134 826,893.5C 823.793,881.466 821.46,869.466 819,857.5C 812.192,831.935 805.859,806.268 800,780.5C 793.69,744.063 794.357,707.73 802,671.5C 809.238,634.569 817.071,597.902 825.5,561.5C 825.351,562.552 825.517,563.552 826,564.5C 848.484,503.849 878.484,447.515 916,395.5C 988.604,295.608 1084.1,227.442 1202.5,191C 1302.65,164.459 1404.65,152.792 1508.5,156C 1568.86,158.441 1627.36,169.941 1684,190.5C 1684.76,190.43 1685.26,190.097 1685.5,189.5 Z"/></g>
<g><path style="opacity:1" fill="#6d6b6d" d="M 943.5,185.5 C 928.305,198.185 912.639,210.352 896.5,222C 881.428,234.732 868.928,249.566 859,266.5C 847.397,286.43 835.397,306.097 823,325.5C 816.422,334.135 809.255,342.302 801.5,350C 796.058,354.054 790.058,357.054 783.5,359C 774.5,359.667 765.5,359.667 756.5,359C 736.874,355.203 717.54,356.37 698.5,362.5C 705.785,352.709 713.285,343.042 721,333.5C 783.105,266.342 857.271,217.008 943.5,185.5 Z"/></g>
<g><path style="opacity:1" fill="#f6e3cc" d="M 1799.5,307.5 C 1815.69,328.688 1832.03,349.855 1848.5,371C 1840.24,369.367 1831.9,367.7 1823.5,366C 1793.65,361.113 1766.32,367.113 1741.5,384C 1727.03,395.435 1718.7,410.268 1716.5,428.5C 1715.69,430.292 1715.19,432.292 1715,434.5C 1709.67,439.833 1704.33,445.167 1699,450.5C 1697.39,447.618 1696.06,444.618 1695,441.5C 1686.46,409.85 1691.46,380.517 1710,353.5C 1733.38,325.891 1763.22,310.557 1799.5,307.5 Z"/></g>
<g><path style="opacity:1" fill="#f6e3cc" d="M 1241.5,400.5 C 1222.21,392.543 1202.21,390.377 1181.5,394C 1148.51,402.989 1119.51,418.989 1094.5,442C 1076.01,459.471 1060.18,478.971 1047,500.5C 1035.21,521.666 1029.04,544.333 1028.5,568.5C 1028.63,569.239 1028.46,569.906 1028,570.5C 1020.41,562.311 1015.74,552.644 1014,541.5C 1010.75,515.328 1014.75,490.328 1026,466.5C 1043.52,430.978 1069.35,403.145 1103.5,383C 1120.82,371.891 1139.49,363.891 1159.5,359C 1196.25,353.46 1224.08,366.627 1243,398.5C 1243.53,399.816 1243.03,400.483 1241.5,400.5 Z"/></g>
<g><path style="opacity:1" fill="#231f20" d="M 1241.5,400.5 C 1254.14,406.978 1263.64,416.645 1270,429.5C 1272.87,440.958 1271.37,451.791 1265.5,462C 1199.76,446.031 1144.26,462.865 1099,512.5C 1079.1,537.108 1062.6,563.942 1049.5,593C 1039.33,591.51 1032.83,585.676 1030,575.5C 1029.81,572.964 1029.31,570.631 1028.5,568.5C 1029.04,544.333 1035.21,521.666 1047,500.5C 1060.18,478.971 1076.01,459.471 1094.5,442C 1119.51,418.989 1148.51,402.989 1181.5,394C 1202.21,390.377 1222.21,392.543 1241.5,400.5 Z"/></g>
<g><path style="opacity:1" fill="#dad7d6" d="M 785.5,439.5 C 729.021,446.378 677.021,465.211 629.5,496C 569.539,539.719 536.373,598.885 530,673.5C 529.333,692.167 529.333,710.833 530,729.5C 530.928,741.92 532.428,754.253 534.5,766.5C 529.896,769.14 525.229,771.806 520.5,774.5C 514.285,725.35 512.452,676.016 515,626.5C 517.119,592.687 525.786,560.687 541,530.5C 561.544,500.29 587.044,475.123 617.5,455C 665.683,424.161 718.35,407.161 775.5,404C 780.034,415.506 783.367,427.339 785.5,439.5 Z"/></g>
<g><path style="opacity:1" fill="#6c6a6c" d="M 785.5,439.5 C 787.441,447.248 788.607,455.248 789,463.5C 790.545,494.965 789.212,526.298 785,557.5C 778.899,594.771 773.233,632.104 768,669.5C 763.113,705.55 763.446,741.55 769,777.5C 774.72,800.995 781.054,824.329 788,847.5C 789.474,856.454 789.807,865.454 789,874.5C 784.681,886.964 775.848,892.964 762.5,892.5C 758.44,830.882 728.106,787.715 671.5,763C 634.473,748.719 596.806,746.719 558.5,757C 550.278,759.684 542.278,762.85 534.5,766.5C 532.428,754.253 530.928,741.92 530,729.5C 529.333,710.833 529.333,692.167 530,673.5C 536.373,598.885 569.539,539.719 629.5,496C 677.021,465.211 729.021,446.378 785.5,439.5 Z"/></g>
<g><path style="opacity:1" fill="#241f20" d="M 1863.5,694.5 C 1855.82,672.772 1850.82,650.438 1848.5,627.5C 1848.5,617.833 1848.5,608.167 1848.5,598.5C 1850.6,598.201 1852.6,598.534 1854.5,599.5C 1872.45,638.742 1890.95,677.742 1910,716.5C 1918.54,732.36 1927.87,747.693 1938,762.5C 1938.67,763.5 1938.67,764.5 1938,765.5C 1929.11,781.385 1916.61,793.552 1900.5,802C 1871.64,818.967 1840.64,825.967 1807.5,823C 1779.67,816.004 1766.67,798.171 1768.5,769.5C 1776.48,766.008 1784.81,763.841 1793.5,763C 1817.95,761.839 1842.29,759.505 1866.5,756C 1872.48,754.451 1878.14,752.118 1883.5,749C 1884.52,747.951 1884.68,746.784 1884,745.5C 1877.11,728.411 1870.28,711.411 1863.5,694.5 Z"/></g>
<g><path style="opacity:1" fill="#231f20" d="M 1359.5,738.5 C 1344.75,711.985 1333.58,683.985 1326,654.5C 1324.1,646.941 1322.93,639.275 1322.5,631.5C 1322.08,621.705 1322.91,612.039 1325,602.5C 1325.67,601.167 1326.33,601.167 1327,602.5C 1339.3,627.751 1350.64,653.418 1361,679.5C 1367.91,694.997 1376.57,709.33 1387,722.5C 1397.36,733.197 1408.03,743.53 1419,753.5C 1436.38,774.64 1438.05,796.973 1424,820.5C 1412.04,833.798 1397.88,843.964 1381.5,851C 1351.02,857.137 1320.35,858.137 1289.5,854C 1272.4,851.614 1256.74,845.614 1242.5,836C 1226.2,820.602 1224.2,803.435 1236.5,784.5C 1240.8,783.339 1245.13,783.172 1249.5,784C 1269.55,787.076 1289.55,790.409 1309.5,794C 1324.5,796 1339.5,796 1354.5,794C 1365.94,791.949 1375.61,786.782 1383.5,778.5C 1374.97,765.435 1366.97,752.101 1359.5,738.5 Z"/></g>
<g><path style="opacity:1" fill="#f6e3cc" d="M 1848.5,627.5 C 1850.82,650.438 1855.82,672.772 1863.5,694.5C 1864.36,699.298 1865.03,704.131 1865.5,709C 1865.17,710.833 1864.83,712.667 1864.5,714.5C 1850.63,721.768 1836.3,727.935 1821.5,733C 1783.2,746.025 1768.04,732.858 1776,693.5C 1782.54,671.249 1795.71,654.082 1815.5,642C 1826.01,635.978 1837.01,631.144 1848.5,627.5 Z"/></g>
<g><path style="opacity:1" fill="#f6e3cc" d="M 1322.5,631.5 C 1322.93,639.275 1324.1,646.941 1326,654.5C 1333.58,683.985 1344.75,711.985 1359.5,738.5C 1359.49,740.017 1358.82,741.184 1357.5,742C 1325.22,756.195 1292.22,758.195 1258.5,748C 1229.15,736.455 1219.31,715.622 1229,685.5C 1237.56,668.611 1250.39,656.111 1267.5,648C 1284.93,639.356 1303.26,633.856 1322.5,631.5 Z"/></g>
<g><path style="opacity:1" fill="#231f20" d="M 1495.5,1062.5 C 1498.3,1071.37 1500.63,1080.37 1502.5,1089.5C 1506.01,1126.02 1526.01,1143.02 1562.5,1140.5C 1582.9,1140.45 1602.9,1137.62 1622.5,1132C 1637.31,1127.06 1651.98,1121.73 1666.5,1116C 1701.38,1099.73 1736.38,1083.73 1771.5,1068C 1782.07,1052.04 1786.57,1034.54 1785,1015.5C 1781.53,1002.21 1775.19,990.546 1766,980.5C 1730.67,941.46 1697,901.127 1665,859.5C 1639.72,825.622 1619.05,788.955 1603,749.5C 1591.02,717.913 1585.35,685.246 1586,651.5C 1593.65,645.646 1600.65,646.313 1607,653.5C 1612.24,664.248 1615.57,675.581 1617,687.5C 1626.78,709.721 1638.11,731.055 1651,751.5C 1687.88,806.729 1728.22,859.396 1772,909.5C 1792,933.5 1814,955.5 1838,975.5C 1843.75,981.497 1846.58,988.664 1846.5,997C 1845.99,1004.93 1844.82,1012.77 1843,1020.5C 1838.34,1033.82 1833.67,1047.16 1829,1060.5C 1827.33,1066.74 1826.16,1073.07 1825.5,1079.5C 1792.65,1101.1 1758.65,1120.93 1723.5,1139C 1654.38,1173.07 1581.38,1186.73 1504.5,1180C 1488.52,1164.55 1479.02,1145.71 1476,1123.5C 1472.24,1099.2 1477.58,1077.2 1492,1057.5C 1493.19,1059.23 1494.36,1060.9 1495.5,1062.5 Z"/></g>
<g><path style="opacity:1" fill="#ee3c39" d="M 408.5,908.5 C 348.735,970.688 298.235,1039.69 257,1115.5C 192.859,1235.17 147.859,1361.83 122,1495.5C 105.349,1580.54 94.8486,1666.21 90.5,1752.5C 53.6867,1469.47 110.52,1207.14 261,965.5C 313.643,883.813 375.643,809.48 447,742.5C 453.744,761.145 455.078,780.145 451,799.5C 444.783,810.38 437.783,820.714 430,830.5C 422.179,847.113 416.512,864.446 413,882.5C 411.564,891.232 410.064,899.899 408.5,908.5 Z"/></g>
<g><path style="opacity:1" fill="#d23732" d="M 2007.5,804.5 C 2192.81,1008.69 2294.31,1249.35 2312,1526.5C 2323.56,1766.59 2267.9,1989.59 2145,2195.5C 2104.91,2199.98 2065.74,2209.15 2027.5,2223C 1988.23,2237.63 1949.9,2254.47 1912.5,2273.5C 1964.13,2131.11 2010.96,1986.78 2053,1840.5C 2063.42,1810.49 2072.75,1780.16 2081,1749.5C 2087.12,1726.81 2088.79,1703.81 2086,1680.5C 2080.99,1666.14 2073.65,1653.14 2064,1641.5C 2053.17,1629.33 2041.67,1617.83 2029.5,1607C 1981.13,1564.29 1932.46,1521.96 1883.5,1480C 1872.1,1469.61 1862.6,1457.78 1855,1444.5C 1853.06,1438.51 1853.06,1432.51 1855,1426.5C 1860.04,1411.09 1866.71,1396.42 1875,1382.5C 1892,1356.16 1906.67,1328.5 1919,1299.5C 1966.94,1165.93 1995.28,1028.27 2004,886.5C 2006.04,859.202 2007.21,831.869 2007.5,804.5 Z"/></g>
<g><path style="opacity:1" fill="#f6e3cc" d="M 711.5,906.5 C 711.631,907.376 711.298,908.043 710.5,908.5C 683.624,893.564 655.291,882.23 625.5,874.5C 570.887,859.321 537.887,879.654 526.5,935.5C 526.833,936.5 527.167,937.5 527.5,938.5C 530.711,936.4 533.711,934.066 536.5,931.5C 531.336,955.147 526.169,978.813 521,1002.5C 510.304,1050.94 516.47,1096.94 539.5,1140.5C 529.492,1130.83 520.659,1120.16 513,1108.5C 480.603,1058.64 465.27,1003.97 467,944.5C 474.878,889.978 503.045,849.811 551.5,824C 582.729,809.722 614.729,807.722 647.5,818C 667.5,827.001 682.667,841.167 693,860.5C 701.123,875.075 707.29,890.408 711.5,906.5 Z"/></g>
<g><path style="opacity:1" fill="#242020" d="M 625.5,874.5 C 632.727,877.783 639.727,881.616 646.5,886C 689.695,920.905 705.528,965.738 694,1020.5C 690.034,1017.54 686.367,1014.2 683,1010.5C 673.156,992.814 663.823,974.814 655,956.5C 650.356,947.188 643.19,940.688 633.5,937C 620.641,934.183 610.808,938.349 604,949.5C 596.58,964.255 592.58,979.922 592,996.5C 591.5,1015.5 591.333,1034.5 591.5,1053.5C 591.825,1061.02 591.492,1068.35 590.5,1075.5C 587.675,1071.86 584.842,1068.2 582,1064.5C 569.893,1039.77 564.06,1013.61 564.5,986C 563.672,962.152 568.006,939.318 577.5,917.5C 575.997,915.578 573.997,914.412 571.5,914C 566.833,913.333 562.167,913.333 557.5,914C 549.141,918.191 542.141,924.024 536.5,931.5C 533.711,934.066 530.711,936.4 527.5,938.5C 527.167,937.5 526.833,936.5 526.5,935.5C 537.887,879.654 570.887,859.321 625.5,874.5 Z"/></g>
<g><path style="opacity:1" fill="#d23732" d="M 408.5,908.5 C 401.478,1003.12 423.644,1090.12 475,1169.5C 513.129,1221.33 563.962,1252.99 627.5,1264.5C 632.348,1325.89 652.514,1381.56 688,1431.5C 693.135,1440.1 697.468,1449.1 701,1458.5C 706.265,1472.19 705.598,1485.52 699,1498.5C 687.293,1509.54 674.46,1519.04 660.5,1527C 587.675,1568.24 515.342,1610.24 443.5,1653C 415.953,1670.55 388.953,1688.88 362.5,1708C 338.469,1720.68 314.469,1733.35 290.5,1746C 262.018,1764.48 250.518,1790.65 256,1824.5C 261.305,1853.12 268.972,1881.12 279,1908.5C 294.454,1948.86 309.121,1989.53 323,2030.5C 336.944,2065.39 350.611,2100.39 364,2135.5C 380.096,2185.22 392.429,2235.88 401,2287.5C 408.269,2327.92 413.269,2368.59 416,2409.5C 257.628,2248.82 153.961,2057.49 105,1835.5C 99.3644,1807.96 94.5311,1780.29 90.5,1752.5C 94.8486,1666.21 105.349,1580.54 122,1495.5C 147.859,1361.83 192.859,1235.17 257,1115.5C 298.235,1039.69 348.735,970.688 408.5,908.5 Z"/></g>
<g><path style="opacity:1" fill="#f6e3cc" d="M 1502.5,1089.5 C 1500.63,1080.37 1498.3,1071.37 1495.5,1062.5C 1498.15,1044.56 1502.99,1027.22 1510,1010.5C 1513.74,1002.43 1519.24,995.932 1526.5,991C 1549.2,992.473 1563.7,1004.31 1570,1026.5C 1570.56,1029.15 1571.06,1031.82 1571.5,1034.5C 1571.61,1036.37 1570.94,1037.87 1569.5,1039C 1545.7,1053.9 1523.37,1070.73 1502.5,1089.5 Z"/></g>
<g><path style="opacity:1" fill="#a89682" d="M 591.5,1053.5 C 592.82,1061.01 592.82,1068.68 591.5,1076.5C 590.893,1076.38 590.56,1076.04 590.5,1075.5C 591.492,1068.35 591.825,1061.02 591.5,1053.5 Z"/></g>
<g><path style="opacity:1" fill="#231f20" d="M 1879.5,1135.5 C 1864.21,1168.72 1844.38,1199.38 1820,1227.5C 1779.13,1273.08 1727.96,1296.42 1666.5,1297.5C 1664.87,1275.19 1664.37,1252.86 1665,1230.5C 1665.25,1227.15 1666.08,1223.98 1667.5,1221C 1716.8,1214.19 1763.13,1198.52 1806.5,1174C 1830.61,1160.61 1854.94,1147.78 1879.5,1135.5 Z"/></g>
<g><path style="opacity:1" fill="#f6e3cc" d="M 966.5,1625.5 C 932.166,1620.67 899.499,1610.5 868.5,1595C 844.636,1581.81 824.469,1564.31 808,1542.5C 768.505,1480.07 737.838,1413.4 716,1342.5C 706.487,1314.45 699.487,1285.78 695,1256.5C 694.333,1249.17 694.333,1241.83 695,1234.5C 697.65,1227.87 701.316,1221.87 706,1216.5C 714,1208.5 722,1200.5 730,1192.5C 738.173,1183.99 742.673,1173.82 743.5,1162C 743.376,1155.54 742.042,1149.38 739.5,1143.5C 739.735,1142.9 740.235,1142.57 741,1142.5C 755.058,1146.89 764.058,1156.23 768,1170.5C 771.183,1201.3 775.183,1231.96 780,1262.5C 791.853,1331.58 812.52,1397.91 842,1461.5C 871.884,1524.9 913.384,1579.56 966.5,1625.5 Z"/></g>
<g><path style="opacity:1" fill="#242020" d="M 1319.5,1184.5 C 1346.15,1197.66 1374.15,1206.83 1403.5,1212C 1443.82,1219.43 1484.49,1223.76 1525.5,1225C 1561.5,1225.17 1597.5,1225.67 1633.5,1226.5C 1635.96,1234.64 1637.46,1242.98 1638,1251.5C 1639.22,1268.48 1639.72,1285.48 1639.5,1302.5C 1566.26,1306.76 1494.93,1297.26 1425.5,1274C 1398.49,1264.34 1374.15,1250.34 1352.5,1232C 1337.91,1218.64 1326.91,1202.8 1319.5,1184.5 Z"/></g>
<g><path style="opacity:1" fill="#f6e3cc" d="M 1225.5,1206.5 C 1245.22,1206.06 1263.89,1210.23 1281.5,1219C 1263.67,1224.83 1250.84,1236.33 1243,1253.5C 1234.93,1273.37 1231.77,1294.04 1233.5,1315.5C 1225.58,1314.65 1218.08,1312.65 1211,1309.5C 1205.25,1287.08 1200.92,1264.42 1198,1241.5C 1197.33,1234.83 1197.33,1228.17 1198,1221.5C 1200.63,1215.54 1205.13,1211.7 1211.5,1210C 1216.34,1209 1221.01,1207.84 1225.5,1206.5 Z"/></g>
<g><path style="opacity:1" fill="#231f20" d="M 1668.5,1369.5 C 1673.69,1369.18 1678.69,1369.51 1683.5,1370.5C 1676.09,1391.41 1662.09,1405.91 1641.5,1414C 1589.29,1429.53 1535.96,1435.53 1481.5,1432C 1456.02,1430.31 1431.35,1424.98 1407.5,1416C 1388.06,1406.68 1371.23,1393.85 1357,1377.5C 1338.9,1354.73 1321.56,1331.4 1305,1307.5C 1295.3,1298.14 1285.97,1288.47 1277,1278.5C 1275.24,1275.55 1274.07,1272.38 1273.5,1269C 1273.7,1266.59 1274.7,1264.59 1276.5,1263C 1285.49,1257.91 1295.16,1256.24 1305.5,1258C 1322.81,1297.97 1351.47,1326.64 1391.5,1344C 1432.28,1359.96 1474.61,1368.62 1518.5,1370C 1535.65,1370.94 1552.82,1371.44 1570,1371.5C 1602.84,1370.93 1635.67,1370.27 1668.5,1369.5 Z"/></g>
<g><path style="opacity:1" fill="#685c52" d="M 1668.5,1369.5 C 1673.68,1368.19 1679.01,1368.19 1684.5,1369.5C 1684.38,1370.11 1684.04,1370.44 1683.5,1370.5C 1678.69,1369.51 1673.69,1369.18 1668.5,1369.5 Z"/></g>
<g><path style="opacity:1" fill="#48718a" d="M 2016.5,1768.5 C 2014.22,1768.39 2012.22,1767.56 2010.5,1766C 1944.24,1715.9 1877.57,1666.4 1810.5,1617.5C 1803.83,1606.06 1795.17,1596.23 1784.5,1588C 1776.22,1582.74 1767.22,1579.57 1757.5,1578.5C 1752.31,1574.4 1747.31,1570.07 1742.5,1565.5C 1754.31,1555.86 1766.31,1546.36 1778.5,1537C 1787.41,1528.09 1796.08,1519.42 1804.5,1511C 1818.13,1522.29 1831.46,1533.96 1844.5,1546C 1872.53,1574.36 1900.86,1602.36 1929.5,1630C 1948.17,1644.67 1966.83,1659.33 1985.5,1674C 1998.67,1685.5 2009.17,1699 2017,1714.5C 2020.27,1724.26 2021.27,1734.26 2020,1744.5C 2018.51,1752.46 2017.34,1760.46 2016.5,1768.5 Z"/></g>
<g><path style="opacity:1" fill="#324e5f" d="M 1742.5,1565.5 C 1747.31,1570.07 1752.31,1574.4 1757.5,1578.5C 1745.81,1577.64 1734.81,1579.97 1724.5,1585.5C 1724.17,1585.17 1723.83,1584.83 1723.5,1584.5C 1728.85,1577.15 1735.19,1570.81 1742.5,1565.5 Z"/></g>
<g><path style="opacity:1" fill="#48718a" d="M 818.5,1664.5 C 698.644,1718.26 578.644,1771.76 458.5,1825C 451.795,1827.78 445.462,1831.11 439.5,1835C 483.037,2010.07 515.537,2187.24 537,2366.5C 548.105,2455.27 550.438,2544.27 544,2633.5C 541.638,2653.74 538.138,2673.74 533.5,2693.5C 522.4,2688.45 511.4,2683.12 500.5,2677.5C 496.461,2538.86 482.961,2401.2 460,2264.5C 442.34,2162.86 417.007,2063.19 384,1965.5C 367.457,1918.54 348.957,1872.37 328.5,1827C 408.952,1761.58 493.619,1701.91 582.5,1648C 629.923,1619.96 679.256,1595.62 730.5,1575C 732.5,1574.33 734.5,1574.33 736.5,1575C 745.934,1582.43 754.768,1590.6 763,1599.5C 782.085,1620.74 800.585,1642.41 818.5,1664.5 Z"/></g>
<g><path style="opacity:1" fill="#324f60" d="M 1810.5,1617.5 C 1877.57,1666.4 1944.24,1715.9 2010.5,1766C 2012.22,1767.56 2014.22,1768.39 2016.5,1768.5C 1998.88,1860.96 1974.38,1951.63 1943,2040.5C 1917.08,2114.28 1888.41,2186.94 1857,2258.5C 1852.31,2266.86 1846.48,2274.36 1839.5,2281C 1819.16,2289.95 1797.82,2294.62 1775.5,2295C 1747.77,2294.88 1720.1,2295.88 1692.5,2298C 1686.09,2298.95 1679.75,2300.28 1673.5,2302C 1664.91,2305.14 1656.58,2308.48 1648.5,2312C 1704.27,2219.24 1760.44,2126.74 1817,2034.5C 1831.75,2009.33 1846.25,1984 1860.5,1958.5C 1858.1,1952.7 1854.94,1947.37 1851,1942.5C 1843.33,1934.17 1835.67,1925.83 1828,1917.5C 1823.49,1911.48 1820.32,1904.81 1818.5,1897.5C 1832.19,1863.55 1839.69,1828.22 1841,1791.5C 1843.62,1742.82 1837.96,1695.15 1824,1648.5C 1820.04,1637.91 1815.54,1627.58 1810.5,1617.5 Z"/></g>
<g><path style="opacity:1" fill="#ed3c39" d="M 1783.5,1690.5 C 1783.5,1691.5 1783.5,1692.5 1783.5,1693.5C 1780.5,1693.5 1777.5,1693.5 1774.5,1693.5C 1748.58,1691.91 1722.92,1694.41 1697.5,1701C 1682.18,1704.01 1671.35,1712.51 1665,1726.5C 1664.46,1729.53 1663.79,1732.53 1663,1735.5C 1662.87,1747.85 1663.37,1760.18 1664.5,1772.5C 1664.61,1776.55 1664.27,1780.55 1663.5,1784.5C 1660.98,1793.84 1655.65,1801.01 1647.5,1806C 1635.19,1808.53 1622.85,1810.86 1610.5,1813C 1596.35,1817.46 1591.18,1826.96 1595,1841.5C 1596.06,1845.45 1597.56,1849.12 1599.5,1852.5C 1600.21,1855.59 1601.21,1858.59 1602.5,1861.5C 1595.09,1860.15 1587.76,1858.48 1580.5,1856.5C 1582.83,1840.22 1583.16,1823.89 1581.5,1807.5C 1581.45,1802.1 1581.95,1796.77 1583,1791.5C 1590.35,1786.27 1598.52,1782.77 1607.5,1781C 1622.07,1778.55 1636.74,1776.89 1651.5,1776C 1627.13,1764.62 1601.8,1761.79 1575.5,1767.5C 1575.42,1763.12 1574.92,1758.79 1574,1754.5C 1571.06,1746.34 1567.72,1738.34 1564,1730.5C 1563.32,1729.22 1563.48,1728.05 1564.5,1727C 1573.45,1722.86 1582.12,1718.19 1590.5,1713C 1614.82,1696.17 1639.49,1679.84 1664.5,1664C 1682.27,1653.28 1701.27,1645.61 1721.5,1641C 1750.58,1636.28 1769.74,1647.78 1779,1675.5C 1780.81,1680.43 1782.31,1685.43 1783.5,1690.5 Z"/></g>
<g><path style="opacity:1" fill="#eed4b5" d="M 1593.5,1644.5 C 1596.19,1644.34 1598.85,1644.5 1601.5,1645C 1593.66,1650.09 1585.99,1655.42 1578.5,1661C 1557.64,1678.02 1536.64,1694.86 1515.5,1711.5C 1464.35,1718.27 1417.68,1707.1 1375.5,1678C 1371.66,1674.99 1367.99,1671.82 1364.5,1668.5C 1366.5,1667.17 1368.5,1665.83 1370.5,1664.5C 1382.39,1669.39 1394.72,1672.56 1407.5,1674C 1424.18,1674.66 1440.85,1674.32 1457.5,1673C 1472.21,1670.66 1486.87,1667.99 1501.5,1665C 1532.14,1657.5 1562.81,1650.67 1593.5,1644.5 Z"/></g>
<g><path style="opacity:1" fill="#fdfdfd" d="M 1056.5,1717.5 C 1034.77,1716.57 1013.43,1713.07 992.5,1707C 961.952,1698.32 931.952,1688.15 902.5,1676.5C 895.937,1670.65 893.437,1663.31 895,1654.5C 896.308,1651.21 898.308,1648.54 901,1646.5C 915.693,1655.18 931.526,1660.68 948.5,1663C 987.119,1667.4 1025.79,1671.23 1064.5,1674.5C 1064.69,1680.89 1064.19,1687.22 1063,1693.5C 1060.51,1701.45 1058.35,1709.45 1056.5,1717.5 Z"/></g>
<g><path style="opacity:1" fill="#ed3c39" d="M 1339.5,1807.5 C 1338.96,1807.56 1338.62,1807.89 1338.5,1808.5C 1340.74,1809.47 1343.08,1809.81 1345.5,1809.5C 1375.04,1810.72 1403.04,1817.88 1429.5,1831C 1430.38,1832.36 1430.71,1833.86 1430.5,1835.5C 1426.09,1836.6 1421.76,1837.6 1417.5,1838.5C 1400.33,1841.1 1383.67,1839.27 1367.5,1833C 1358.34,1827.98 1349.34,1822.81 1340.5,1817.5C 1336.86,1814.69 1333.7,1811.36 1331,1807.5C 1330.5,1805.19 1330.34,1802.86 1330.5,1800.5C 1333.86,1794.45 1336.69,1788.11 1339,1781.5C 1340.95,1769.91 1338.12,1759.74 1330.5,1751C 1304.49,1740.08 1277.49,1732.75 1249.5,1729C 1223.83,1728.26 1198.17,1727.93 1172.5,1728C 1149.08,1728.61 1135.58,1740.45 1132,1763.5C 1131.83,1770.33 1131.67,1777.17 1131.5,1784C 1135.02,1839.54 1139.02,1895.04 1143.5,1950.5C 1144.8,1958.46 1145.3,1966.46 1145,1974.5C 1143.61,1971.03 1141.78,1968.03 1139.5,1965.5C 1125.5,1932 1114,1897.67 1105,1862.5C 1100.79,1833 1098.96,1803.33 1099.5,1773.5C 1097.76,1745.79 1101.26,1718.79 1110,1692.5C 1116.05,1676.44 1127.22,1665.94 1143.5,1661C 1156.01,1660.47 1168.34,1661.81 1180.5,1665C 1235.72,1678.3 1288.39,1698.3 1338.5,1725C 1354.17,1735.17 1370.17,1744.84 1386.5,1754C 1398.96,1759.39 1411.96,1762.56 1425.5,1763.5C 1424.97,1769.5 1424.3,1775.5 1423.5,1781.5C 1416.12,1785.35 1408.45,1788.52 1400.5,1791C 1379.67,1794.79 1359.34,1800.29 1339.5,1807.5 Z"/></g>
<g><path style="opacity:1" fill="#324f60" d="M 818.5,1664.5 C 824.603,1671.1 830.937,1677.6 837.5,1684C 869.343,1705.43 902.343,1725.1 936.5,1743C 978.14,1763.74 1019.64,1784.57 1061,1805.5C 1069.03,1852.63 1080.36,1898.96 1095,1944.5C 1101.93,1967.3 1109.27,1989.97 1117,2012.5C 1123.52,2031.98 1134.35,2048.48 1149.5,2062C 1161.65,2070.14 1174.98,2072.8 1189.5,2070C 1200.39,2067.65 1210.72,2063.81 1220.5,2058.5C 1219.41,2066.25 1216.57,2073.58 1212,2080.5C 1204.05,2092.11 1195.72,2103.45 1187,2114.5C 1180.2,2123.93 1176.37,2134.43 1175.5,2146C 1175.28,2155.17 1177.45,2163.67 1182,2171.5C 1186.53,2176.37 1191.37,2180.87 1196.5,2185C 1225.69,2203.6 1256.35,2219.6 1288.5,2233C 1341.44,2261.8 1396.1,2286.8 1452.5,2308C 1335.24,2311.38 1218.24,2318.72 1101.5,2330C 1051.81,2335.42 1002.14,2340.92 952.5,2346.5C 952.667,2263.17 952.5,2179.83 952,2096.5C 935.635,2076.64 919.135,2056.98 902.5,2037.5C 898.261,2027.59 891.261,2025.09 881.5,2030C 873.422,2038.54 868.589,2048.71 867,2060.5C 864.537,2079.08 863.87,2097.75 865,2116.5C 867.079,2141.86 869.412,2167.19 872,2192.5C 875.22,2225.84 875.22,2259.17 872,2292.5C 869.724,2307.61 865.891,2322.27 860.5,2336.5C 851.987,2334.75 843.987,2331.58 836.5,2327C 822.225,2317.72 808.225,2308.06 794.5,2298C 787.731,2293.45 780.398,2290.28 772.5,2288.5C 768.12,2303.1 770.954,2316.1 781,2327.5C 787.524,2332.68 792.524,2339.02 796,2346.5C 798.512,2358.98 794.012,2367.81 782.5,2373C 771.259,2376.03 759.925,2378.7 748.5,2381C 732.834,2386.16 725.501,2396.99 726.5,2413.5C 725.549,2412.08 725.216,2410.41 725.5,2408.5C 716.441,2408.15 707.441,2408.65 698.5,2410C 717.167,2423 735.833,2436 754.5,2449C 797.407,2456.41 840.407,2463.25 883.5,2469.5C 883.5,2467.83 883.5,2466.17 883.5,2464.5C 896.03,2585.43 911.53,2706.1 930,2826.5C 930.499,2830.49 930.666,2834.49 930.5,2838.5C 867.725,2835.74 807.058,2822.91 748.5,2800C 724.482,2790.49 700.816,2780.16 677.5,2769C 629.087,2744.37 581.087,2719.21 533.5,2693.5C 538.138,2673.74 541.638,2653.74 544,2633.5C 550.438,2544.27 548.105,2455.27 537,2366.5C 515.537,2187.24 483.037,2010.07 439.5,1835C 445.462,1831.11 451.795,1827.78 458.5,1825C 578.644,1771.76 698.644,1718.26 818.5,1664.5 Z"/></g>
<g><path style="opacity:1" fill="#d9d6d5" d="M 902.5,1676.5 C 931.952,1688.15 961.952,1698.32 992.5,1707C 1013.43,1713.07 1034.77,1716.57 1056.5,1717.5C 1054.47,1724.66 1053.47,1731.99 1053.5,1739.5C 1007.55,1733.19 964.551,1718.36 924.5,1695C 916.39,1689.72 909.057,1683.55 902.5,1676.5 Z"/></g>
<g><path style="opacity:1" fill="#010000" d="M 1774.5,1693.5 C 1788.17,1743.05 1792.34,1793.38 1787,1844.5C 1784.89,1855.17 1781.39,1865.34 1776.5,1875C 1716.69,1873.72 1657.69,1866.22 1599.5,1852.5C 1597.56,1849.12 1596.06,1845.45 1595,1841.5C 1591.18,1826.96 1596.35,1817.46 1610.5,1813C 1622.85,1810.86 1635.19,1808.53 1647.5,1806C 1655.65,1801.01 1660.98,1793.84 1663.5,1784.5C 1670.6,1784.43 1677.6,1783.6 1684.5,1782C 1677.76,1778.92 1671.09,1775.76 1664.5,1772.5C 1663.37,1760.18 1662.87,1747.85 1663,1735.5C 1663.79,1732.53 1664.46,1729.53 1665,1726.5C 1671.35,1712.51 1682.18,1704.01 1697.5,1701C 1722.92,1694.41 1748.58,1691.91 1774.5,1693.5 Z"/></g>
<g><path style="opacity:1" fill="#cc3631" d="M 1783.5,1690.5 C 1795.37,1733.57 1800.54,1777.57 1799,1822.5C 1798.79,1844.03 1793.29,1864.03 1782.5,1882.5C 1732.79,1882.5 1683.46,1878 1634.5,1869C 1623.59,1866.96 1612.92,1864.46 1602.5,1861.5C 1601.21,1858.59 1600.21,1855.59 1599.5,1852.5C 1657.69,1866.22 1716.69,1873.72 1776.5,1875C 1781.39,1865.34 1784.89,1855.17 1787,1844.5C 1792.34,1793.38 1788.17,1743.05 1774.5,1693.5C 1777.5,1693.5 1780.5,1693.5 1783.5,1693.5C 1783.5,1692.5 1783.5,1691.5 1783.5,1690.5 Z"/></g>
<g><path style="opacity:1" fill="#000000" d="M 1330.5,1800.5 C 1321.35,1805.58 1312.02,1810.41 1302.5,1815C 1315.16,1816.09 1327.82,1816.93 1340.5,1817.5C 1349.34,1822.81 1358.34,1827.98 1367.5,1833C 1383.67,1839.27 1400.33,1841.1 1417.5,1838.5C 1418.5,1838.5 1419.5,1838.5 1420.5,1838.5C 1420.67,1848.51 1420.5,1858.51 1420,1868.5C 1395.63,1886.53 1372.13,1905.7 1349.5,1926C 1332.28,1940.55 1313.94,1953.55 1294.5,1965C 1258.05,1983.71 1219.72,1997.04 1179.5,2005C 1175.17,2005.67 1170.83,2005.67 1166.5,2005C 1163.27,2003.06 1161.1,2000.22 1160,1996.5C 1155.56,1980.67 1150.06,1965.34 1143.5,1950.5C 1139.02,1895.04 1135.02,1839.54 1131.5,1784C 1131.67,1777.17 1131.83,1770.33 1132,1763.5C 1135.58,1740.45 1149.08,1728.61 1172.5,1728C 1198.17,1727.93 1223.83,1728.26 1249.5,1729C 1277.49,1732.75 1304.49,1740.08 1330.5,1751C 1338.12,1759.74 1340.95,1769.91 1339,1781.5C 1336.69,1788.11 1333.86,1794.45 1330.5,1800.5 Z"/></g>
<g><path style="opacity:1" fill="#ec3c39" d="M 1499.5,1749.5 C 1500.01,1756.45 1500.01,1763.45 1499.5,1770.5C 1495.89,1789.1 1486.55,1804.1 1471.5,1815.5C 1468.67,1817.75 1465.67,1819.75 1462.5,1821.5C 1456.71,1802.55 1454.71,1783.22 1456.5,1763.5C 1464.5,1758 1473.16,1753.84 1482.5,1751C 1488.09,1749.71 1493.76,1749.21 1499.5,1749.5 Z"/></g>
<g><path style="opacity:1" fill="#cc3631" d="M 1499.5,1749.5 C 1516.67,1751.51 1528.5,1760.51 1535,1776.5C 1543.55,1800.29 1539.05,1821.13 1521.5,1839C 1504.11,1849.83 1485.94,1851.33 1467,1843.5C 1466.07,1836 1464.57,1828.67 1462.5,1821.5C 1465.67,1819.75 1468.67,1817.75 1471.5,1815.5C 1472.67,1822.52 1474.01,1829.52 1475.5,1836.5C 1513.9,1843.61 1531.73,1827.61 1529,1788.5C 1526.46,1774.56 1518.63,1765.06 1505.5,1760C 1503.87,1759.51 1502.2,1759.34 1500.5,1759.5C 1500.81,1763.37 1500.48,1767.04 1499.5,1770.5C 1500.01,1763.45 1500.01,1756.45 1499.5,1749.5 Z"/></g>
<g><path style="opacity:1" fill="#020000" d="M 1471.5,1815.5 C 1486.55,1804.1 1495.89,1789.1 1499.5,1770.5C 1500.48,1767.04 1500.81,1763.37 1500.5,1759.5C 1502.2,1759.34 1503.87,1759.51 1505.5,1760C 1518.63,1765.06 1526.46,1774.56 1529,1788.5C 1531.73,1827.61 1513.9,1843.61 1475.5,1836.5C 1474.01,1829.52 1472.67,1822.52 1471.5,1815.5 Z"/></g>
<g><path style="opacity:1" fill="#cc3631" d="M 1664.5,1772.5 C 1671.09,1775.76 1677.76,1778.92 1684.5,1782C 1677.6,1783.6 1670.6,1784.43 1663.5,1784.5C 1664.27,1780.55 1664.61,1776.55 1664.5,1772.5 Z"/></g>
<g><path style="opacity:1" fill="#ca3531" d="M 1330.5,1800.5 C 1330.34,1802.86 1330.5,1805.19 1331,1807.5C 1333.7,1811.36 1336.86,1814.69 1340.5,1817.5C 1327.82,1816.93 1315.16,1816.09 1302.5,1815C 1312.02,1810.41 1321.35,1805.58 1330.5,1800.5 Z"/></g>
<g><path style="opacity:1" fill="#97302e" d="M 1339.5,1807.5 C 1341.5,1808.17 1343.5,1808.83 1345.5,1809.5C 1343.08,1809.81 1340.74,1809.47 1338.5,1808.5C 1338.62,1807.89 1338.96,1807.56 1339.5,1807.5 Z"/></g>
<g><path style="opacity:1" fill="#cd3631" d="M 1430.5,1835.5 C 1430.08,1848.5 1429.58,1861.5 1429,1874.5C 1394.83,1902 1360.67,1929.5 1326.5,1957C 1300.9,1974.63 1273.23,1988.3 1243.5,1998C 1220.65,2006.75 1197.15,2012.59 1173,2015.5C 1169.65,2015.5 1166.48,2015.16 1163.5,2014.5C 1164.38,2014.63 1165.04,2014.3 1165.5,2013.5C 1159.2,2000.71 1152.7,1988.04 1146,1975.5C 1145.7,1978.51 1145.87,1981.51 1146.5,1984.5C 1143.99,1978.31 1141.66,1971.98 1139.5,1965.5C 1141.78,1968.03 1143.61,1971.03 1145,1974.5C 1145.3,1966.46 1144.8,1958.46 1143.5,1950.5C 1150.06,1965.34 1155.56,1980.67 1160,1996.5C 1161.1,2000.22 1163.27,2003.06 1166.5,2005C 1170.83,2005.67 1175.17,2005.67 1179.5,2005C 1219.72,1997.04 1258.05,1983.71 1294.5,1965C 1313.94,1953.55 1332.28,1940.55 1349.5,1926C 1372.13,1905.7 1395.63,1886.53 1420,1868.5C 1420.5,1858.51 1420.67,1848.51 1420.5,1838.5C 1419.5,1838.5 1418.5,1838.5 1417.5,1838.5C 1421.76,1837.6 1426.09,1836.6 1430.5,1835.5 Z"/></g>
<g><path style="opacity:1" fill="#dbd8d7" d="M 1633.5,1922.5 C 1636.62,1923.48 1639.96,1923.81 1643.5,1923.5C 1643.5,1924.5 1643.5,1925.5 1643.5,1926.5C 1642.86,1940.5 1642.19,1954.5 1641.5,1968.5C 1611.71,1952.61 1581.38,1937.77 1550.5,1924C 1543.61,1922.66 1537.28,1923.99 1531.5,1928C 1517.83,1938.18 1508.16,1951.35 1502.5,1967.5C 1504.62,1977.35 1507.45,1987.02 1511,1996.5C 1530.35,2043.88 1551.35,2090.54 1574,2136.5C 1588.33,2165.17 1602.67,2193.83 1617,2222.5C 1617.38,2221.94 1617.88,2221.61 1618.5,2221.5C 1615.47,2234.99 1611.81,2248.33 1607.5,2261.5C 1596.88,2242.6 1587.05,2223.27 1578,2203.5C 1552.1,2143.03 1525.1,2083.03 1497,2023.5C 1479.12,1987.54 1457.62,1954.04 1432.5,1923C 1440.5,1914 1448.5,1905 1456.5,1896C 1471.9,1900.31 1486.9,1898.97 1501.5,1892C 1509.05,1888.06 1516.71,1884.39 1524.5,1881C 1535.3,1877.48 1545.96,1877.81 1556.5,1882C 1560.83,1884.33 1565.17,1886.67 1569.5,1889C 1585.07,1901.62 1602.07,1911.95 1620.5,1920C 1624.82,1921 1629.15,1921.83 1633.5,1922.5 Z"/></g>
<g><path style="opacity:1" fill="#80afc3" d="M 1709.5,1915.5 C 1758.24,1913.37 1795.24,1933.03 1820.5,1974.5C 1783.01,2040.16 1744.51,2105.16 1705,2169.5C 1682.14,2205.22 1657.81,2239.88 1632,2273.5C 1652,2198.5 1664.66,2122.17 1670,2044.5C 1673.21,2004.84 1676.04,1965.18 1678.5,1925.5C 1688.6,1921.07 1698.93,1917.73 1709.5,1915.5 Z"/></g>
<g><path style="opacity:1" fill="#787474" d="M 1633.5,1922.5 C 1637.17,1922.5 1640.83,1922.5 1644.5,1922.5C 1644.77,1924.1 1644.43,1925.43 1643.5,1926.5C 1643.5,1925.5 1643.5,1924.5 1643.5,1923.5C 1639.96,1923.81 1636.62,1923.48 1633.5,1922.5 Z"/></g>
<g><path style="opacity:1" fill="#fefefe" d="M 1641.5,1968.5 C 1639.94,2032.68 1635.77,2096.68 1629,2160.5C 1626.15,2180.95 1622.65,2201.29 1618.5,2221.5C 1617.88,2221.61 1617.38,2221.94 1617,2222.5C 1602.67,2193.83 1588.33,2165.17 1574,2136.5C 1551.35,2090.54 1530.35,2043.88 1511,1996.5C 1507.45,1987.02 1504.62,1977.35 1502.5,1967.5C 1508.16,1951.35 1517.83,1938.18 1531.5,1928C 1537.28,1923.99 1543.61,1922.66 1550.5,1924C 1581.38,1937.77 1611.71,1952.61 1641.5,1968.5 Z"/></g>
<g><path style="opacity:1" fill="#1e1a1a" d="M 1554.5,1948.5 C 1570.11,1946.38 1580.28,1952.71 1585,1967.5C 1585.32,1987.51 1575.49,1997.01 1555.5,1996C 1539.02,1989.2 1533.85,1977.37 1540,1960.5C 1543.85,1955.18 1548.68,1951.18 1554.5,1948.5 Z"/></g>
<g><path style="opacity:1" fill="#80afc3" d="M 1230.5,2131.5 C 1229.7,2129.96 1229.37,2128.29 1229.5,2126.5C 1231.16,2124.56 1231.83,2122.23 1231.5,2119.5C 1244.13,2083.11 1265.13,2052.27 1294.5,2027C 1311.26,2012.9 1328.6,1999.57 1346.5,1987C 1362.67,1976.75 1378.67,1966.25 1394.5,1955.5C 1409.33,1973.5 1422.83,1992.5 1435,2012.5C 1463.42,2060.33 1488.42,2110 1510,2161.5C 1526.13,2199.42 1541.96,2237.42 1557.5,2275.5C 1480.46,2251.87 1405.79,2222.04 1333.5,2186C 1298.75,2168.37 1264.42,2150.2 1230.5,2131.5 Z"/></g>
<g><path style="opacity:1" fill="#ea3c39" d="M 1163.5,2014.5 C 1160.11,2013.38 1157.28,2011.38 1155,2008.5C 1150.86,2000.92 1148.03,1992.92 1146.5,1984.5C 1145.87,1981.51 1145.7,1978.51 1146,1975.5C 1152.7,1988.04 1159.2,2000.71 1165.5,2013.5C 1165.04,2014.3 1164.38,2014.63 1163.5,2014.5 Z"/></g>
<g><path style="opacity:1" fill="#48718a" d="M 902.5,2037.5 C 919.135,2056.98 935.635,2076.64 952,2096.5C 952.5,2179.83 952.667,2263.17 952.5,2346.5C 938.71,2349.18 924.71,2351.02 910.5,2352C 902.047,2337.7 897.547,2322.2 897,2305.5C 896.333,2265.83 896.333,2226.17 897,2186.5C 899.333,2154.17 901.666,2121.84 904,2089.5C 905.044,2072.08 904.544,2054.75 902.5,2037.5 Z"/></g>
<g><path style="opacity:1" fill="#1e1a1a" d="M 1580.5,2060.5 C 1594.46,2059.56 1603.96,2065.56 1609,2078.5C 1609.98,2100.45 1599.48,2110.28 1577.5,2108C 1562.84,2100.52 1558.34,2089.02 1564,2073.5C 1567.94,2067.05 1573.44,2062.71 1580.5,2060.5 Z"/></g>
<g><path style="opacity:1" fill="#a75453" d="M 1231.5,2119.5 C 1231.83,2122.23 1231.16,2124.56 1229.5,2126.5C 1229.41,2123.85 1230.08,2121.51 1231.5,2119.5 Z"/></g>
<g><path style="opacity:1" fill="#9a3f3d" d="M 1229.5,2126.5 C 1229.37,2128.29 1229.7,2129.96 1230.5,2131.5C 1229.35,2131.21 1228.68,2130.38 1228.5,2129C 1228.53,2127.93 1228.86,2127.1 1229.5,2126.5 Z"/></g>
<g><path style="opacity:1" fill="#fefefe" d="M 2268.5,2420.5 C 2266.85,2479.27 2253.18,2535.1 2227.5,2588C 2215.17,2588.67 2202.83,2588.67 2190.5,2588C 2113.51,2583.97 2036.51,2580.14 1959.5,2576.5C 1949.66,2499.49 1937.66,2422.82 1923.5,2346.5C 1939.01,2337.08 1955.35,2329.24 1972.5,2323C 2009.39,2310.59 2046.06,2297.59 2082.5,2284C 2099.24,2276.46 2115.57,2268.13 2131.5,2259C 2151.09,2253.92 2169.75,2256.26 2187.5,2266C 2217.76,2283.62 2237.59,2309.46 2247,2343.5C 2255.57,2368.79 2262.74,2394.46 2268.5,2420.5 Z"/></g>
<g><path style="opacity:1" fill="#dbd8d7" d="M 1923.5,2346.5 C 1937.66,2422.82 1949.66,2499.49 1959.5,2576.5C 2036.51,2580.14 2113.51,2583.97 2190.5,2588C 2202.83,2588.67 2215.17,2588.67 2227.5,2588C 2253.18,2535.1 2266.85,2479.27 2268.5,2420.5C 2277.39,2455.14 2285.22,2490.14 2292,2525.5C 2297.95,2573.2 2286.62,2616.2 2258,2654.5C 2233.97,2682.26 2203.47,2697.43 2166.5,2700C 2136.6,2704.33 2106.6,2705.33 2076.5,2703C 2062.53,2701.94 2049.2,2698.61 2036.5,2693C 2051.71,2685.15 2067.71,2679.48 2084.5,2676C 2113.89,2670.55 2143.22,2664.88 2172.5,2659C 2175.44,2657.85 2178.44,2656.85 2181.5,2656C 2165.77,2649.65 2149.43,2645.65 2132.5,2644C 2119.18,2643.11 2105.85,2642.61 2092.5,2642.5C 2057.12,2643.88 2021.79,2646.04 1986.5,2649C 1970.17,2649.5 1953.84,2649.67 1937.5,2649.5C 1932.46,2571 1923.3,2493 1910,2415.5C 1905.68,2398.91 1902.02,2382.24 1899,2365.5C 1906.2,2357.83 1914.37,2351.49 1923.5,2346.5 Z"/></g>
<g><path style="opacity:1" fill="#252122" d="M 2126.5,2348.5 C 2131.51,2348.33 2136.51,2348.5 2141.5,2349C 2127.7,2353.16 2114.37,2358.49 2101.5,2365C 2082.5,2375.83 2063.83,2387.16 2045.5,2399C 2028.04,2409.6 2009.37,2417.27 1989.5,2422C 1981.53,2423.61 1973.53,2423.78 1965.5,2422.5C 1983.66,2398.51 2006.66,2380.68 2034.5,2369C 2064.26,2357.55 2094.93,2350.71 2126.5,2348.5 Z"/></g>
<g><path style="opacity:1" fill="#fefefe" d="M 1891.5,2579.5 C 1891.5,2582.5 1891.5,2585.5 1891.5,2588.5C 1880.69,2591.49 1870.02,2594.99 1859.5,2599C 1842.8,2605.95 1826.14,2612.78 1809.5,2619.5C 1801.14,2555.32 1791.64,2491.32 1781,2427.5C 1778.26,2408.56 1776.09,2389.56 1774.5,2370.5C 1794.14,2368.82 1813.8,2368.32 1833.5,2369C 1837.82,2368.79 1841.32,2370.29 1844,2373.5C 1859.17,2402.69 1870.17,2433.35 1877,2465.5C 1885.01,2503.08 1889.84,2541.08 1891.5,2579.5 Z"/></g>
<g><path style="opacity:1" fill="#fefefe" d="M 1514.5,2380.5 C 1507.96,2559.79 1512.46,2738.79 1528,2917.5C 1534.98,2990.2 1545.48,3062.36 1559.5,3134C 1553.45,3138.37 1547.12,3142.37 1540.5,3146C 1476.25,3180.25 1408.58,3205.08 1337.5,3220.5C 1245.01,3218.45 1154.68,3203.79 1066.5,3176.5C 1020.48,3035.41 984.311,2891.74 958,2745.5C 937.972,2635.47 922.472,2524.8 911.5,2413.5C 1027.59,2391.8 1144.59,2377.63 1262.5,2371C 1333.92,2368.03 1405.26,2369.36 1476.5,2375C 1489.42,2376.03 1502.09,2377.86 1514.5,2380.5 Z"/></g>
<g><path style="opacity:1" fill="#48718a" d="M 1717.5,2451.5 C 1717.66,2452.87 1717.49,2454.21 1717,2455.5C 1692.32,2470.26 1665.82,2480.09 1637.5,2485C 1628.17,2485.5 1618.84,2485.67 1609.5,2485.5C 1608.18,2453.57 1608.18,2421.57 1609.5,2389.5C 1625.09,2384.35 1641.09,2381.18 1657.5,2380C 1672.5,2379.26 1687.5,2378.93 1702.5,2379C 1709.48,2402.73 1714.48,2426.9 1717.5,2451.5 Z"/></g>
<g><path style="opacity:1" fill="#dbd8d7" d="M 1514.5,2380.5 C 1530.57,2382.46 1546.57,2384.96 1562.5,2388C 1568.1,2422.25 1571.94,2456.75 1574,2491.5C 1576.46,2545.83 1578.79,2600.16 1581,2654.5C 1585.05,2700.16 1589.05,2745.83 1593,2791.5C 1596.77,2875.15 1600.1,2958.81 1603,3042.5C 1605.58,3091.25 1611.42,3139.58 1620.5,3187.5C 1527.87,3213.64 1433.53,3224.64 1337.5,3220.5C 1408.58,3205.08 1476.25,3180.25 1540.5,3146C 1547.12,3142.37 1553.45,3138.37 1559.5,3134C 1545.48,3062.36 1534.98,2990.2 1528,2917.5C 1512.46,2738.79 1507.96,2559.79 1514.5,2380.5 Z"/></g>
<g><path style="opacity:1" fill="#48718a" d="M 726.5,2413.5 C 739.134,2414.61 751.8,2414.77 764.5,2414C 792.096,2410.99 819.763,2409.99 847.5,2411C 858.235,2411.91 868.569,2414.41 878.5,2418.5C 879.251,2419.38 879.751,2420.38 880,2421.5C 881.101,2435.85 882.268,2450.18 883.5,2464.5C 883.5,2466.17 883.5,2467.83 883.5,2469.5C 840.407,2463.25 797.407,2456.41 754.5,2449C 735.833,2436 717.167,2423 698.5,2410C 707.441,2408.65 716.441,2408.15 725.5,2408.5C 725.216,2410.41 725.549,2412.08 726.5,2413.5 Z"/></g>
<g><path style="opacity:1" fill="#242021" d="M 2052.5,2438.5 C 2094.45,2436.52 2135.45,2441.68 2175.5,2454C 2142.85,2457.55 2110.19,2460.89 2077.5,2464C 2051.83,2465.91 2026.16,2465.91 2000.5,2464C 2007.9,2454.13 2017.56,2447.46 2029.5,2444C 2037.27,2442.16 2044.94,2440.32 2052.5,2438.5 Z"/></g>
<g><path style="opacity:1" fill="#324f60" d="M 1717.5,2451.5 C 1726.31,2513.4 1732.14,2575.73 1735,2638.5C 1737.3,2667.73 1740.14,2696.9 1743.5,2726C 1743.36,2726.77 1743.02,2727.44 1742.5,2728C 1703.2,2736.83 1663.54,2743.66 1623.5,2748.5C 1616.18,2660.98 1611.51,2573.31 1609.5,2485.5C 1618.84,2485.67 1628.17,2485.5 1637.5,2485C 1665.82,2480.09 1692.32,2470.26 1717,2455.5C 1717.49,2454.21 1717.66,2452.87 1717.5,2451.5 Z"/></g>
<g><path style="opacity:1" fill="#252122" d="M 2048.5,2521.5 C 2099.14,2519.95 2148.14,2528.12 2195.5,2546C 2131.11,2547.17 2066.78,2545.84 2002.5,2542C 2001.06,2541.78 1999.73,2541.28 1998.5,2540.5C 2003.65,2535.42 2009.65,2531.59 2016.5,2529C 2027.07,2525.52 2037.74,2523.02 2048.5,2521.5 Z"/></g>
<g><path style="opacity:1" fill="#dad7d6" d="M 1891.5,2579.5 C 1893.41,2605.98 1893.91,2632.65 1893,2659.5C 1875.01,2664.72 1857.17,2670.55 1839.5,2677C 1835.85,2677.72 1832.19,2678.22 1828.5,2678.5C 1823.85,2679 1819.51,2678.33 1815.5,2676.5C 1814.1,2657.43 1812.1,2638.43 1809.5,2619.5C 1826.14,2612.78 1842.8,2605.95 1859.5,2599C 1870.02,2594.99 1880.69,2591.49 1891.5,2588.5C 1891.5,2585.5 1891.5,2582.5 1891.5,2579.5 Z"/></g>
<g><path style="opacity:1" fill="#959191" d="M 1815.5,2676.5 C 1819.51,2678.33 1823.85,2679 1828.5,2678.5C 1824.37,2679.48 1820.03,2679.82 1815.5,2679.5C 1815.5,2678.5 1815.5,2677.5 1815.5,2676.5 Z"/></g>
<g><path style="opacity:0.998" fill="#dbd8d7" d="M 1686.5,2796.5 C 1691.6,2796.17 1696.6,2796.67 1701.5,2798C 1702.97,2799.1 1703.8,2800.6 1704,2802.5C 1705.44,2811.48 1706.78,2820.48 1708,2829.5C 1717.77,2873.68 1726.77,2918.02 1735,2962.5C 1739.12,2988.35 1740.45,3014.35 1739,3040.5C 1714.43,3050.8 1688.93,3057.63 1662.5,3061C 1654.84,3061.5 1647.17,3061.67 1639.5,3061.5C 1636.67,3015.68 1634,2969.85 1631.5,2924C 1629.61,2885.52 1628.61,2847.02 1628.5,2808.5C 1635.28,2808.64 1641.95,2807.81 1648.5,2806C 1661.29,2802.8 1673.96,2799.64 1686.5,2796.5 Z"/></g>
<g><path style="opacity:0.992" fill="#221e1f" d="M 1236.5,3446.5 C 1242.51,3446.33 1248.51,3446.5 1254.5,3447C 1255.67,3448.17 1256.83,3449.33 1258,3450.5C 1258.33,3549.83 1258.67,3649.17 1259,3748.5C 1291.24,3719.93 1322.57,3690.26 1353,3659.5C 1358.24,3654.23 1360.24,3647.89 1359,3640.5C 1358.17,3639 1357,3637.83 1355.5,3637C 1344.84,3632.84 1333.84,3630 1322.5,3628.5C 1322.5,3621.5 1322.5,3614.5 1322.5,3607.5C 1371.83,3607.5 1421.17,3607.5 1470.5,3607.5C 1470.83,3614.53 1470.5,3621.53 1469.5,3628.5C 1432.45,3637.86 1399.12,3654.36 1369.5,3678C 1360.83,3685.33 1352.17,3692.67 1343.5,3700C 1379.04,3751.57 1414.2,3803.41 1449,3855.5C 1461.62,3867.63 1476.78,3873.63 1494.5,3873.5C 1494.5,3881.17 1494.5,3888.83 1494.5,3896.5C 1451.53,3897.82 1406.53,3897.82 1359.5,3896.5C 1333.49,3851.52 1305.16,3808.19 1274.5,3766.5C 1269.19,3770.65 1264.02,3774.98 1259,3779.5C 1258.05,3804.87 1258.38,3830.21 1260,3855.5C 1262.14,3862.97 1266.97,3867.81 1274.5,3870C 1282.6,3872.85 1290.93,3874.35 1299.5,3874.5C 1299.5,3882.17 1299.5,3889.83 1299.5,3897.5C 1238.83,3897.5 1178.17,3897.5 1117.5,3897.5C 1117.5,3889.83 1117.5,3882.17 1117.5,3874.5C 1129.22,3874.32 1140.55,3872.16 1151.5,3868C 1157.99,3863.19 1161.49,3856.69 1162,3848.5C 1162.67,3736.83 1162.67,3625.17 1162,3513.5C 1160.02,3503.05 1155.52,3493.88 1148.5,3486C 1144.46,3483.43 1140.12,3481.43 1135.5,3480C 1126.58,3477.92 1117.58,3476.42 1108.5,3475.5C 1108.5,3468.17 1108.5,3460.83 1108.5,3453.5C 1151.34,3451.56 1194.01,3449.23 1236.5,3446.5 Z"/></g>
<g><path style="opacity:0.993" fill="#221e1f" d="M 1573.5,3447.5 C 1602.86,3444.26 1624.36,3455.59 1638,3481.5C 1646.89,3509.52 1639.05,3531.35 1614.5,3547C 1595.83,3556.23 1576.83,3556.89 1557.5,3549C 1532.27,3536.03 1522.43,3515.53 1528,3487.5C 1535.85,3465.82 1551.01,3452.49 1573.5,3447.5 Z"/></g>
<g><path style="opacity:0.996" fill="#221e1f" d="M 141.5,3908.5 C 132.833,3908.5 124.167,3908.5 115.5,3908.5C 81.1302,3907.06 51.9635,3894.06 28,3869.5C 7.88346,3842.03 3.21679,3812.03 14,3779.5C 26.5088,3754.66 46.6755,3744.16 74.5,3748C 98.7774,3751.28 113.944,3764.78 120,3788.5C 121.81,3800.7 120.143,3812.37 115,3823.5C 105.463,3838.71 93.4629,3851.71 79,3862.5C 78.3333,3864.17 78.3333,3865.83 79,3867.5C 86.6053,3876.33 96.2719,3880.33 108,3879.5C 139.331,3878.52 160.665,3863.52 172,3834.5C 176.721,3820.89 179.388,3806.89 180,3792.5C 180.667,3708.5 180.667,3624.5 180,3540.5C 180.046,3531.57 176.212,3525.07 168.5,3521C 152.913,3513.85 136.58,3509.35 119.5,3507.5C 119.5,3499.83 119.5,3492.17 119.5,3484.5C 193.167,3484.5 266.833,3484.5 340.5,3484.5C 339.886,3492.61 340.553,3500.44 342.5,3508C 332.867,3509.77 323.2,3511.44 313.5,3513C 297.122,3513.71 288.289,3522.21 287,3538.5C 286.667,3619.83 286.333,3701.17 286,3782.5C 278.626,3841.87 246.46,3880.71 189.5,3899C 173.625,3903.54 157.625,3906.71 141.5,3908.5 Z"/></g>
<g><path style="opacity:0.992" fill="#221e1f" d="M 946.5,3599.5 C 970.523,3597.45 993.189,3601.95 1014.5,3613C 1038.07,3629.95 1050.9,3653.12 1053,3682.5C 1053.02,3739.2 1053.69,3795.86 1055,3852.5C 1056.23,3858.81 1059.73,3863.31 1065.5,3866C 1074.97,3870.59 1084.97,3873.09 1095.5,3873.5C 1095.5,3881.5 1095.5,3889.5 1095.5,3897.5C 1037.5,3897.5 979.5,3897.5 921.5,3897.5C 921.5,3889.83 921.5,3882.17 921.5,3874.5C 930.367,3874.19 939.034,3872.69 947.5,3870C 953.079,3866.35 956.245,3861.18 957,3854.5C 957.667,3800.5 957.667,3746.5 957,3692.5C 952.471,3657.33 932.971,3643.5 898.5,3651C 878.604,3657.25 863.104,3669.08 852,3686.5C 851.043,3741.52 851.376,3796.52 853,3851.5C 855.902,3862.73 863.068,3869.57 874.5,3872C 879.457,3873.16 884.457,3873.99 889.5,3874.5C 889.5,3882.17 889.5,3889.83 889.5,3897.5C 830.167,3897.5 770.833,3897.5 711.5,3897.5C 711.5,3889.83 711.5,3882.17 711.5,3874.5C 723.675,3874.23 735.341,3871.73 746.5,3867C 751,3863.17 753.833,3858.34 755,3852.5C 756.64,3792.19 756.973,3731.86 756,3671.5C 753.694,3654.05 744.194,3642.55 727.5,3637C 721.322,3635 714.988,3634.17 708.5,3634.5C 708.5,3626.83 708.5,3619.17 708.5,3611.5C 755.161,3608.93 801.828,3606.76 848.5,3605C 849.667,3606.17 850.833,3607.33 852,3608.5C 852.333,3622.5 852.667,3636.5 853,3650.5C 862.464,3642.7 871.631,3634.54 880.5,3626C 899.964,3610.76 921.964,3601.93 946.5,3599.5 Z"/></g>
<g><path style="opacity:0.993" fill="#231e1f" d="M 1942.5,3599.5 C 1963.6,3598.05 1983.93,3601.21 2003.5,3609C 2031.39,3624.91 2046.56,3649.07 2049,3681.5C 2049.04,3738.52 2049.7,3795.52 2051,3852.5C 2054.48,3862.17 2061.31,3868 2071.5,3870C 2078.04,3871.92 2084.71,3873.09 2091.5,3873.5C 2091.5,3881.5 2091.5,3889.5 2091.5,3897.5C 2033.5,3897.5 1975.5,3897.5 1917.5,3897.5C 1917.5,3889.83 1917.5,3882.17 1917.5,3874.5C 1926.37,3874.19 1935.03,3872.69 1943.5,3870C 1948.64,3866.52 1951.8,3861.68 1953,3855.5C 1954.62,3805.52 1954.95,3755.52 1954,3705.5C 1954.25,3690.42 1950.59,3676.42 1943,3663.5C 1934.78,3653.39 1924.11,3648.39 1911,3648.5C 1884.72,3650.97 1864.05,3662.97 1849,3684.5C 1848.33,3739.83 1848.33,3795.17 1849,3850.5C 1851.46,3862.3 1858.63,3869.46 1870.5,3872C 1875.46,3873.16 1880.46,3873.99 1885.5,3874.5C 1885.5,3882.17 1885.5,3889.83 1885.5,3897.5C 1826.17,3897.5 1766.83,3897.5 1707.5,3897.5C 1707.5,3889.83 1707.5,3882.17 1707.5,3874.5C 1719.67,3874.23 1731.34,3871.73 1742.5,3867C 1747,3863.16 1749.84,3858.33 1751,3852.5C 1752.64,3791.86 1752.98,3731.2 1752,3670.5C 1746.29,3645.37 1730.46,3633.37 1704.5,3634.5C 1704.5,3626.83 1704.5,3619.17 1704.5,3611.5C 1751.5,3608.96 1798.5,3606.8 1845.5,3605C 1846.67,3606.17 1847.83,3607.33 1849,3608.5C 1849.17,3622.18 1849.67,3635.85 1850.5,3649.5C 1864.49,3636.01 1879.49,3623.84 1895.5,3613C 1910.45,3605.52 1926.12,3601.02 1942.5,3599.5 Z"/></g>
<g><path style="opacity:0.995" fill="#221e1f" d="M 523.5,3601.5 C 548.556,3600.31 573.223,3602.81 597.5,3609C 646.338,3624.85 673.505,3658.35 679,3709.5C 679.5,3721.16 679.667,3732.83 679.5,3744.5C 614.167,3744.5 548.833,3744.5 483.5,3744.5C 483.013,3768.25 486.846,3791.25 495,3813.5C 511.122,3848.75 538.788,3865.75 578,3864.5C 601.106,3864.69 621.273,3857.19 638.5,3842C 648.801,3832.87 657.801,3822.71 665.5,3811.5C 673.012,3816.76 680.346,3822.26 687.5,3828C 665.459,3865.35 633.459,3890.02 591.5,3902C 550.155,3911.06 509.488,3908.73 469.5,3895C 413.462,3871.16 383.295,3828.66 379,3767.5C 375.934,3709.96 397.101,3663.79 442.5,3629C 467.437,3613.52 494.437,3604.36 523.5,3601.5 Z M 527.5,3625.5 C 542.277,3623.97 553.777,3629.31 562,3641.5C 566.517,3649.72 569.85,3658.39 572,3667.5C 574.162,3683.76 575.329,3700.1 575.5,3716.5C 544.512,3717.48 513.512,3718.15 482.5,3718.5C 482.793,3697.28 486.293,3676.61 493,3656.5C 499.11,3639.88 510.61,3629.54 527.5,3625.5 Z"/></g>
<g><path style="opacity:0.994" fill="#221e1f" d="M 2241.5,3601.5 C 2276.48,3599.5 2310.15,3605.16 2342.5,3618.5C 2345.12,3613.48 2347.45,3608.31 2349.5,3603C 2357.16,3602.5 2364.83,3602.33 2372.5,3602.5C 2374.14,3635.5 2375.8,3668.5 2377.5,3701.5C 2370.14,3701.83 2362.8,3701.5 2355.5,3700.5C 2344.5,3670 2324.5,3647.5 2295.5,3633C 2274.13,3624.65 2253.46,3625.98 2233.5,3637C 2221.24,3648.27 2218.07,3661.77 2224,3677.5C 2225.98,3681.96 2228.81,3685.79 2232.5,3689C 2239.73,3693.78 2247.39,3697.78 2255.5,3701C 2269.59,3706.14 2283.93,3710.48 2298.5,3714C 2322.88,3720.67 2345.22,3731.33 2365.5,3746C 2387.59,3767.61 2396.09,3793.78 2391,3824.5C 2384.51,3858.33 2365.01,3881.16 2332.5,3893C 2272.89,3915.34 2214.89,3911.84 2158.5,3882.5C 2155.13,3888.06 2152.13,3893.9 2149.5,3900C 2141.84,3900.5 2134.17,3900.67 2126.5,3900.5C 2124.82,3864.53 2123.49,3828.53 2122.5,3792.5C 2130.17,3792.5 2137.83,3792.5 2145.5,3792.5C 2158.58,3829.08 2182.25,3856.58 2216.5,3875C 2240.21,3886.33 2263.88,3886.33 2287.5,3875C 2300.02,3864.45 2304.86,3850.95 2302,3834.5C 2300.25,3826.5 2296.08,3820 2289.5,3815C 2282.27,3810.22 2274.61,3806.22 2266.5,3803C 2245.07,3796.64 2223.74,3789.98 2202.5,3783C 2179.26,3775.48 2160.43,3761.98 2146,3742.5C 2131.33,3717.11 2128.66,3690.45 2138,3662.5C 2145.25,3646.58 2156.09,3633.75 2170.5,3624C 2192.42,3610.77 2216.09,3603.27 2241.5,3601.5 Z"/></g>
<g><path style="opacity:0.992" fill="#231e1f" d="M 1620.5,3604.5 C 1625.51,3604.33 1630.51,3604.5 1635.5,3605C 1636.67,3606.17 1637.83,3607.33 1639,3608.5C 1639.01,3688.54 1639.68,3768.54 1641,3848.5C 1642.35,3855.37 1645.85,3860.87 1651.5,3865C 1661.77,3870.7 1672.77,3873.87 1684.5,3874.5C 1684.5,3882.17 1684.5,3889.83 1684.5,3897.5C 1622.83,3897.5 1561.17,3897.5 1499.5,3897.5C 1499.5,3889.83 1499.5,3882.17 1499.5,3874.5C 1511.38,3874.36 1522.71,3871.86 1533.5,3867C 1538,3863.16 1540.84,3858.33 1542,3852.5C 1542.67,3790.17 1542.67,3727.83 1542,3665.5C 1540.11,3656.86 1535.61,3650.03 1528.5,3645C 1517,3638.54 1504.67,3635.04 1491.5,3634.5C 1491.5,3626.83 1491.5,3619.17 1491.5,3611.5C 1534.68,3609.61 1577.68,3607.28 1620.5,3604.5 Z"/></g>
</svg>
