<?xml version="1.0" encoding="UTF-8"?>
<!DOCTYPE svg PUBLIC "-//W3C//DTD SVG 1.1//EN" "http://www.w3.org/Graphics/SVG/1.1/DTD/svg11.dtd">
<svg xmlns="http://www.w3.org/2000/svg" version="1.1" width="180px" height="180px" style="shape-rendering:geometricPrecision; text-rendering:geometricPrecision; image-rendering:optimizeQuality; fill-rule:evenodd; clip-rule:evenodd" xmlns:xlink="http://www.w3.org/1999/xlink">
<g><path style="opacity:0.004" fill="#000000" d="M 157.5,26.5 C 158.251,25.4265 159.251,25.2599 160.5,26C 159.552,26.4828 158.552,26.6495 157.5,26.5 Z"/></g>
<g><path style="opacity:0.004" fill="#000000" d="M 155.5,26.5 C 156.833,27.1667 156.833,27.1667 155.5,26.5 Z"/></g>
<g><path style="opacity:0.004" fill="#000000" d="M 161.5,26.5 C 162.833,27.1667 162.833,27.1667 161.5,26.5 Z"/></g>
<g><path style="opacity:0.621" fill="#121213" d="M 178.5,34.5 C 177.637,33.537 176.97,33.537 176.5,34.5C 177.433,38.4295 177.766,42.4295 177.5,46.5C 176.167,47.1667 176.167,47.8333 177.5,48.5C 177.34,50.153 176.674,51.4863 175.5,52.5C 176.167,53.8333 177.167,54.8333 178.5,55.5C 178.5,56.1667 178.833,56.5 179.5,56.5C 179.5,59.1667 179.5,61.8333 179.5,64.5C 178.167,64.8333 178.167,65.1667 179.5,65.5C 179.5,65.8333 179.5,66.1667 179.5,66.5C 178.508,66.3284 177.842,66.6618 177.5,67.5C 176.833,67.5 176.5,67.8333 176.5,68.5C 175.508,68.3284 174.842,68.6618 174.5,69.5C 173.508,69.3284 172.842,69.6618 172.5,70.5C 170.265,70.2053 168.265,70.5386 166.5,71.5C 165.5,72.5 164.5,73.5 163.5,74.5C 159.5,74.8333 159.5,75.1667 163.5,75.5C 157.312,76.955 150.978,78.2884 144.5,79.5C 144.167,78.1667 143.833,78.1667 143.5,79.5C 141.618,80.221 141.285,81.221 142.5,82.5C 141.109,84.8903 139.109,86.5569 136.5,87.5C 136.167,86.1667 135.833,86.1667 135.5,87.5C 134.508,87.3284 133.842,87.6618 133.5,88.5C 131.821,88.8923 130.154,89.3923 128.5,90C 130,91.5 131.5,93 133,94.5C 133.333,94.1667 133.667,93.8333 134,93.5C 134.249,96.1768 135.249,98.5101 137,100.5C 137.667,101.833 138.333,101.833 139,100.5C 143.27,108.516 141.437,114.516 133.5,118.5C 132.833,118.5 132.5,118.833 132.5,119.5C 131.508,119.328 130.842,119.662 130.5,120.5C 129.508,120.328 128.842,120.662 128.5,121.5C 127.209,121.263 126.209,121.596 125.5,122.5C 123.585,122.216 121.919,122.549 120.5,123.5C 117.68,123.752 115.014,123.252 112.5,122C 111.167,121.333 111.167,120.667 112.5,120C 110.291,118.127 108.458,115.96 107,113.5C 106.502,116.482 106.335,119.482 106.5,122.5C 105.833,122.5 105.5,122.833 105.5,123.5C 104.833,123.5 104.5,123.833 104.5,124.5C 103.833,124.5 103.5,124.833 103.5,125.5C 102.833,125.5 102.5,125.833 102.5,126.5C 101.833,126.5 101.5,126.833 101.5,127.5C 100.209,127.263 99.209,127.596 98.5,128.5C 93.3054,128.179 88.3054,128.513 83.5,129.5C 79.1074,129.543 78.7741,129.043 82.5,128C 81.2068,127.51 79.8734,127.343 78.5,127.5C 75.6702,126.265 72.6702,125.265 69.5,124.5C 69.0269,123.094 68.0269,122.427 66.5,122.5C 66.1667,121.167 65.8333,121.167 65.5,122.5C 64.5442,120.453 63.5442,118.287 62.5,116C 60.1902,115.503 57.8568,115.337 55.5,115.5C 55.1667,114.5 54.5,113.833 53.5,113.5C 53.1583,112.662 52.4916,112.328 51.5,112.5C 51.3284,113.492 51.6618,114.158 52.5,114.5C 52.7845,116.415 52.4511,118.081 51.5,119.5C 51.1667,114.167 50.8333,114.167 50.5,119.5C 49.1667,119.833 49.1667,120.167 50.5,120.5C 50.2624,122.404 49.2624,123.738 47.5,124.5C 47.44,123.957 47.1067,123.624 46.5,123.5C 44.2125,124.922 41.7125,125.589 39,125.5C 34.3801,125.053 29.8801,124.053 25.5,122.5C 23.6076,123.813 21.941,123.646 20.5,122C 20.8333,121.667 21.1667,121.333 21.5,121C 18.3053,118.075 15.472,114.908 13,111.5C 13.6826,107.67 13.5159,103.837 12.5,100C 12.9444,98.2382 13.4444,98.4049 14,100.5C 15.4947,98.8904 15.6613,97.2237 14.5,95.5C 15.376,94.7492 16.376,94.2492 17.5,94C 16.3659,92.984 16.6992,92.3173 18.5,92C 17.1669,90.1598 17.3335,89.6598 19,90.5C 22.0783,88.1319 21.5783,86.2985 17.5,85C 18.4581,83.8525 18.1247,82.8525 16.5,82C 14.8068,81.1534 13.1401,80.3201 11.5,79.5C 11.5,78.8333 11.1667,78.5 10.5,78.5C 8.87512,76.2919 6.87512,75.4586 4.5,76C 3.16667,75.3333 3.16667,74.6667 4.5,74C 3.74714,72.513 2.9138,72.3463 2,73.5C 1.79959,71.6803 0.96626,70.347 -0.5,69.5C -0.5,67.5 -0.5,65.5 -0.5,63.5C 3.67459,63.188 7.67459,63.8547 11.5,65.5C 13.5752,64.2385 15.5752,64.4052 17.5,66C 16.8333,66.3333 16.1667,66.6667 15.5,67C 17.0249,68.0086 18.6916,68.5086 20.5,68.5C 21.5676,69.4345 22.901,69.7678 24.5,69.5C 24.8417,70.3382 25.5084,70.6716 26.5,70.5C 26.4914,68.6916 26.9914,67.0249 28,65.5C 28.3333,65.8333 28.6667,66.1667 29,66.5C 31.2131,64.4584 31.8798,62.125 31,59.5C 31.6667,58.1667 32.3333,58.1667 33,59.5C 33.2315,57.8426 34.0648,56.5093 35.5,55.5C 36.3636,54.3117 37.3636,53.1451 38.5,52C 37.8333,51.6667 37.1667,51.3333 36.5,51C 58.1688,33.2143 81.8355,30.0476 107.5,41.5C 106.167,41.8333 106.167,42.1667 107.5,42.5C 110.131,44.1526 112.797,45.8193 115.5,47.5C 117.291,48.3913 119.124,49.3913 121,50.5C 121.617,51.4491 121.451,52.2825 120.5,53C 124.386,53.0265 127.552,54.5265 130,57.5C 130.333,57.1667 130.667,56.8333 131,56.5C 132.449,60.3008 134.283,60.4675 136.5,57C 136.043,56.586 135.709,56.086 135.5,55.5C 136.967,51.931 138.134,48.2643 139,44.5C 139.333,45.8333 139.667,47.1667 140,48.5C 140.606,45.57 141.44,42.7367 142.5,40C 141.542,38.8525 141.875,37.8525 143.5,37C 143.167,36.6667 142.833,36.3333 142.5,36C 145.376,33.563 148.71,32.2297 152.5,32C 150.833,31.6667 149.167,31.3333 147.5,31C 149.708,30.8091 151.708,30.3091 153.5,29.5C 155.366,28.9862 157.2,28.3195 159,27.5C 161.028,28.9679 162.862,28.8013 164.5,27C 168.18,25.9726 171.347,26.8059 174,29.5C 174.333,29.1667 174.667,28.8333 175,28.5C 176.947,30.0634 178.114,32.0634 178.5,34.5 Z M 175.5,52.5 C 172.999,52.4891 172.832,51.8224 175,50.5C 175.464,51.0944 175.631,51.7611 175.5,52.5 Z M 28.5,68.5 C 28.719,69.675 28.3857,70.675 27.5,71.5C 26.8933,71.3764 26.56,71.0431 26.5,70.5C 27.1667,69.8333 27.8333,69.1667 28.5,68.5 Z M 49.5,100.5 C 48.7611,100.369 48.0944,100.536 47.5,101C 48.9233,103.62 48.7566,106.12 47,108.5C 46.5357,107.906 46.369,107.239 46.5,106.5C 45.7515,105.469 45.0848,104.302 44.5,103C 45.3366,101.989 45.67,100.822 45.5,99.5C 47.099,99.2322 48.4324,99.5655 49.5,100.5 Z M 51.5,112.5 C 52.4916,112.328 53.1583,112.662 53.5,113.5C 52.8333,113.5 52.5,113.833 52.5,114.5C 51.6618,114.158 51.3284,113.492 51.5,112.5 Z"/></g>
<g><path style="opacity:0.004" fill="#000000" d="M 153.5,27.5 C 154.833,28.1667 154.833,28.1667 153.5,27.5 Z"/></g>
<g><path style="opacity:0.004" fill="#000000" d="M 153.5,28.5 C 153.5,28.8333 153.5,29.1667 153.5,29.5C 152.83,29.0187 152.83,28.6853 153.5,28.5 Z"/></g>
<g><path style="opacity:0.004" fill="#000000" d="M 61.5,35.5 C 62.2506,34.4265 63.2506,34.2599 64.5,35C 63.552,35.4828 62.552,35.6495 61.5,35.5 Z"/></g>
<g><path style="opacity:0.004" fill="#000000" d="M 92.5,35.5 C 93.2506,34.4265 94.2506,34.2599 95.5,35C 94.552,35.4828 93.552,35.6495 92.5,35.5 Z"/></g>
<g><path style="opacity:0.005" fill="#000000" d="M 178.5,34.5 C 178.833,34.5 179.167,34.5 179.5,34.5C 179.5,36.1667 179.5,37.8333 179.5,39.5C 178.549,38.0813 178.216,36.4147 178.5,34.5 Z"/></g>
<g><path style="opacity:1" fill="#a4b5c7" d="M 156.5,31.5 C 162.118,31.118 164.785,33.7847 164.5,39.5C 158.933,38.7532 157.1,41.0866 159,46.5C 160.204,47.8586 161.704,48.8586 163.5,49.5C 162.284,52.2505 160.284,53.4172 157.5,53C 151.284,46.0371 150.951,38.8704 156.5,31.5 Z"/></g>
<g><path style="opacity:1" fill="#9cacbe" d="M 166.5,29.5 C 171.86,30.6932 174.36,34.0265 174,39.5C 173.5,39 173,38.5 172.5,38C 170.479,37.8598 168.645,37.6932 167,37.5C 166.767,35.2199 165.934,33.2199 164.5,31.5C 165.243,30.8182 165.909,30.1515 166.5,29.5 Z"/></g>
<g><path style="opacity:1" fill="#f4f4f4" d="M 148.5,35.5 C 150.172,40.1315 151.338,45.1315 152,50.5C 152.785,52.286 153.951,53.786 155.5,55C 160.738,54.0729 166.071,53.7395 171.5,54C 174.274,56.0638 176.107,58.5638 177,61.5C 174.932,65.9274 171.432,67.594 166.5,66.5C 164.167,66.3333 161.833,66.1667 159.5,66C 157.023,64.3573 154.69,62.524 152.5,60.5C 151.592,61.79 151.759,63.1233 153,64.5C 155.626,67.2308 158.793,69.0642 162.5,70C 162.167,70.3333 161.833,70.6667 161.5,71C 156.25,72.174 150.916,72.8407 145.5,73C 141.5,75.6667 138.167,79 135.5,83C 130.439,85.2585 125.105,86.0919 119.5,85.5C 118.906,77.5008 120.906,70.3341 125.5,64C 134.918,64.9225 140.751,60.7558 143,51.5C 143.008,45.4367 144.841,40.1034 148.5,35.5 Z"/></g>
<g><path style="opacity:1" fill="#7e98c9" d="M 68.5,38.5 C 82.0396,37.1022 94.7062,39.6022 106.5,46C 110.278,48.112 113.778,50.612 117,53.5C 116.6,57.3404 115.266,61.0071 113,64.5C 111.528,72.9451 108.695,80.7784 104.5,88C 102.833,88.6667 101.167,88.6667 99.5,88C 95.5228,86.4684 91.5228,85.3017 87.5,84.5C 81.6501,85.2829 75.9834,86.7829 70.5,89C 67.1667,89.6667 63.8333,89.6667 60.5,89C 54.1868,85.3657 47.8534,81.699 41.5,78C 37.9726,76.8242 34.4726,75.6575 31,74.5C 35.8275,54.5058 48.3275,42.5058 68.5,38.5 Z"/></g>
<g><path style="opacity:0.004" fill="#000000" d="M 107.5,41.5 C 108.833,42.1667 108.833,42.1667 107.5,41.5 Z"/></g>
<g><path style="opacity:0.005" fill="#000000" d="M 179.5,42.5 C 179.5,43.8333 179.5,45.1667 179.5,46.5C 179.167,46.5 178.833,46.5 178.5,46.5C 178.232,44.901 178.566,43.5676 179.5,42.5 Z"/></g>
<g><path style="opacity:0.004" fill="#000000" d="M 113.5,44.5 C 114.833,45.1667 114.833,45.1667 113.5,44.5 Z"/></g>
<g><path style="opacity:0.004" fill="#000000" d="M 115.5,47.5 C 115.897,46.475 116.563,46.3083 117.5,47C 116.906,47.4643 116.239,47.631 115.5,47.5 Z"/></g>
<g><path style="opacity:0.006" fill="#000000" d="M 177.5,46.5 C 177.833,46.5 178.167,46.5 178.5,46.5C 178.672,47.4916 178.338,48.1583 177.5,48.5C 177.5,47.8333 177.5,47.1667 177.5,46.5 Z"/></g>
<g><path style="opacity:1" fill="#a1b2c4" d="M 167.5,44.5 C 169.429,46.2578 171.429,46.9245 173.5,46.5C 171.957,49.3905 169.624,51.0571 166.5,51.5C 166.448,49.0971 166.781,46.7638 167.5,44.5 Z"/></g>
<g><path style="opacity:0.004" fill="#000000" d="M 126.5,52.5 C 127.833,53.1667 127.833,53.1667 126.5,52.5 Z"/></g>
<g><path style="opacity:0.004" fill="#000000" d="M 35.5,55.5 C 34.8333,54.1667 34.8333,54.1667 35.5,55.5 Z"/></g>
<g><path style="opacity:0.008" fill="#000000" d="M 179.5,54.5 C 179.5,54.8333 179.5,55.1667 179.5,55.5C 178.83,55.0187 178.83,54.6853 179.5,54.5 Z"/></g>
<g><path style="opacity:1" fill="#f0f0f0" d="M 120.5,56.5 C 123.278,56.0217 125.278,57.0217 126.5,59.5C 124.144,62.0217 121.977,64.6884 120,67.5C 118.583,76.6169 115.916,85.2835 112,93.5C 110.207,96.2953 108.04,98.7953 105.5,101C 98.1454,99.4611 90.6454,98.2944 83,97.5C 77.4296,96.8022 72.5963,98.3022 68.5,102C 66.5,102.667 64.5,102.667 62.5,102C 57.6127,99.7232 52.6127,97.7232 47.5,96C 42.8805,88.6888 36.2138,85.0221 27.5,85C 24.4455,82.9242 23.4455,80.2576 24.5,77C 29.3255,76.3818 33.9922,77.0485 38.5,79C 45.1667,83 51.8333,87 58.5,91C 63.1667,91.6667 67.8333,91.6667 72.5,91C 77.3915,89.3127 82.3915,88.1461 87.5,87.5C 92.5774,88.4125 97.5774,89.7458 102.5,91.5C 104.728,90.7814 106.561,89.448 108,87.5C 110.971,79.6193 113.638,71.6193 116,63.5C 117.511,61.1384 119.011,58.8051 120.5,56.5 Z"/></g>
<g><path style="opacity:0.004" fill="#000000" d="M 8.5,63.5 C 8.89657,62.475 9.56323,62.3083 10.5,63C 9.90558,63.4643 9.23891,63.631 8.5,63.5 Z"/></g>
<g><path style="opacity:0.005" fill="#000000" d="M 20.5,68.5 C 21.2506,67.4265 22.2506,67.2599 23.5,68C 22.552,68.4828 21.552,68.6495 20.5,68.5 Z"/></g>
<g><path style="opacity:0.004" fill="#000000" d="M 177.5,67.5 C 178.833,68.1667 178.833,68.1667 177.5,67.5 Z"/></g>
<g><path style="opacity:1" fill="#e5e5e5" d="M 2.5,66.5 C 9.77199,69.0909 17.1053,71.5909 24.5,74C 21.5228,75.1455 19.8561,77.3121 19.5,80.5C 14.3617,77.1947 9.36173,73.6947 4.5,70C 3.17723,69.1841 2.51056,68.0174 2.5,66.5 Z"/></g>
<g><path style="opacity:0.004" fill="#000000" d="M 24.5,68.5 C 25.8333,69.1667 25.8333,69.1667 24.5,68.5 Z"/></g>
<g><path style="opacity:0.004" fill="#000000" d="M 176.5,68.5 C 176.833,68.5 177.167,68.5 177.5,68.5C 177.315,69.1701 176.981,69.1701 176.5,68.5 Z"/></g>
<g><path style="opacity:0.004" fill="#000000" d="M 174.5,70.5 C 174.5,70.1667 174.5,69.8333 174.5,69.5C 175.167,69.5 175.833,69.5 176.5,69.5C 176.158,70.3382 175.492,70.6716 174.5,70.5 Z"/></g>
<g><path style="opacity:0.006" fill="#000000" d="M 172.5,71.5 C 172.5,71.1667 172.5,70.8333 172.5,70.5C 173.167,70.5 173.833,70.5 174.5,70.5C 174.158,71.3382 173.492,71.6716 172.5,71.5 Z"/></g>
<g><path style="opacity:0.005" fill="#000000" d="M 166.5,71.5 C 168.5,71.5 170.5,71.5 172.5,71.5C 170.5,72.8333 168.5,72.8333 166.5,71.5 Z"/></g>
<g><path style="opacity:0.004" fill="#000000" d="M 163.5,74.5 C 164.833,75.1667 164.833,75.1667 163.5,74.5 Z"/></g>
<g><path style="opacity:0.004" fill="#000000" d="M 10.5,78.5 C 11.1667,78.5 11.5,78.8333 11.5,79.5C 10.5029,80.7125 9.50289,80.5458 8.5,79C 9.09442,78.5357 9.76109,78.369 10.5,78.5 Z"/></g>
<g><path style="opacity:0.004" fill="#000000" d="M 143.5,79.5 C 143.833,79.5 144.167,79.5 144.5,79.5C 144.315,80.1701 143.981,80.1701 143.5,79.5 Z"/></g>
<g><path style="opacity:0.004" fill="#000000" d="M 142.5,81.5 C 143.833,82.1667 143.833,82.1667 142.5,81.5 Z"/></g>
<g><path style="opacity:0.004" fill="#000000" d="M 135.5,87.5 C 135.833,87.5 136.167,87.5 136.5,87.5C 136.315,88.1701 135.981,88.1701 135.5,87.5 Z"/></g>
<g><path style="opacity:1" fill="#f5f5f5" d="M 26.5,87.5 C 33.6133,87.2246 39.28,89.8912 43.5,95.5C 42.0678,98.3273 41.4012,101.327 41.5,104.5C 31.1182,102.356 24.4516,106.356 21.5,116.5C 17.8514,111.389 16.6847,105.722 18,99.5C 20.1058,94.9438 22.9392,90.9438 26.5,87.5 Z"/></g>
<g><path style="opacity:1" fill="#eeeeee" d="M 117.5,87.5 C 121.861,88.1697 125.195,90.503 127.5,94.5C 118.643,99.2227 114.143,106.556 114,116.5C 110.376,113.36 108.542,109.36 108.5,104.5C 111.69,98.9282 114.69,93.2616 117.5,87.5 Z"/></g>
<g><path style="opacity:0.004" fill="#000000" d="M 133.5,88.5 C 134.167,88.5 134.833,88.5 135.5,88.5C 134.833,89.8333 134.167,89.8333 133.5,88.5 Z"/></g>
<g><path style="opacity:1" fill="#e2e2e2" d="M 128.5,96.5 C 134.431,99.7077 136.597,104.708 135,111.5C 132.545,106.915 129.378,102.915 125.5,99.5C 126.77,98.7124 127.77,97.7124 128.5,96.5 Z"/></g>
<g><path style="opacity:1" fill="#f5f5f5" d="M 77.5,100.5 C 83.8979,100.243 90.2312,100.743 96.5,102C 98.3031,102.637 99.6364,103.803 100.5,105.5C 89.9816,107.566 82.9816,113.566 79.5,123.5C 67.8387,122.512 64.0054,116.512 68,105.5C 70.4981,102.361 73.6647,100.694 77.5,100.5 Z"/></g>
<g><path style="opacity:1" fill="#434855" d="M 54.5,101.5 C 57.8407,103.5 61.5074,104.5 65.5,104.5C 65.146,110.356 62.146,112.523 56.5,111C 53.8261,108.152 53.1594,104.985 54.5,101.5 Z"/></g>
<g><path style="opacity:1" fill="#e2e2e2" d="M 122.5,101.5 C 129.375,104.168 132.042,109.002 130.5,116C 129.551,116.617 128.718,116.451 128,115.5C 126.945,111.065 124.612,107.398 121,104.5C 120.761,103.212 121.261,102.212 122.5,101.5 Z"/></g>
<g><path style="opacity:1" fill="#e4e4e4" d="M 118.5,106.5 C 120.371,106.859 121.871,107.859 123,109.5C 124.442,112.05 125.608,114.716 126.5,117.5C 116.423,119.505 113.756,115.838 118.5,106.5 Z"/></g>
<g><path style="opacity:1" fill="#e5e5e5" d="M 29.5,107.5 C 32.7301,107.561 34.5635,109.228 35,112.5C 35.6667,114.833 35.6667,117.167 35,119.5C 34.6121,120.428 33.9454,121.095 33,121.5C 29.6308,120.9 26.7975,119.4 24.5,117C 25.7897,113.585 27.4564,110.418 29.5,107.5 Z"/></g>
<g><path style="opacity:1" fill="#d7d7d7" d="M 97.5,108.5 C 99.7224,108.178 101.556,108.845 103,110.5C 103.824,113.882 103.657,117.216 102.5,120.5C 101.576,116.404 99.5761,112.904 96.5,110C 97.056,109.617 97.3893,109.117 97.5,108.5 Z"/></g>
<g><path style="opacity:1" fill="#d5d5d5" d="M 35.5,106.5 C 38.0495,106.561 39.5495,107.894 40,110.5C 41.2367,114.06 41.7367,117.727 41.5,121.5C 40.1667,121.5 38.8333,121.5 37.5,121.5C 37.9088,116.308 37.2421,111.308 35.5,106.5 Z"/></g>
<g><path style="opacity:1" fill="#e7e7e7" d="M 90.5,111.5 C 97.6267,112.703 100.627,117.036 99.5,124.5C 98.1779,124.67 97.0113,124.337 96,123.5C 94.9484,119.068 93.1151,115.068 90.5,111.5 Z"/></g>
<g><path style="opacity:1" fill="#dadada" d="M 40.5,106.5 C 42.7757,108.331 44.609,110.664 46,113.5C 46.9694,116.328 46.3028,118.662 44,120.5C 43.9642,115.51 42.7976,110.844 40.5,106.5 Z"/></g>
<g><path style="opacity:0.004" fill="#000000" d="M 55.5,115.5 C 54.8333,116.167 54.8333,116.167 55.5,115.5 Z"/></g>
<g><path style="opacity:1" fill="#ececec" d="M 87.5,114.5 C 91.5469,116.592 93.5469,119.925 93.5,124.5C 89.8333,124.5 86.1667,124.5 82.5,124.5C 83.0849,120.663 84.7516,117.33 87.5,114.5 Z"/></g>
<g><path style="opacity:0.004" fill="#000000" d="M 56.5,116.5 C 57.8333,117.167 57.8333,117.167 56.5,116.5 Z"/></g>
<g><path style="opacity:0.004" fill="#000000" d="M 133.5,118.5 C 134.833,119.167 134.833,119.167 133.5,118.5 Z"/></g>
<g><path style="opacity:0.004" fill="#000000" d="M 50.5,119.5 C 50.8333,119.5 51.1667,119.5 51.5,119.5C 51.3147,120.17 50.9813,120.17 50.5,119.5 Z"/></g>
<g><path style="opacity:0.008" fill="#000000" d="M 132.5,119.5 C 132.833,119.5 133.167,119.5 133.5,119.5C 133.315,120.17 132.981,120.17 132.5,119.5 Z"/></g>
<g><path style="opacity:0.01" fill="#000000" d="M 130.5,121.5 C 130.5,121.167 130.5,120.833 130.5,120.5C 131.167,120.5 131.833,120.5 132.5,120.5C 132.158,121.338 131.492,121.672 130.5,121.5 Z"/></g>
<g><path style="opacity:0.008" fill="#000000" d="M 128.5,122.5 C 128.5,122.167 128.5,121.833 128.5,121.5C 129.167,121.5 129.833,121.5 130.5,121.5C 130.158,122.338 129.492,122.672 128.5,122.5 Z"/></g>
<g><path style="opacity:0.004" fill="#000000" d="M 65.5,122.5 C 65.8333,122.5 66.1667,122.5 66.5,122.5C 66.5,122.833 66.5,123.167 66.5,123.5C 66.1667,123.167 65.8333,122.833 65.5,122.5 Z"/></g>
<g><path style="opacity:0.004" fill="#000000" d="M 106.5,122.5 C 107.833,123.167 107.833,123.167 106.5,122.5 Z"/></g>
<g><path style="opacity:0.005" fill="#000000" d="M 125.5,122.5 C 126.5,122.5 127.5,122.5 128.5,122.5C 126.007,124.584 123.34,124.917 120.5,123.5C 122.415,123.784 124.081,123.451 125.5,122.5 Z"/></g>
<g><path style="opacity:0.004" fill="#000000" d="M 66.5,123.5 C 67.8333,124.167 67.8333,124.167 66.5,123.5 Z"/></g>
<g><path style="opacity:0.004" fill="#000000" d="M 105.5,123.5 C 105.833,123.5 106.167,123.5 106.5,123.5C 106.315,124.17 105.981,124.17 105.5,123.5 Z"/></g>
<g><path style="opacity:0.004" fill="#000000" d="M 47.5,124.5 C 46.8333,125.167 46.8333,125.167 47.5,124.5 Z"/></g>
<g><path style="opacity:0.004" fill="#000000" d="M 69.5,124.5 C 69.5,124.833 69.5,125.167 69.5,125.5C 68.8299,125.019 68.8299,124.685 69.5,124.5 Z"/></g>
<g><path style="opacity:0.004" fill="#000000" d="M 104.5,124.5 C 104.833,124.5 105.167,124.5 105.5,124.5C 105.315,125.17 104.981,125.17 104.5,124.5 Z"/></g>
<g><path style="opacity:0.004" fill="#000000" d="M 30.5,126.5 C 31.2506,125.427 32.2506,125.26 33.5,126C 32.552,126.483 31.552,126.649 30.5,126.5 Z"/></g>
<g><path style="opacity:0.004" fill="#000000" d="M 44.5,125.5 C 45.8333,126.167 45.8333,126.167 44.5,125.5 Z"/></g>
<g><path style="opacity:0.004" fill="#000000" d="M 69.5,125.5 C 70.2389,125.369 70.9056,125.536 71.5,126C 70.5632,126.692 69.8966,126.525 69.5,125.5 Z"/></g>
<g><path style="opacity:0.004" fill="#000000" d="M 103.5,125.5 C 103.833,125.5 104.167,125.5 104.5,125.5C 104.315,126.17 103.981,126.17 103.5,125.5 Z"/></g>
<g><path style="opacity:0.004" fill="#000000" d="M 102.5,126.5 C 102.833,126.5 103.167,126.5 103.5,126.5C 103.315,127.17 102.981,127.17 102.5,126.5 Z"/></g>
<g><path style="opacity:0.004" fill="#000000" d="M 78.5,127.5 C 78.1034,128.525 77.4368,128.692 76.5,128C 77.0944,127.536 77.7611,127.369 78.5,127.5 Z"/></g>
<g><path style="opacity:0.004" fill="#000000" d="M 101.5,127.5 C 101.833,127.5 102.167,127.5 102.5,127.5C 102.315,128.17 101.981,128.17 101.5,127.5 Z"/></g>
<g><path style="opacity:0.006" fill="#000000" d="M 98.5,129.5 C 98.5,129.167 98.5,128.833 98.5,128.5C 101.167,128.833 101.167,129.167 98.5,129.5 Z"/></g>
<g><path style="opacity:0.004" fill="#000000" d="M 83.5,129.5 C 88.5,129.5 93.5,129.5 98.5,129.5C 118.329,130.332 138.329,130.832 158.5,131C 112.5,131.667 66.5,131.667 20.5,131C 41.6707,130.832 62.6707,130.332 83.5,129.5 Z"/></g>
<g><path style="opacity:0.857" fill="#6d82ad" d="M 19.5,132.5 C 66.1667,132.5 112.833,132.5 159.5,132.5C 159.5,133.5 159.5,134.5 159.5,135.5C 112.833,135.5 66.1667,135.5 19.5,135.5C 19.5,134.5 19.5,133.5 19.5,132.5 Z"/></g>
<g><path style="opacity:0.004" fill="#fefffe" d="M 17.5,134.5 C 18.8333,135.167 18.8333,135.167 17.5,134.5 Z"/></g>
<g><path style="opacity:0.004" fill="#fefffe" d="M 160.5,134.5 C 161.833,135.167 161.833,135.167 160.5,134.5 Z"/></g>
<g><path style="opacity:0.008" fill="#8180ea" d="M 88.5,137.5 C 88.5,137.167 88.5,136.833 88.5,136.5C 96.8333,136.5 105.167,136.5 113.5,136.5C 113.158,137.338 112.492,137.672 111.5,137.5C 106.191,138.512 100.858,138.512 95.5,137.5C 93.8333,137.5 92.1667,137.5 90.5,137.5C 89.8333,137.5 89.1667,137.5 88.5,137.5 Z"/></g>
<g><path style="opacity:0.958" fill="#7288b6" d="M 113.5,136.5 C 115.95,136.298 118.283,136.631 120.5,137.5C 135.706,136.199 145.706,136.199 150.5,137.5C 150.5,141.167 150.5,144.833 150.5,148.5C 143.052,149.674 129.718,150.008 110.5,149.5C 110.5,148.833 110.5,148.167 110.5,147.5C 111.167,147.5 111.5,147.167 111.5,146.5C 111.167,146.5 110.833,146.5 110.5,146.5C 110.768,144.901 110.434,143.568 109.5,142.5C 109.392,140.486 110.058,138.82 111.5,137.5C 112.492,137.672 113.158,137.338 113.5,136.5 Z M 112.5,143.5 C 116.223,144.808 115.89,145.808 111.5,146.5C 111.557,145.391 111.89,144.391 112.5,143.5 Z M 134.5,141.5 C 134.688,143.103 134.188,144.437 133,145.5C 132.652,143.86 133.152,142.527 134.5,141.5 Z M 122.5,143.5 C 122.5,143.167 122.5,142.833 122.5,142.5C 123.117,142.389 123.617,142.056 124,141.5C 124.837,143.351 125.671,145.184 126.5,147C 125.407,148.365 124.074,148.699 122.5,148C 123.801,146.384 123.801,144.884 122.5,143.5 Z M 136.5,138.5 C 136.5,141.5 136.5,144.5 136.5,147.5C 136.167,147.5 135.833,147.5 135.5,147.5C 135.795,145.265 135.461,143.265 134.5,141.5C 134.343,140.127 134.51,138.793 135,137.5C 135.383,138.056 135.883,138.389 136.5,138.5 Z M 120.5,137.5 C 121.167,138.5 121.833,139.5 122.5,140.5C 122.5,141.167 122.5,141.833 122.5,142.5C 121.833,142.5 121.5,142.833 121.5,143.5C 120.733,142.828 120.066,141.995 119.5,141C 120.337,139.989 120.67,138.822 120.5,137.5 Z M 135.5,147.5 C 134.923,148.773 134.257,148.773 133.5,147.5C 133.97,146.537 134.637,146.537 135.5,147.5 Z"/></g>
<g><path style="opacity:0.976" fill="#797a7e" d="M 35.5,136.5 C 35.5,136.833 35.5,137.167 35.5,137.5C 35.7035,139.39 35.0368,140.89 33.5,142C 33.6256,143.974 33.7922,146.141 34,148.5C 34.3826,147.944 34.8826,147.611 35.5,147.5C 35.2155,145.585 35.5489,143.919 36.5,142.5C 36.8333,147.833 37.1667,147.833 37.5,142.5C 38.1667,142.5 38.5,142.167 38.5,141.5C 41.3371,138.899 44.1705,138.899 47,141.5C 47.3988,141.272 47.5654,140.938 47.5,140.5C 48.791,140.263 49.791,140.596 50.5,141.5C 51.5523,140.47 52.8857,139.803 54.5,139.5C 56.3686,140.123 58.0352,140.123 59.5,139.5C 59.8333,138.833 60.1667,138.167 60.5,137.5C 61.1667,137.5 61.5,137.167 61.5,136.5C 62.5,136.5 63.5,136.5 64.5,136.5C 64.8417,137.338 65.5084,137.672 66.5,137.5C 65.3734,139.083 65.3734,141.083 66.5,143.5C 66.8333,143.5 67.1667,143.5 67.5,143.5C 67.4125,140.402 67.9125,140.068 69,142.5C 69.7172,141.956 70.2172,141.289 70.5,140.5C 72.0858,139.852 73.7525,139.352 75.5,139C 74.2068,138.51 72.8734,138.343 71.5,138.5C 71.5,138.167 71.5,137.833 71.5,137.5C 73.1667,137.5 74.8333,137.5 76.5,137.5C 76.8333,138.167 77.1667,138.833 77.5,139.5C 76.453,140.078 76.6197,140.744 78,141.5C 78.3988,141.272 78.5654,140.938 78.5,140.5C 79.1667,140.5 79.8333,140.5 80.5,140.5C 80.3359,143.187 80.5026,145.854 81,148.5C 81.2178,145.574 81.7178,142.74 82.5,140C 81.7476,139.329 81.4142,138.496 81.5,137.5C 81.5,137.167 81.5,136.833 81.5,136.5C 83.8333,136.5 86.1667,136.5 88.5,136.5C 88.5,136.833 88.5,137.167 88.5,137.5C 88.6716,138.492 88.3382,139.158 87.5,139.5C 87.5,139.833 87.5,140.167 87.5,140.5C 88.3171,142.969 88.8171,145.635 89,148.5C 89.4554,144.492 89.9554,140.826 90.5,137.5C 92.1667,137.5 93.8333,137.5 95.5,137.5C 94.3915,138.29 93.0581,138.79 91.5,139C 93.8113,139.236 95.8113,140.069 97.5,141.5C 98.172,140.733 99.0053,140.066 100,139.5C 101.395,140.43 102.895,140.43 104.5,139.5C 106.423,140.092 108.089,141.092 109.5,142.5C 109.232,144.099 109.566,145.432 110.5,146.5C 110.5,146.833 110.5,147.167 110.5,147.5C 110.5,148.167 110.5,148.833 110.5,149.5C 80.5088,149.574 50.1755,149.407 19.5,149C 22.1667,148.667 24.8333,148.333 27.5,148C 26.9237,144.432 26.5904,140.932 26.5,137.5C 24.4727,137.662 22.4727,137.495 20.5,137C 25.4889,136.501 30.4889,136.334 35.5,136.5 Z M 58.5,142.5 C 58.4924,148.208 58.9924,148.541 60,143.5C 60.4935,145.134 60.6602,146.801 60.5,148.5C 59.1667,148.5 57.8333,148.5 56.5,148.5C 56.7678,146.901 56.4345,145.568 55.5,144.5C 56.2905,143.599 57.2905,142.932 58.5,142.5 Z M 97.5,141.5 C 98.552,141.351 99.552,141.517 100.5,142C 100.011,144.209 99.0108,146.042 97.5,147.5C 98.6414,145.451 98.6414,143.451 97.5,141.5 Z M 88.5,137.5 C 89.1667,137.5 89.8333,137.5 90.5,137.5C 89.9554,140.826 89.4554,144.492 89,148.5C 88.8171,145.635 88.3171,142.969 87.5,140.5C 87.5,140.167 87.5,139.833 87.5,139.5C 88.3382,139.158 88.6716,138.492 88.5,137.5 Z M 76.5,137.5 C 78.1993,137.527 79.5326,138.194 80.5,139.5C 80.5,139.833 80.5,140.167 80.5,140.5C 79.8333,140.5 79.1667,140.5 78.5,140.5C 78.5,139.833 78.1667,139.5 77.5,139.5C 77.1667,138.833 76.8333,138.167 76.5,137.5 Z M 66.5,137.5 C 68.1667,137.5 69.8333,137.5 71.5,137.5C 71.5,137.833 71.5,138.167 71.5,138.5C 69.8946,139.006 69.5613,139.673 70.5,140.5C 70.2172,141.289 69.7172,141.956 69,142.5C 67.9125,140.068 67.4125,140.402 67.5,143.5C 67.1667,143.5 66.8333,143.5 66.5,143.5C 65.3734,141.083 65.3734,139.083 66.5,137.5 Z M 45.5,138.5 C 50.3573,138.439 55.3573,138.106 60.5,137.5C 60.1667,138.167 59.8333,138.833 59.5,139.5C 58.0352,140.123 56.3686,140.123 54.5,139.5C 52.8857,139.803 51.5523,140.47 50.5,141.5C 49.791,140.596 48.791,140.263 47.5,140.5C 47.1667,139.5 46.5,138.833 45.5,138.5 Z M 35.5,137.5 C 37.4147,137.216 39.0813,137.549 40.5,138.5C 39.5,138.833 38.8333,139.5 38.5,140.5C 37.1667,140.5 36.5,141.167 36.5,142.5C 35.5489,143.919 35.2155,145.585 35.5,147.5C 34.8826,147.611 34.3826,147.944 34,148.5C 33.7922,146.141 33.6256,143.974 33.5,142C 35.0368,140.89 35.7035,139.39 35.5,137.5 Z"/></g>
<g><path style="opacity:0.004" fill="#b8b8b8" d="M 38.5,140.5 C 38.5,140.833 38.5,141.167 38.5,141.5C 37.8333,141.5 37.5,141.833 37.5,142.5C 37.1667,142.5 36.8333,142.5 36.5,142.5C 36.5,141.167 37.1667,140.5 38.5,140.5 Z"/></g>
<g><path style="opacity:0.008" fill="#807ef0" d="M 64.5,136.5 C 70.1667,136.5 75.8333,136.5 81.5,136.5C 81.5,136.833 81.5,137.167 81.5,137.5C 80.6618,137.842 80.3284,138.508 80.5,139.5C 79.5326,138.194 78.1993,137.527 76.5,137.5C 74.8333,137.5 73.1667,137.5 71.5,137.5C 69.8333,137.5 68.1667,137.5 66.5,137.5C 65.5084,137.672 64.8417,137.338 64.5,136.5 Z"/></g>
<g><path style="opacity:0.008" fill="#857fdd" d="M 35.5,137.5 C 35.5,137.167 35.5,136.833 35.5,136.5C 44.1667,136.5 52.8333,136.5 61.5,136.5C 61.5,137.167 61.1667,137.5 60.5,137.5C 55.3573,138.106 50.3573,138.439 45.5,138.5C 43.8333,138.5 42.1667,138.5 40.5,138.5C 39.0813,137.549 37.4147,137.216 35.5,137.5 Z"/></g>
<g><path style="opacity:0.329" fill="#7389b9" d="M 19.5,150.5 C 66.1667,150.5 112.833,150.5 159.5,150.5C 159.5,151.5 159.5,152.5 159.5,153.5C 112.833,153.5 66.1667,153.5 19.5,153.5C 19.5,152.5 19.5,151.5 19.5,150.5 Z"/></g>
<g><path style="opacity:0.004" fill="#0f0eff" d="M 20.5,155.5 C 66.3315,154.335 112.332,154.168 158.5,155C 112.501,155.5 66.5012,155.667 20.5,155.5 Z"/></g>
</svg>
